G75*
G70*
%OFA0B0*%
%FSLAX24Y24*%
%IPPOS*%
%LPD*%
%AMOC8*
5,1,8,0,0,1.08239X$1,22.5*
%
%ADD10C,0.0820*%
%ADD11C,0.1380*%
%ADD12C,0.0600*%
%ADD13C,0.0600*%
%ADD14R,0.0820X0.0820*%
%ADD15C,0.2080*%
D10*
X018101Y009101D03*
X018601Y009851D03*
X019101Y009101D03*
X021601Y009101D03*
X022101Y009851D03*
X022601Y009101D03*
X024101Y009601D03*
X024101Y011601D03*
X024101Y013207D03*
X024101Y015207D03*
X024101Y016707D03*
X024101Y018207D03*
X024101Y019707D03*
X024101Y021207D03*
X027101Y021207D03*
X027101Y019707D03*
X027101Y018207D03*
X027101Y016707D03*
X027101Y015207D03*
X027101Y013207D03*
X027101Y011601D03*
X027101Y009601D03*
X029542Y012920D03*
X030660Y013467D03*
X030660Y014557D03*
X029542Y015101D03*
X029542Y014010D03*
X030660Y015644D03*
X030660Y016735D03*
X029542Y016191D03*
X020585Y016101D03*
X018617Y016101D03*
X018617Y014101D03*
X020585Y014101D03*
X020585Y012101D03*
X018617Y012101D03*
X020101Y005601D03*
X021101Y005601D03*
X022101Y005601D03*
X023101Y005601D03*
X024101Y005601D03*
X025101Y005601D03*
X027101Y005601D03*
X028101Y005601D03*
X029101Y005601D03*
X030101Y005601D03*
X031101Y005601D03*
X032101Y005601D03*
X032101Y024601D03*
X031101Y024601D03*
X030101Y024601D03*
X029101Y024601D03*
X028101Y024601D03*
X027101Y024601D03*
X026101Y024601D03*
X025101Y024601D03*
X023601Y024601D03*
X022601Y024601D03*
X021601Y024601D03*
X020601Y024601D03*
X019601Y024601D03*
X018601Y024601D03*
X017601Y024601D03*
X016601Y024601D03*
D11*
X013101Y024601D03*
X033101Y007601D03*
D12*
X019601Y018651D03*
X019601Y020551D03*
D13*
X013361Y008601D02*
X012841Y008601D01*
X012841Y009601D02*
X013361Y009601D01*
X013361Y010601D02*
X012841Y010601D01*
X012841Y011601D02*
X013361Y011601D01*
X013361Y012601D02*
X012841Y012601D01*
X012841Y013601D02*
X013361Y013601D01*
X013361Y014601D02*
X012841Y014601D01*
X012841Y015601D02*
X013361Y015601D01*
X013361Y016601D02*
X012841Y016601D01*
X012841Y017601D02*
X013361Y017601D01*
X013361Y018601D02*
X012841Y018601D01*
X012841Y019601D02*
X013361Y019601D01*
X013361Y020601D02*
X012841Y020601D01*
X012841Y021601D02*
X013361Y021601D01*
X015841Y021601D02*
X016361Y021601D01*
X016361Y020601D02*
X015841Y020601D01*
X015841Y019601D02*
X016361Y019601D01*
X016361Y018601D02*
X015841Y018601D01*
X015841Y017601D02*
X016361Y017601D01*
X016361Y016601D02*
X015841Y016601D01*
X015841Y015601D02*
X016361Y015601D01*
X016361Y014601D02*
X015841Y014601D01*
X015841Y013601D02*
X016361Y013601D01*
X016361Y012601D02*
X015841Y012601D01*
X015841Y011601D02*
X016361Y011601D01*
X016361Y010601D02*
X015841Y010601D01*
X015841Y009601D02*
X016361Y009601D01*
X016361Y008601D02*
X015841Y008601D01*
D14*
X029542Y017282D03*
D15*
X030101Y020022D03*
X030101Y010180D03*
M02*
