G75*
G70*
%OFA0B0*%
%FSLAX24Y24*%
%IPPOS*%
%LPD*%
%AMOC8*
5,1,8,0,0,1.08239X$1,22.5*
%
%ADD10C,0.0000*%
%ADD11C,0.0060*%
%ADD12C,0.0080*%
%ADD13C,0.0010*%
%ADD14C,0.0050*%
%ADD15C,0.0020*%
%ADD16C,0.0160*%
D10*
X000101Y000101D02*
X000101Y031597D01*
X039471Y031597D01*
X039471Y000101D01*
X000101Y000101D01*
X012451Y024601D02*
X012453Y024651D01*
X012459Y024701D01*
X012469Y024751D01*
X012482Y024799D01*
X012499Y024847D01*
X012520Y024893D01*
X012544Y024937D01*
X012572Y024979D01*
X012603Y025019D01*
X012637Y025056D01*
X012674Y025091D01*
X012713Y025122D01*
X012754Y025151D01*
X012798Y025176D01*
X012844Y025198D01*
X012891Y025216D01*
X012939Y025230D01*
X012988Y025241D01*
X013038Y025248D01*
X013088Y025251D01*
X013139Y025250D01*
X013189Y025245D01*
X013239Y025236D01*
X013287Y025224D01*
X013335Y025207D01*
X013381Y025187D01*
X013426Y025164D01*
X013469Y025137D01*
X013509Y025107D01*
X013547Y025074D01*
X013582Y025038D01*
X013615Y024999D01*
X013644Y024958D01*
X013670Y024915D01*
X013693Y024870D01*
X013712Y024823D01*
X013727Y024775D01*
X013739Y024726D01*
X013747Y024676D01*
X013751Y024626D01*
X013751Y024576D01*
X013747Y024526D01*
X013739Y024476D01*
X013727Y024427D01*
X013712Y024379D01*
X013693Y024332D01*
X013670Y024287D01*
X013644Y024244D01*
X013615Y024203D01*
X013582Y024164D01*
X013547Y024128D01*
X013509Y024095D01*
X013469Y024065D01*
X013426Y024038D01*
X013381Y024015D01*
X013335Y023995D01*
X013287Y023978D01*
X013239Y023966D01*
X013189Y023957D01*
X013139Y023952D01*
X013088Y023951D01*
X013038Y023954D01*
X012988Y023961D01*
X012939Y023972D01*
X012891Y023986D01*
X012844Y024004D01*
X012798Y024026D01*
X012754Y024051D01*
X012713Y024080D01*
X012674Y024111D01*
X012637Y024146D01*
X012603Y024183D01*
X012572Y024223D01*
X012544Y024265D01*
X012520Y024309D01*
X012499Y024355D01*
X012482Y024403D01*
X012469Y024451D01*
X012459Y024501D01*
X012453Y024551D01*
X012451Y024601D01*
X032451Y007601D02*
X032453Y007651D01*
X032459Y007701D01*
X032469Y007751D01*
X032482Y007799D01*
X032499Y007847D01*
X032520Y007893D01*
X032544Y007937D01*
X032572Y007979D01*
X032603Y008019D01*
X032637Y008056D01*
X032674Y008091D01*
X032713Y008122D01*
X032754Y008151D01*
X032798Y008176D01*
X032844Y008198D01*
X032891Y008216D01*
X032939Y008230D01*
X032988Y008241D01*
X033038Y008248D01*
X033088Y008251D01*
X033139Y008250D01*
X033189Y008245D01*
X033239Y008236D01*
X033287Y008224D01*
X033335Y008207D01*
X033381Y008187D01*
X033426Y008164D01*
X033469Y008137D01*
X033509Y008107D01*
X033547Y008074D01*
X033582Y008038D01*
X033615Y007999D01*
X033644Y007958D01*
X033670Y007915D01*
X033693Y007870D01*
X033712Y007823D01*
X033727Y007775D01*
X033739Y007726D01*
X033747Y007676D01*
X033751Y007626D01*
X033751Y007576D01*
X033747Y007526D01*
X033739Y007476D01*
X033727Y007427D01*
X033712Y007379D01*
X033693Y007332D01*
X033670Y007287D01*
X033644Y007244D01*
X033615Y007203D01*
X033582Y007164D01*
X033547Y007128D01*
X033509Y007095D01*
X033469Y007065D01*
X033426Y007038D01*
X033381Y007015D01*
X033335Y006995D01*
X033287Y006978D01*
X033239Y006966D01*
X033189Y006957D01*
X033139Y006952D01*
X033088Y006951D01*
X033038Y006954D01*
X032988Y006961D01*
X032939Y006972D01*
X032891Y006986D01*
X032844Y007004D01*
X032798Y007026D01*
X032754Y007051D01*
X032713Y007080D01*
X032674Y007111D01*
X032637Y007146D01*
X032603Y007183D01*
X032572Y007223D01*
X032544Y007265D01*
X032520Y007309D01*
X032499Y007355D01*
X032482Y007403D01*
X032469Y007451D01*
X032459Y007501D01*
X032453Y007551D01*
X032451Y007601D01*
D11*
X032214Y006403D02*
X032271Y006346D01*
X032271Y006232D01*
X032214Y006176D01*
X032101Y006176D02*
X032044Y006289D01*
X032044Y006346D01*
X032101Y006403D01*
X032214Y006403D01*
X032101Y006176D02*
X031931Y006176D01*
X031931Y006403D01*
X031271Y006346D02*
X030931Y006346D01*
X031101Y006176D01*
X031101Y006403D01*
X031039Y006776D02*
X031039Y006946D01*
X030983Y007003D01*
X030812Y007003D01*
X030812Y006776D01*
X030680Y006776D02*
X030567Y006776D01*
X030624Y006776D02*
X030624Y007116D01*
X030680Y007116D02*
X030567Y007116D01*
X030057Y007003D02*
X030057Y006719D01*
X030000Y006662D01*
X029944Y006662D01*
X029887Y006776D02*
X030057Y006776D01*
X029887Y006776D02*
X029830Y006832D01*
X029830Y006946D01*
X029887Y007003D01*
X030057Y007003D01*
X029689Y006946D02*
X029632Y007003D01*
X029519Y007003D01*
X029462Y006946D01*
X029462Y006832D01*
X029519Y006776D01*
X029632Y006776D01*
X029689Y006832D01*
X029689Y006946D01*
X029330Y006776D02*
X029216Y006776D01*
X029273Y006776D02*
X029273Y007116D01*
X029216Y007116D01*
X029075Y006946D02*
X029018Y007003D01*
X028905Y007003D01*
X028905Y006889D02*
X028848Y006832D01*
X028905Y006776D01*
X029075Y006776D01*
X029075Y006946D01*
X029075Y006889D02*
X028905Y006889D01*
X028707Y006946D02*
X028650Y007003D01*
X028480Y007003D01*
X028480Y006776D01*
X028338Y006776D02*
X028338Y007003D01*
X028225Y007116D01*
X028112Y007003D01*
X028112Y006776D01*
X028112Y006946D02*
X028338Y006946D01*
X028707Y006946D02*
X028707Y006776D01*
X028987Y006403D02*
X028931Y006346D01*
X028931Y006232D01*
X028987Y006176D01*
X028987Y006403D02*
X029044Y006403D01*
X029271Y006176D01*
X029271Y006403D01*
X029931Y006346D02*
X029931Y006232D01*
X029987Y006176D01*
X030101Y006289D02*
X030101Y006346D01*
X030157Y006403D01*
X030214Y006403D01*
X030271Y006346D01*
X030271Y006232D01*
X030214Y006176D01*
X030101Y006346D02*
X030044Y006403D01*
X029987Y006403D01*
X029931Y006346D01*
X028271Y006403D02*
X028271Y006176D01*
X028271Y006289D02*
X027931Y006289D01*
X028044Y006176D01*
X027271Y006232D02*
X027214Y006176D01*
X026987Y006403D01*
X027214Y006403D01*
X027271Y006346D01*
X027271Y006232D01*
X027214Y006176D02*
X026987Y006176D01*
X026931Y006232D01*
X026931Y006346D01*
X026987Y006403D01*
X025271Y006289D02*
X025157Y006403D01*
X024931Y006403D01*
X024931Y006544D02*
X024931Y006658D01*
X024931Y006601D02*
X025271Y006601D01*
X025271Y006544D02*
X025271Y006658D01*
X025271Y006790D02*
X024931Y006790D01*
X025271Y007016D01*
X024931Y007016D01*
X024271Y007083D02*
X024271Y006912D01*
X023931Y006912D01*
X023931Y007083D01*
X023987Y007139D01*
X024214Y007139D01*
X024271Y007083D01*
X024271Y006771D02*
X023931Y006771D01*
X023931Y006544D02*
X024271Y006771D01*
X024271Y006544D02*
X023931Y006544D01*
X023987Y006403D02*
X023931Y006346D01*
X023931Y006232D01*
X023987Y006176D01*
X024214Y006176D01*
X024271Y006232D01*
X024271Y006346D01*
X024214Y006403D01*
X024101Y006403D01*
X024101Y006289D01*
X023271Y006232D02*
X023271Y006346D01*
X023214Y006403D01*
X023101Y006403D01*
X023101Y006289D01*
X023214Y006176D02*
X023271Y006232D01*
X023214Y006176D02*
X022987Y006176D01*
X022931Y006232D01*
X022931Y006346D01*
X022987Y006403D01*
X022931Y006544D02*
X023271Y006544D01*
X023271Y006771D02*
X022931Y006771D01*
X022931Y006912D02*
X022931Y007083D01*
X022987Y007139D01*
X023214Y007139D01*
X023271Y007083D01*
X023271Y006912D01*
X022931Y006912D01*
X022931Y006544D02*
X023271Y006771D01*
X022271Y006714D02*
X022271Y006601D01*
X022214Y006544D01*
X022101Y006544D02*
X022044Y006658D01*
X022044Y006714D01*
X022101Y006771D01*
X022214Y006771D01*
X022271Y006714D01*
X022157Y006912D02*
X022271Y007026D01*
X022157Y007139D01*
X021931Y007139D01*
X021931Y006912D02*
X022157Y006912D01*
X021931Y006771D02*
X021931Y006544D01*
X022101Y006544D01*
X022101Y006403D02*
X022101Y006176D01*
X022214Y006289D02*
X021987Y006289D01*
X021214Y006289D02*
X020987Y006289D01*
X021101Y006176D02*
X021101Y006403D01*
X021214Y006544D02*
X021271Y006601D01*
X021271Y006714D01*
X021214Y006771D01*
X021157Y006771D01*
X021101Y006714D01*
X021101Y006658D01*
X021101Y006714D02*
X021044Y006771D01*
X020987Y006771D01*
X020931Y006714D01*
X020931Y006601D01*
X020987Y006544D01*
X021214Y006912D02*
X021214Y006969D01*
X021271Y006969D01*
X021271Y006912D01*
X021214Y006912D01*
X021214Y007097D02*
X021271Y007153D01*
X021271Y007267D01*
X021214Y007323D01*
X021157Y007323D01*
X021101Y007267D01*
X021101Y007210D01*
X021101Y007267D02*
X021044Y007323D01*
X020987Y007323D01*
X020931Y007267D01*
X020931Y007153D01*
X020987Y007097D01*
X020931Y007465D02*
X021157Y007465D01*
X021271Y007578D01*
X021157Y007692D01*
X020931Y007692D01*
X020271Y007026D02*
X019931Y007026D01*
X019931Y007139D02*
X019931Y006912D01*
X019987Y006771D02*
X019931Y006714D01*
X019931Y006601D01*
X019987Y006544D01*
X020044Y006544D01*
X020101Y006601D01*
X020101Y006714D01*
X020157Y006771D01*
X020214Y006771D01*
X020271Y006714D01*
X020271Y006601D01*
X020214Y006544D01*
X020271Y006403D02*
X020157Y006289D01*
X020157Y006346D02*
X020157Y006176D01*
X020271Y006176D02*
X019931Y006176D01*
X019931Y006346D01*
X019987Y006403D01*
X020101Y006403D01*
X020157Y006346D01*
X015751Y008101D02*
X015001Y008101D01*
X014999Y008140D01*
X014993Y008179D01*
X014984Y008217D01*
X014971Y008254D01*
X014954Y008290D01*
X014934Y008323D01*
X014910Y008355D01*
X014884Y008384D01*
X014855Y008410D01*
X014823Y008434D01*
X014790Y008454D01*
X014754Y008471D01*
X014717Y008484D01*
X014679Y008493D01*
X014640Y008499D01*
X014601Y008501D01*
X014562Y008499D01*
X014523Y008493D01*
X014485Y008484D01*
X014448Y008471D01*
X014412Y008454D01*
X014379Y008434D01*
X014347Y008410D01*
X014318Y008384D01*
X014292Y008355D01*
X014268Y008323D01*
X014248Y008290D01*
X014231Y008254D01*
X014218Y008217D01*
X014209Y008179D01*
X014203Y008140D01*
X014201Y008101D01*
X013451Y008101D01*
X013451Y022101D01*
X015751Y022101D01*
X015751Y008101D01*
X024931Y006176D02*
X025157Y006176D01*
X025271Y006289D01*
X020301Y018451D02*
X020301Y020751D01*
X020299Y020802D01*
X020294Y020853D01*
X020284Y020903D01*
X020271Y020953D01*
X020255Y021001D01*
X020235Y021048D01*
X020211Y021094D01*
X020185Y021137D01*
X020155Y021179D01*
X020122Y021218D01*
X020087Y021255D01*
X020049Y021289D01*
X020008Y021320D01*
X019966Y021349D01*
X019921Y021374D01*
X019875Y021395D01*
X019827Y021414D01*
X019778Y021428D01*
X019728Y021439D01*
X019678Y021447D01*
X019627Y021451D01*
X019575Y021451D01*
X019524Y021447D01*
X019474Y021439D01*
X019424Y021428D01*
X019375Y021414D01*
X019327Y021395D01*
X019281Y021374D01*
X019236Y021349D01*
X019194Y021320D01*
X019153Y021289D01*
X019115Y021255D01*
X019080Y021218D01*
X019047Y021179D01*
X019017Y021137D01*
X018991Y021094D01*
X018967Y021048D01*
X018947Y021001D01*
X018931Y020953D01*
X018918Y020903D01*
X018908Y020853D01*
X018903Y020802D01*
X018901Y020751D01*
X018901Y018451D01*
X018903Y018400D01*
X018908Y018349D01*
X018918Y018299D01*
X018931Y018249D01*
X018947Y018201D01*
X018967Y018154D01*
X018991Y018108D01*
X019017Y018065D01*
X019047Y018023D01*
X019080Y017984D01*
X019115Y017947D01*
X019153Y017913D01*
X019194Y017882D01*
X019236Y017853D01*
X019281Y017828D01*
X019327Y017807D01*
X019375Y017788D01*
X019424Y017774D01*
X019474Y017763D01*
X019524Y017755D01*
X019575Y017751D01*
X019627Y017751D01*
X019678Y017755D01*
X019728Y017763D01*
X019778Y017774D01*
X019827Y017788D01*
X019875Y017807D01*
X019921Y017828D01*
X019966Y017853D01*
X020008Y017882D01*
X020049Y017913D01*
X020087Y017947D01*
X020122Y017984D01*
X020155Y018023D01*
X020185Y018065D01*
X020211Y018108D01*
X020235Y018154D01*
X020255Y018201D01*
X020271Y018249D01*
X020284Y018299D01*
X020294Y018349D01*
X020299Y018400D01*
X020301Y018451D01*
X019601Y019101D02*
X019601Y019351D01*
X019951Y019351D01*
X019951Y019501D02*
X019251Y019501D01*
X019251Y019701D01*
X019951Y019701D01*
X019951Y019501D01*
X019951Y019851D02*
X019601Y019851D01*
X019601Y020101D01*
X019601Y019851D02*
X019251Y019851D01*
X019251Y019351D02*
X019601Y019351D01*
X016771Y022658D02*
X016544Y022658D01*
X016431Y022771D01*
X016544Y022884D01*
X016771Y022884D01*
X016771Y023026D02*
X016431Y023026D01*
X016431Y023196D01*
X016487Y023253D01*
X016601Y023253D01*
X016657Y023196D01*
X016657Y023026D01*
X016657Y023139D02*
X016771Y023253D01*
X016771Y023394D02*
X016771Y023621D01*
X016771Y023762D02*
X016431Y023762D01*
X016431Y023989D01*
X016601Y023876D02*
X016601Y023762D01*
X016431Y023621D02*
X016431Y023394D01*
X016771Y023394D01*
X016601Y023394D02*
X016601Y023508D01*
X016601Y022884D02*
X016601Y022658D01*
X017431Y023083D02*
X017487Y023026D01*
X017714Y023026D01*
X017771Y023083D01*
X017771Y023196D01*
X017714Y023253D01*
X017601Y023253D01*
X017601Y023139D01*
X017487Y023253D02*
X017431Y023196D01*
X017431Y023083D01*
X017431Y023394D02*
X017771Y023621D01*
X017431Y023621D01*
X017431Y023762D02*
X017431Y023933D01*
X017487Y023989D01*
X017714Y023989D01*
X017771Y023933D01*
X017771Y023762D01*
X017431Y023762D01*
X017431Y023394D02*
X017771Y023394D01*
X018431Y023508D02*
X018544Y023394D01*
X018431Y023508D02*
X018771Y023508D01*
X018771Y023621D02*
X018771Y023394D01*
X018714Y023762D02*
X018771Y023819D01*
X018771Y023933D01*
X018714Y023989D01*
X018657Y023989D01*
X018601Y023933D01*
X018601Y023876D01*
X018601Y023933D02*
X018544Y023989D01*
X018487Y023989D01*
X018431Y023933D01*
X018431Y023819D01*
X018487Y023762D01*
X019431Y023819D02*
X019487Y023762D01*
X019431Y023819D02*
X019431Y023933D01*
X019487Y023989D01*
X019544Y023989D01*
X019771Y023762D01*
X019771Y023989D01*
X019771Y023621D02*
X019771Y023394D01*
X019771Y023508D02*
X019431Y023508D01*
X019544Y023394D01*
X020431Y023508D02*
X020544Y023394D01*
X020431Y023508D02*
X020771Y023508D01*
X020771Y023621D02*
X020771Y023394D01*
X020771Y023762D02*
X020771Y023989D01*
X020771Y023876D02*
X020431Y023876D01*
X020544Y023762D01*
X021431Y023819D02*
X021487Y023762D01*
X021714Y023762D01*
X021487Y023989D01*
X021714Y023989D01*
X021771Y023933D01*
X021771Y023819D01*
X021714Y023762D01*
X021771Y023621D02*
X021771Y023394D01*
X021771Y023508D02*
X021431Y023508D01*
X021544Y023394D01*
X021431Y023819D02*
X021431Y023933D01*
X021487Y023989D01*
X022431Y023933D02*
X022431Y023819D01*
X022487Y023762D01*
X022544Y023762D01*
X022601Y023819D01*
X022601Y023989D01*
X022714Y023989D02*
X022487Y023989D01*
X022431Y023933D01*
X022714Y023989D02*
X022771Y023933D01*
X022771Y023819D01*
X022714Y023762D01*
X023431Y023819D02*
X023487Y023762D01*
X023544Y023762D01*
X023601Y023819D01*
X023601Y023933D01*
X023657Y023989D01*
X023714Y023989D01*
X023771Y023933D01*
X023771Y023819D01*
X023714Y023762D01*
X023657Y023762D01*
X023601Y023819D01*
X023601Y023933D02*
X023544Y023989D01*
X023487Y023989D01*
X023431Y023933D01*
X023431Y023819D01*
X024931Y023762D02*
X024931Y023989D01*
X024987Y023989D01*
X025214Y023762D01*
X025271Y023762D01*
X025931Y023989D02*
X025987Y023876D01*
X026101Y023762D01*
X026101Y023933D01*
X026157Y023989D01*
X026214Y023989D01*
X026271Y023933D01*
X026271Y023819D01*
X026214Y023762D01*
X026101Y023762D01*
X026931Y023762D02*
X027101Y023762D01*
X027044Y023876D01*
X027044Y023933D01*
X027101Y023989D01*
X027214Y023989D01*
X027271Y023933D01*
X027271Y023819D01*
X027214Y023762D01*
X026931Y023762D02*
X026931Y023989D01*
X027931Y023933D02*
X028101Y023762D01*
X028101Y023989D01*
X028271Y023933D02*
X027931Y023933D01*
X028931Y023933D02*
X028987Y023989D01*
X029044Y023989D01*
X029101Y023933D01*
X029157Y023989D01*
X029214Y023989D01*
X029271Y023933D01*
X029271Y023819D01*
X029214Y023762D01*
X029101Y023876D02*
X029101Y023933D01*
X028931Y023933D02*
X028931Y023819D01*
X028987Y023762D01*
X029931Y023819D02*
X029987Y023762D01*
X029931Y023819D02*
X029931Y023933D01*
X029987Y023989D01*
X030044Y023989D01*
X030271Y023762D01*
X030271Y023989D01*
X030931Y023989D02*
X031271Y023762D01*
X031271Y023989D02*
X030931Y023762D01*
X030931Y023621D02*
X030931Y023394D01*
X030931Y023508D02*
X031271Y023508D01*
X031931Y023564D02*
X031931Y023394D01*
X032271Y023394D01*
X032157Y023394D02*
X032157Y023564D01*
X032101Y023621D01*
X031987Y023621D01*
X031931Y023564D01*
X031931Y023762D02*
X032271Y023989D01*
X032271Y023762D02*
X031931Y023989D01*
X032271Y023621D02*
X032157Y023508D01*
D12*
X031101Y021164D02*
X028998Y021164D01*
X028998Y009038D01*
X031101Y009038D01*
X026701Y009601D02*
X026601Y009601D01*
X026601Y009301D01*
X024601Y009301D01*
X024601Y009601D01*
X024501Y009601D01*
X024601Y009601D02*
X024601Y009901D01*
X026601Y009901D01*
X026601Y009601D01*
X026601Y011301D02*
X024601Y011301D01*
X024601Y011601D01*
X024501Y011601D01*
X024601Y011601D02*
X024601Y011901D01*
X026601Y011901D01*
X026601Y011601D01*
X026701Y011601D01*
X026601Y011601D02*
X026601Y011301D01*
X026601Y012907D02*
X024601Y012907D01*
X024601Y013207D01*
X024501Y013207D01*
X024601Y013207D02*
X024601Y013507D01*
X026601Y013507D01*
X026601Y013207D01*
X026701Y013207D01*
X026601Y013207D02*
X026601Y012907D01*
X026601Y014907D02*
X024601Y014907D01*
X024601Y015207D01*
X024501Y015207D01*
X024601Y015207D02*
X024601Y015507D01*
X026601Y015507D01*
X026601Y015207D01*
X026701Y015207D01*
X026601Y015207D02*
X026601Y014907D01*
X026601Y016407D02*
X024601Y016407D01*
X024601Y016707D01*
X024501Y016707D01*
X024601Y016707D02*
X024601Y017007D01*
X026601Y017007D01*
X026601Y016707D01*
X026701Y016707D01*
X026601Y016707D02*
X026601Y016407D01*
X026601Y017907D02*
X024601Y017907D01*
X024601Y018207D01*
X024501Y018207D01*
X024601Y018207D02*
X024601Y018507D01*
X026601Y018507D01*
X026601Y018207D01*
X026701Y018207D01*
X026601Y018207D02*
X026601Y017907D01*
X026601Y019407D02*
X024601Y019407D01*
X024601Y019707D01*
X024501Y019707D01*
X024601Y019707D02*
X024601Y020007D01*
X026601Y020007D01*
X026601Y019707D01*
X026701Y019707D01*
X026601Y019707D02*
X026601Y019407D01*
X026601Y020907D02*
X026601Y021207D01*
X026701Y021207D01*
X026601Y021207D02*
X026601Y021507D01*
X024601Y021507D01*
X024601Y021207D01*
X024501Y021207D01*
X024601Y021207D02*
X024601Y020907D01*
X026601Y020907D01*
X020050Y016401D02*
X020050Y016101D01*
X020150Y016101D01*
X020050Y016101D02*
X020050Y015801D01*
X019152Y015801D01*
X019152Y016101D01*
X019052Y016101D01*
X019152Y016101D02*
X019152Y016401D01*
X020050Y016401D01*
X020050Y014401D02*
X019152Y014401D01*
X019152Y014101D01*
X019052Y014101D01*
X019152Y014101D02*
X019152Y013801D01*
X020050Y013801D01*
X020050Y014101D01*
X020150Y014101D01*
X020050Y014101D02*
X020050Y014401D01*
X020050Y012401D02*
X019152Y012401D01*
X019152Y012101D01*
X019052Y012101D01*
X019152Y012101D02*
X019152Y011801D01*
X020050Y011801D01*
X020050Y012101D01*
X020150Y012101D01*
X020050Y012101D02*
X020050Y012401D01*
X019646Y009001D02*
X019488Y009001D01*
X019425Y008451D02*
X017776Y008451D01*
X017714Y009001D02*
X017556Y009001D01*
X018488Y009001D02*
X018714Y009001D01*
X021056Y009001D02*
X021214Y009001D01*
X021276Y008451D02*
X022925Y008451D01*
X022988Y009001D02*
X023146Y009001D01*
X022214Y009001D02*
X021988Y009001D01*
D13*
X022956Y008434D02*
X022901Y008477D01*
X022937Y008526D01*
X022971Y008577D01*
X023000Y008631D01*
X023027Y008686D01*
X023051Y008742D01*
X023070Y008800D01*
X023087Y008859D01*
X023100Y008919D01*
X023109Y008979D01*
X023114Y009040D01*
X023116Y009102D01*
X023114Y009163D01*
X023109Y009224D01*
X023099Y009284D01*
X023086Y009344D01*
X023070Y009403D01*
X023050Y009461D01*
X023027Y009517D01*
X023000Y009572D01*
X022970Y009626D01*
X022937Y009677D01*
X022901Y009726D01*
X022861Y009773D01*
X022820Y009818D01*
X022775Y009860D01*
X022728Y009899D01*
X022679Y009935D01*
X022628Y009969D01*
X022574Y009999D01*
X022519Y010026D01*
X022463Y010049D01*
X022405Y010069D01*
X022425Y010136D01*
X022426Y010136D01*
X022487Y010115D01*
X022548Y010090D01*
X022607Y010061D01*
X022664Y010029D01*
X022718Y009993D01*
X022771Y009954D01*
X022821Y009912D01*
X022869Y009867D01*
X022914Y009820D01*
X022956Y009770D01*
X022994Y009717D01*
X023030Y009662D01*
X023062Y009605D01*
X023091Y009546D01*
X023116Y009486D01*
X023137Y009424D01*
X023154Y009361D01*
X023168Y009297D01*
X023178Y009232D01*
X023184Y009167D01*
X023186Y009101D01*
X023184Y009036D01*
X023178Y008971D01*
X023168Y008906D01*
X023155Y008842D01*
X023137Y008779D01*
X023116Y008717D01*
X023091Y008657D01*
X023062Y008598D01*
X023030Y008541D01*
X022995Y008486D01*
X022956Y008433D01*
X022949Y008439D01*
X022987Y008491D01*
X023023Y008546D01*
X023054Y008602D01*
X023083Y008661D01*
X023108Y008721D01*
X023129Y008782D01*
X023146Y008844D01*
X023160Y008908D01*
X023169Y008972D01*
X023175Y009037D01*
X023177Y009101D01*
X023175Y009166D01*
X023169Y009231D01*
X023159Y009295D01*
X023146Y009359D01*
X023128Y009421D01*
X023107Y009482D01*
X023082Y009542D01*
X023054Y009601D01*
X023022Y009657D01*
X022987Y009712D01*
X022949Y009764D01*
X022907Y009814D01*
X022863Y009861D01*
X022815Y009906D01*
X022766Y009947D01*
X022713Y009986D01*
X022659Y010021D01*
X022602Y010053D01*
X022544Y010081D01*
X022484Y010106D01*
X022423Y010128D01*
X022420Y010119D01*
X022481Y010098D01*
X022541Y010073D01*
X022598Y010045D01*
X022654Y010013D01*
X022708Y009978D01*
X022760Y009940D01*
X022809Y009899D01*
X022856Y009855D01*
X022900Y009808D01*
X022941Y009758D01*
X022980Y009707D01*
X023014Y009653D01*
X023046Y009596D01*
X023074Y009539D01*
X023099Y009479D01*
X023120Y009418D01*
X023137Y009356D01*
X023150Y009293D01*
X023160Y009230D01*
X023166Y009166D01*
X023168Y009102D01*
X023166Y009037D01*
X023160Y008973D01*
X023151Y008910D01*
X023137Y008847D01*
X023120Y008785D01*
X023099Y008724D01*
X023075Y008664D01*
X023046Y008606D01*
X023015Y008550D01*
X022980Y008496D01*
X022942Y008444D01*
X022935Y008450D01*
X022973Y008501D01*
X023007Y008555D01*
X023039Y008611D01*
X023066Y008668D01*
X023091Y008727D01*
X023111Y008787D01*
X023128Y008849D01*
X023142Y008911D01*
X023151Y008974D01*
X023157Y009038D01*
X023159Y009102D01*
X023157Y009165D01*
X023151Y009229D01*
X023142Y009292D01*
X023128Y009354D01*
X023111Y009416D01*
X023090Y009476D01*
X023066Y009535D01*
X023038Y009592D01*
X023007Y009648D01*
X022972Y009701D01*
X022934Y009753D01*
X022894Y009802D01*
X022850Y009848D01*
X022803Y009892D01*
X022755Y009933D01*
X022703Y009971D01*
X022650Y010006D01*
X022594Y010037D01*
X022537Y010065D01*
X022478Y010090D01*
X022418Y010110D01*
X022415Y010102D01*
X022475Y010081D01*
X022533Y010057D01*
X022590Y010029D01*
X022645Y009998D01*
X022698Y009963D01*
X022749Y009926D01*
X022798Y009885D01*
X022844Y009842D01*
X022887Y009796D01*
X022927Y009747D01*
X022965Y009696D01*
X022999Y009643D01*
X023030Y009588D01*
X023058Y009531D01*
X023082Y009473D01*
X023103Y009413D01*
X023120Y009352D01*
X023133Y009290D01*
X023142Y009228D01*
X023148Y009165D01*
X023150Y009102D01*
X023148Y009038D01*
X023142Y008975D01*
X023133Y008913D01*
X023120Y008851D01*
X023103Y008790D01*
X023082Y008730D01*
X023058Y008672D01*
X023031Y008615D01*
X023000Y008560D01*
X022965Y008507D01*
X022928Y008456D01*
X022921Y008461D01*
X022958Y008512D01*
X022992Y008564D01*
X023023Y008619D01*
X023050Y008675D01*
X023074Y008733D01*
X023094Y008793D01*
X023111Y008853D01*
X023124Y008914D01*
X023134Y008976D01*
X023139Y009039D01*
X023141Y009102D01*
X023139Y009164D01*
X023133Y009227D01*
X023124Y009289D01*
X023111Y009350D01*
X023094Y009410D01*
X023073Y009470D01*
X023050Y009528D01*
X023022Y009584D01*
X022991Y009639D01*
X022957Y009691D01*
X022920Y009742D01*
X022880Y009790D01*
X022837Y009836D01*
X022792Y009879D01*
X022743Y009919D01*
X022693Y009956D01*
X022640Y009990D01*
X022586Y010021D01*
X022530Y010049D01*
X022472Y010073D01*
X022412Y010093D01*
X022410Y010085D01*
X022468Y010064D01*
X022526Y010040D01*
X022582Y010013D01*
X022636Y009982D01*
X022688Y009949D01*
X022738Y009912D01*
X022786Y009872D01*
X022831Y009829D01*
X022873Y009784D01*
X022913Y009736D01*
X022950Y009686D01*
X022984Y009634D01*
X023014Y009580D01*
X023041Y009524D01*
X023065Y009466D01*
X023085Y009408D01*
X023102Y009348D01*
X023115Y009287D01*
X023124Y009226D01*
X023130Y009164D01*
X023132Y009102D01*
X023130Y009039D01*
X023125Y008978D01*
X023115Y008916D01*
X023102Y008855D01*
X023086Y008795D01*
X023065Y008737D01*
X023042Y008679D01*
X023015Y008623D01*
X022984Y008569D01*
X022951Y008517D01*
X022914Y008467D01*
X022907Y008472D01*
X022943Y008522D01*
X022976Y008574D01*
X023007Y008627D01*
X023034Y008683D01*
X023057Y008740D01*
X023077Y008798D01*
X023094Y008857D01*
X023106Y008918D01*
X023116Y008979D01*
X023121Y009040D01*
X023123Y009102D01*
X023121Y009163D01*
X023116Y009224D01*
X023106Y009285D01*
X023093Y009346D01*
X023077Y009405D01*
X023057Y009463D01*
X023033Y009520D01*
X023006Y009576D01*
X022976Y009629D01*
X022943Y009681D01*
X022906Y009731D01*
X022867Y009778D01*
X022824Y009823D01*
X022780Y009865D01*
X022732Y009905D01*
X022683Y009941D01*
X022631Y009975D01*
X022578Y010005D01*
X022522Y010032D01*
X022465Y010056D01*
X022407Y010076D01*
X021777Y010136D02*
X021797Y010069D01*
X021739Y010049D01*
X021683Y010026D01*
X021628Y009999D01*
X021575Y009969D01*
X021523Y009935D01*
X021474Y009899D01*
X021427Y009860D01*
X021383Y009818D01*
X021341Y009773D01*
X021301Y009726D01*
X021265Y009677D01*
X021232Y009626D01*
X021202Y009572D01*
X021175Y009517D01*
X021152Y009461D01*
X021132Y009403D01*
X021116Y009344D01*
X021103Y009284D01*
X021093Y009224D01*
X021088Y009163D01*
X021086Y009102D01*
X021088Y009040D01*
X021093Y008979D01*
X021102Y008919D01*
X021115Y008859D01*
X021132Y008800D01*
X021151Y008742D01*
X021175Y008686D01*
X021202Y008631D01*
X021231Y008577D01*
X021265Y008526D01*
X021301Y008477D01*
X021246Y008434D01*
X021246Y008433D01*
X021207Y008486D01*
X021172Y008541D01*
X021140Y008598D01*
X021111Y008657D01*
X021086Y008717D01*
X021065Y008779D01*
X021047Y008842D01*
X021034Y008906D01*
X021024Y008971D01*
X021018Y009036D01*
X021016Y009102D01*
X021018Y009167D01*
X021024Y009232D01*
X021034Y009297D01*
X021048Y009361D01*
X021065Y009424D01*
X021086Y009486D01*
X021111Y009546D01*
X021140Y009605D01*
X021172Y009662D01*
X021208Y009717D01*
X021246Y009770D01*
X021288Y009820D01*
X021333Y009867D01*
X021381Y009912D01*
X021431Y009954D01*
X021484Y009993D01*
X021538Y010029D01*
X021595Y010061D01*
X021654Y010090D01*
X021715Y010115D01*
X021776Y010136D01*
X021779Y010128D01*
X021718Y010106D01*
X021658Y010081D01*
X021600Y010053D01*
X021543Y010021D01*
X021489Y009986D01*
X021436Y009947D01*
X021387Y009906D01*
X021339Y009861D01*
X021295Y009814D01*
X021254Y009764D01*
X021215Y009712D01*
X021180Y009657D01*
X021148Y009601D01*
X021120Y009542D01*
X021095Y009482D01*
X021074Y009421D01*
X021056Y009359D01*
X021043Y009295D01*
X021033Y009231D01*
X021027Y009166D01*
X021025Y009102D01*
X021027Y009037D01*
X021033Y008972D01*
X021042Y008908D01*
X021056Y008844D01*
X021073Y008782D01*
X021094Y008721D01*
X021119Y008661D01*
X021148Y008602D01*
X021179Y008546D01*
X021214Y008491D01*
X021253Y008439D01*
X021260Y008444D01*
X021222Y008496D01*
X021187Y008550D01*
X021156Y008606D01*
X021127Y008664D01*
X021103Y008724D01*
X021082Y008785D01*
X021065Y008847D01*
X021051Y008910D01*
X021042Y008973D01*
X021036Y009037D01*
X021034Y009102D01*
X021036Y009166D01*
X021042Y009230D01*
X021052Y009293D01*
X021065Y009356D01*
X021082Y009418D01*
X021103Y009479D01*
X021128Y009539D01*
X021156Y009596D01*
X021188Y009653D01*
X021222Y009707D01*
X021261Y009758D01*
X021302Y009808D01*
X021346Y009855D01*
X021393Y009899D01*
X021442Y009940D01*
X021494Y009978D01*
X021548Y010013D01*
X021604Y010045D01*
X021661Y010073D01*
X021721Y010098D01*
X021782Y010119D01*
X021784Y010110D01*
X021724Y010090D01*
X021665Y010065D01*
X021608Y010037D01*
X021552Y010006D01*
X021499Y009971D01*
X021447Y009933D01*
X021399Y009892D01*
X021352Y009848D01*
X021308Y009802D01*
X021268Y009753D01*
X021230Y009701D01*
X021195Y009648D01*
X021164Y009592D01*
X021136Y009535D01*
X021112Y009476D01*
X021091Y009416D01*
X021074Y009354D01*
X021060Y009292D01*
X021051Y009229D01*
X021045Y009165D01*
X021043Y009102D01*
X021045Y009038D01*
X021051Y008974D01*
X021060Y008911D01*
X021073Y008849D01*
X021091Y008787D01*
X021111Y008727D01*
X021136Y008668D01*
X021163Y008611D01*
X021195Y008555D01*
X021229Y008501D01*
X021267Y008450D01*
X021274Y008456D01*
X021237Y008507D01*
X021202Y008560D01*
X021171Y008615D01*
X021144Y008672D01*
X021120Y008730D01*
X021099Y008790D01*
X021082Y008851D01*
X021069Y008913D01*
X021060Y008975D01*
X021054Y009038D01*
X021052Y009102D01*
X021054Y009165D01*
X021060Y009228D01*
X021069Y009290D01*
X021082Y009352D01*
X021099Y009413D01*
X021120Y009473D01*
X021144Y009531D01*
X021172Y009588D01*
X021203Y009643D01*
X021237Y009696D01*
X021275Y009747D01*
X021315Y009796D01*
X021358Y009842D01*
X021404Y009885D01*
X021453Y009926D01*
X021504Y009963D01*
X021557Y009998D01*
X021612Y010029D01*
X021669Y010057D01*
X021727Y010081D01*
X021787Y010102D01*
X021790Y010093D01*
X021730Y010073D01*
X021673Y010049D01*
X021616Y010021D01*
X021562Y009990D01*
X021509Y009956D01*
X021459Y009919D01*
X021410Y009879D01*
X021365Y009836D01*
X021322Y009790D01*
X021282Y009742D01*
X021245Y009691D01*
X021211Y009639D01*
X021180Y009584D01*
X021152Y009528D01*
X021129Y009470D01*
X021108Y009410D01*
X021091Y009350D01*
X021078Y009289D01*
X021069Y009227D01*
X021063Y009164D01*
X021061Y009102D01*
X021063Y009039D01*
X021068Y008976D01*
X021078Y008914D01*
X021091Y008853D01*
X021108Y008793D01*
X021128Y008733D01*
X021152Y008675D01*
X021179Y008619D01*
X021210Y008564D01*
X021244Y008512D01*
X021281Y008461D01*
X021288Y008467D01*
X021251Y008517D01*
X021218Y008569D01*
X021187Y008623D01*
X021160Y008679D01*
X021137Y008737D01*
X021116Y008795D01*
X021100Y008855D01*
X021087Y008916D01*
X021077Y008978D01*
X021072Y009039D01*
X021070Y009102D01*
X021072Y009164D01*
X021078Y009226D01*
X021087Y009287D01*
X021100Y009348D01*
X021117Y009408D01*
X021137Y009466D01*
X021161Y009524D01*
X021188Y009580D01*
X021218Y009634D01*
X021252Y009686D01*
X021289Y009736D01*
X021329Y009784D01*
X021371Y009829D01*
X021416Y009872D01*
X021464Y009912D01*
X021514Y009949D01*
X021566Y009982D01*
X021620Y010013D01*
X021676Y010040D01*
X021734Y010064D01*
X021792Y010085D01*
X021795Y010076D01*
X021737Y010056D01*
X021680Y010032D01*
X021625Y010005D01*
X021571Y009975D01*
X021519Y009941D01*
X021470Y009905D01*
X021422Y009865D01*
X021378Y009823D01*
X021335Y009778D01*
X021296Y009731D01*
X021260Y009681D01*
X021226Y009629D01*
X021196Y009576D01*
X021169Y009520D01*
X021145Y009463D01*
X021125Y009405D01*
X021109Y009346D01*
X021096Y009285D01*
X021086Y009225D01*
X021081Y009163D01*
X021079Y009102D01*
X021081Y009040D01*
X021086Y008979D01*
X021096Y008918D01*
X021108Y008857D01*
X021125Y008798D01*
X021145Y008740D01*
X021168Y008683D01*
X021195Y008627D01*
X021225Y008574D01*
X021259Y008522D01*
X021295Y008472D01*
X019456Y008434D02*
X019401Y008477D01*
X019437Y008526D01*
X019471Y008577D01*
X019500Y008631D01*
X019527Y008686D01*
X019551Y008742D01*
X019570Y008800D01*
X019587Y008859D01*
X019600Y008919D01*
X019609Y008979D01*
X019614Y009040D01*
X019616Y009102D01*
X019614Y009163D01*
X019609Y009224D01*
X019599Y009284D01*
X019586Y009344D01*
X019570Y009403D01*
X019550Y009461D01*
X019527Y009517D01*
X019500Y009572D01*
X019470Y009626D01*
X019437Y009677D01*
X019401Y009726D01*
X019361Y009773D01*
X019320Y009818D01*
X019275Y009860D01*
X019228Y009899D01*
X019179Y009935D01*
X019128Y009969D01*
X019074Y009999D01*
X019019Y010026D01*
X018963Y010049D01*
X018905Y010069D01*
X018925Y010136D01*
X018926Y010136D01*
X018987Y010115D01*
X019048Y010090D01*
X019107Y010061D01*
X019164Y010029D01*
X019218Y009993D01*
X019271Y009954D01*
X019321Y009912D01*
X019369Y009867D01*
X019414Y009820D01*
X019456Y009770D01*
X019494Y009717D01*
X019530Y009662D01*
X019562Y009605D01*
X019591Y009546D01*
X019616Y009486D01*
X019637Y009424D01*
X019654Y009361D01*
X019668Y009297D01*
X019678Y009232D01*
X019684Y009167D01*
X019686Y009101D01*
X019684Y009036D01*
X019678Y008971D01*
X019668Y008906D01*
X019655Y008842D01*
X019637Y008779D01*
X019616Y008717D01*
X019591Y008657D01*
X019562Y008598D01*
X019530Y008541D01*
X019495Y008486D01*
X019456Y008433D01*
X019449Y008439D01*
X019487Y008491D01*
X019523Y008546D01*
X019554Y008602D01*
X019583Y008661D01*
X019608Y008721D01*
X019629Y008782D01*
X019646Y008844D01*
X019660Y008908D01*
X019669Y008972D01*
X019675Y009037D01*
X019677Y009101D01*
X019675Y009166D01*
X019669Y009231D01*
X019659Y009295D01*
X019646Y009359D01*
X019628Y009421D01*
X019607Y009482D01*
X019582Y009542D01*
X019554Y009601D01*
X019522Y009657D01*
X019487Y009712D01*
X019449Y009764D01*
X019407Y009814D01*
X019363Y009861D01*
X019315Y009906D01*
X019266Y009947D01*
X019213Y009986D01*
X019159Y010021D01*
X019102Y010053D01*
X019044Y010081D01*
X018984Y010106D01*
X018923Y010128D01*
X018920Y010119D01*
X018981Y010098D01*
X019041Y010073D01*
X019098Y010045D01*
X019154Y010013D01*
X019208Y009978D01*
X019260Y009940D01*
X019309Y009899D01*
X019356Y009855D01*
X019400Y009808D01*
X019441Y009758D01*
X019480Y009707D01*
X019514Y009653D01*
X019546Y009596D01*
X019574Y009539D01*
X019599Y009479D01*
X019620Y009418D01*
X019637Y009356D01*
X019650Y009293D01*
X019660Y009230D01*
X019666Y009166D01*
X019668Y009102D01*
X019666Y009037D01*
X019660Y008973D01*
X019651Y008910D01*
X019637Y008847D01*
X019620Y008785D01*
X019599Y008724D01*
X019575Y008664D01*
X019546Y008606D01*
X019515Y008550D01*
X019480Y008496D01*
X019442Y008444D01*
X019435Y008450D01*
X019473Y008501D01*
X019507Y008555D01*
X019539Y008611D01*
X019566Y008668D01*
X019591Y008727D01*
X019611Y008787D01*
X019628Y008849D01*
X019642Y008911D01*
X019651Y008974D01*
X019657Y009038D01*
X019659Y009102D01*
X019657Y009165D01*
X019651Y009229D01*
X019642Y009292D01*
X019628Y009354D01*
X019611Y009416D01*
X019590Y009476D01*
X019566Y009535D01*
X019538Y009592D01*
X019507Y009648D01*
X019472Y009701D01*
X019434Y009753D01*
X019394Y009802D01*
X019350Y009848D01*
X019303Y009892D01*
X019255Y009933D01*
X019203Y009971D01*
X019150Y010006D01*
X019094Y010037D01*
X019037Y010065D01*
X018978Y010090D01*
X018918Y010110D01*
X018915Y010102D01*
X018975Y010081D01*
X019033Y010057D01*
X019090Y010029D01*
X019145Y009998D01*
X019198Y009963D01*
X019249Y009926D01*
X019298Y009885D01*
X019344Y009842D01*
X019387Y009796D01*
X019427Y009747D01*
X019465Y009696D01*
X019499Y009643D01*
X019530Y009588D01*
X019558Y009531D01*
X019582Y009473D01*
X019603Y009413D01*
X019620Y009352D01*
X019633Y009290D01*
X019642Y009228D01*
X019648Y009165D01*
X019650Y009102D01*
X019648Y009038D01*
X019642Y008975D01*
X019633Y008913D01*
X019620Y008851D01*
X019603Y008790D01*
X019582Y008730D01*
X019558Y008672D01*
X019531Y008615D01*
X019500Y008560D01*
X019465Y008507D01*
X019428Y008456D01*
X019421Y008461D01*
X019458Y008512D01*
X019492Y008564D01*
X019523Y008619D01*
X019550Y008675D01*
X019574Y008733D01*
X019594Y008793D01*
X019611Y008853D01*
X019624Y008914D01*
X019634Y008976D01*
X019639Y009039D01*
X019641Y009102D01*
X019639Y009164D01*
X019633Y009227D01*
X019624Y009289D01*
X019611Y009350D01*
X019594Y009410D01*
X019573Y009470D01*
X019550Y009528D01*
X019522Y009584D01*
X019491Y009639D01*
X019457Y009691D01*
X019420Y009742D01*
X019380Y009790D01*
X019337Y009836D01*
X019292Y009879D01*
X019243Y009919D01*
X019193Y009956D01*
X019140Y009990D01*
X019086Y010021D01*
X019030Y010049D01*
X018972Y010073D01*
X018912Y010093D01*
X018910Y010085D01*
X018968Y010064D01*
X019026Y010040D01*
X019082Y010013D01*
X019136Y009982D01*
X019188Y009949D01*
X019238Y009912D01*
X019286Y009872D01*
X019331Y009829D01*
X019373Y009784D01*
X019413Y009736D01*
X019450Y009686D01*
X019484Y009634D01*
X019514Y009580D01*
X019541Y009524D01*
X019565Y009466D01*
X019585Y009408D01*
X019602Y009348D01*
X019615Y009287D01*
X019624Y009226D01*
X019630Y009164D01*
X019632Y009102D01*
X019630Y009039D01*
X019625Y008978D01*
X019615Y008916D01*
X019602Y008855D01*
X019586Y008795D01*
X019565Y008737D01*
X019542Y008679D01*
X019515Y008623D01*
X019484Y008569D01*
X019451Y008517D01*
X019414Y008467D01*
X019407Y008472D01*
X019443Y008522D01*
X019476Y008574D01*
X019507Y008627D01*
X019534Y008683D01*
X019557Y008740D01*
X019577Y008798D01*
X019594Y008857D01*
X019606Y008918D01*
X019616Y008979D01*
X019621Y009040D01*
X019623Y009102D01*
X019621Y009163D01*
X019616Y009224D01*
X019606Y009285D01*
X019593Y009346D01*
X019577Y009405D01*
X019557Y009463D01*
X019533Y009520D01*
X019506Y009576D01*
X019476Y009629D01*
X019443Y009681D01*
X019406Y009731D01*
X019367Y009778D01*
X019324Y009823D01*
X019280Y009865D01*
X019232Y009905D01*
X019183Y009941D01*
X019131Y009975D01*
X019078Y010005D01*
X019022Y010032D01*
X018965Y010056D01*
X018907Y010076D01*
X018277Y010136D02*
X018297Y010069D01*
X018239Y010049D01*
X018183Y010026D01*
X018128Y009999D01*
X018075Y009969D01*
X018023Y009935D01*
X017974Y009899D01*
X017927Y009860D01*
X017883Y009818D01*
X017841Y009773D01*
X017801Y009726D01*
X017765Y009677D01*
X017732Y009626D01*
X017702Y009572D01*
X017675Y009517D01*
X017652Y009461D01*
X017632Y009403D01*
X017616Y009344D01*
X017603Y009284D01*
X017593Y009224D01*
X017588Y009163D01*
X017586Y009102D01*
X017588Y009040D01*
X017593Y008979D01*
X017602Y008919D01*
X017615Y008859D01*
X017632Y008800D01*
X017651Y008742D01*
X017675Y008686D01*
X017702Y008631D01*
X017731Y008577D01*
X017765Y008526D01*
X017801Y008477D01*
X017746Y008434D01*
X017746Y008433D01*
X017707Y008486D01*
X017672Y008541D01*
X017640Y008598D01*
X017611Y008657D01*
X017586Y008717D01*
X017565Y008779D01*
X017547Y008842D01*
X017534Y008906D01*
X017524Y008971D01*
X017518Y009036D01*
X017516Y009102D01*
X017518Y009167D01*
X017524Y009232D01*
X017534Y009297D01*
X017548Y009361D01*
X017565Y009424D01*
X017586Y009486D01*
X017611Y009546D01*
X017640Y009605D01*
X017672Y009662D01*
X017708Y009717D01*
X017746Y009770D01*
X017788Y009820D01*
X017833Y009867D01*
X017881Y009912D01*
X017931Y009954D01*
X017984Y009993D01*
X018038Y010029D01*
X018095Y010061D01*
X018154Y010090D01*
X018215Y010115D01*
X018276Y010136D01*
X018279Y010128D01*
X018218Y010106D01*
X018158Y010081D01*
X018100Y010053D01*
X018043Y010021D01*
X017989Y009986D01*
X017936Y009947D01*
X017887Y009906D01*
X017839Y009861D01*
X017795Y009814D01*
X017754Y009764D01*
X017715Y009712D01*
X017680Y009657D01*
X017648Y009601D01*
X017620Y009542D01*
X017595Y009482D01*
X017574Y009421D01*
X017556Y009359D01*
X017543Y009295D01*
X017533Y009231D01*
X017527Y009166D01*
X017525Y009102D01*
X017527Y009037D01*
X017533Y008972D01*
X017542Y008908D01*
X017556Y008844D01*
X017573Y008782D01*
X017594Y008721D01*
X017619Y008661D01*
X017648Y008602D01*
X017679Y008546D01*
X017714Y008491D01*
X017753Y008439D01*
X017760Y008444D01*
X017722Y008496D01*
X017687Y008550D01*
X017656Y008606D01*
X017627Y008664D01*
X017603Y008724D01*
X017582Y008785D01*
X017565Y008847D01*
X017551Y008910D01*
X017542Y008973D01*
X017536Y009037D01*
X017534Y009102D01*
X017536Y009166D01*
X017542Y009230D01*
X017552Y009293D01*
X017565Y009356D01*
X017582Y009418D01*
X017603Y009479D01*
X017628Y009539D01*
X017656Y009596D01*
X017688Y009653D01*
X017722Y009707D01*
X017761Y009758D01*
X017802Y009808D01*
X017846Y009855D01*
X017893Y009899D01*
X017942Y009940D01*
X017994Y009978D01*
X018048Y010013D01*
X018104Y010045D01*
X018161Y010073D01*
X018221Y010098D01*
X018282Y010119D01*
X018284Y010110D01*
X018224Y010090D01*
X018165Y010065D01*
X018108Y010037D01*
X018052Y010006D01*
X017999Y009971D01*
X017947Y009933D01*
X017899Y009892D01*
X017852Y009848D01*
X017808Y009802D01*
X017768Y009753D01*
X017730Y009701D01*
X017695Y009648D01*
X017664Y009592D01*
X017636Y009535D01*
X017612Y009476D01*
X017591Y009416D01*
X017574Y009354D01*
X017560Y009292D01*
X017551Y009229D01*
X017545Y009165D01*
X017543Y009102D01*
X017545Y009038D01*
X017551Y008974D01*
X017560Y008911D01*
X017573Y008849D01*
X017591Y008787D01*
X017611Y008727D01*
X017636Y008668D01*
X017663Y008611D01*
X017695Y008555D01*
X017729Y008501D01*
X017767Y008450D01*
X017774Y008456D01*
X017737Y008507D01*
X017702Y008560D01*
X017671Y008615D01*
X017644Y008672D01*
X017620Y008730D01*
X017599Y008790D01*
X017582Y008851D01*
X017569Y008913D01*
X017560Y008975D01*
X017554Y009038D01*
X017552Y009102D01*
X017554Y009165D01*
X017560Y009228D01*
X017569Y009290D01*
X017582Y009352D01*
X017599Y009413D01*
X017620Y009473D01*
X017644Y009531D01*
X017672Y009588D01*
X017703Y009643D01*
X017737Y009696D01*
X017775Y009747D01*
X017815Y009796D01*
X017858Y009842D01*
X017904Y009885D01*
X017953Y009926D01*
X018004Y009963D01*
X018057Y009998D01*
X018112Y010029D01*
X018169Y010057D01*
X018227Y010081D01*
X018287Y010102D01*
X018290Y010093D01*
X018230Y010073D01*
X018173Y010049D01*
X018116Y010021D01*
X018062Y009990D01*
X018009Y009956D01*
X017959Y009919D01*
X017910Y009879D01*
X017865Y009836D01*
X017822Y009790D01*
X017782Y009742D01*
X017745Y009691D01*
X017711Y009639D01*
X017680Y009584D01*
X017652Y009528D01*
X017629Y009470D01*
X017608Y009410D01*
X017591Y009350D01*
X017578Y009289D01*
X017569Y009227D01*
X017563Y009164D01*
X017561Y009102D01*
X017563Y009039D01*
X017568Y008976D01*
X017578Y008914D01*
X017591Y008853D01*
X017608Y008793D01*
X017628Y008733D01*
X017652Y008675D01*
X017679Y008619D01*
X017710Y008564D01*
X017744Y008512D01*
X017781Y008461D01*
X017788Y008467D01*
X017751Y008517D01*
X017718Y008569D01*
X017687Y008623D01*
X017660Y008679D01*
X017637Y008737D01*
X017616Y008795D01*
X017600Y008855D01*
X017587Y008916D01*
X017577Y008978D01*
X017572Y009039D01*
X017570Y009102D01*
X017572Y009164D01*
X017578Y009226D01*
X017587Y009287D01*
X017600Y009348D01*
X017617Y009408D01*
X017637Y009466D01*
X017661Y009524D01*
X017688Y009580D01*
X017718Y009634D01*
X017752Y009686D01*
X017789Y009736D01*
X017829Y009784D01*
X017871Y009829D01*
X017916Y009872D01*
X017964Y009912D01*
X018014Y009949D01*
X018066Y009982D01*
X018120Y010013D01*
X018176Y010040D01*
X018234Y010064D01*
X018292Y010085D01*
X018295Y010076D01*
X018237Y010056D01*
X018180Y010032D01*
X018125Y010005D01*
X018071Y009975D01*
X018019Y009941D01*
X017970Y009905D01*
X017922Y009865D01*
X017878Y009823D01*
X017835Y009778D01*
X017796Y009731D01*
X017760Y009681D01*
X017726Y009629D01*
X017696Y009576D01*
X017669Y009520D01*
X017645Y009463D01*
X017625Y009405D01*
X017609Y009346D01*
X017596Y009285D01*
X017586Y009225D01*
X017581Y009163D01*
X017579Y009102D01*
X017581Y009040D01*
X017586Y008979D01*
X017596Y008918D01*
X017608Y008857D01*
X017625Y008798D01*
X017645Y008740D01*
X017668Y008683D01*
X017695Y008627D01*
X017725Y008574D01*
X017759Y008522D01*
X017795Y008472D01*
X018630Y012566D02*
X018680Y012566D01*
X018704Y012591D01*
X018751Y012566D02*
X018849Y012665D01*
X018849Y012689D01*
X018825Y012714D01*
X018775Y012714D01*
X018751Y012689D01*
X018704Y012689D02*
X018680Y012714D01*
X018630Y012714D01*
X018606Y012689D01*
X018606Y012591D01*
X018630Y012566D01*
X018751Y012566D02*
X018849Y012566D01*
X018825Y014566D02*
X018775Y014566D01*
X018751Y014591D01*
X018704Y014591D02*
X018680Y014566D01*
X018630Y014566D01*
X018606Y014591D01*
X018606Y014689D01*
X018630Y014714D01*
X018680Y014714D01*
X018704Y014689D01*
X018751Y014689D02*
X018775Y014714D01*
X018825Y014714D01*
X018849Y014689D01*
X018849Y014665D01*
X018825Y014640D01*
X018849Y014616D01*
X018849Y014591D01*
X018825Y014566D01*
X018825Y014640D02*
X018800Y014640D01*
X018825Y016566D02*
X018825Y016714D01*
X018751Y016640D01*
X018849Y016640D01*
X018704Y016591D02*
X018680Y016566D01*
X018630Y016566D01*
X018606Y016591D01*
X018606Y016689D01*
X018630Y016714D01*
X018680Y016714D01*
X018704Y016689D01*
X024606Y017212D02*
X024606Y017362D01*
X024681Y017362D01*
X024706Y017337D01*
X024706Y017287D01*
X024681Y017262D01*
X024606Y017262D01*
X024656Y017262D02*
X024706Y017212D01*
X024753Y017212D02*
X024853Y017212D01*
X024803Y017212D02*
X024803Y017362D01*
X024753Y017312D01*
X024900Y017287D02*
X024975Y017287D01*
X025001Y017262D01*
X025001Y017237D01*
X024975Y017212D01*
X024925Y017212D01*
X024900Y017237D01*
X024900Y017287D01*
X024950Y017337D01*
X025001Y017362D01*
X025001Y015862D02*
X024900Y015862D01*
X024900Y015787D01*
X024950Y015812D01*
X024975Y015812D01*
X025001Y015787D01*
X025001Y015737D01*
X024975Y015712D01*
X024925Y015712D01*
X024900Y015737D01*
X024853Y015737D02*
X024828Y015712D01*
X024778Y015712D01*
X024753Y015737D01*
X024706Y015712D02*
X024656Y015762D01*
X024681Y015762D02*
X024606Y015762D01*
X024606Y015712D02*
X024606Y015862D01*
X024681Y015862D01*
X024706Y015837D01*
X024706Y015787D01*
X024681Y015762D01*
X024753Y015837D02*
X024778Y015862D01*
X024828Y015862D01*
X024853Y015837D01*
X024853Y015812D01*
X024828Y015787D01*
X024853Y015762D01*
X024853Y015737D01*
X024828Y015787D02*
X024803Y015787D01*
X024803Y013862D02*
X024803Y013712D01*
X024753Y013712D02*
X024853Y013712D01*
X024900Y013737D02*
X024900Y013762D01*
X024925Y013787D01*
X024975Y013787D01*
X025001Y013762D01*
X025001Y013737D01*
X024975Y013712D01*
X024925Y013712D01*
X024900Y013737D01*
X024925Y013787D02*
X024900Y013812D01*
X024900Y013837D01*
X024925Y013862D01*
X024975Y013862D01*
X025001Y013837D01*
X025001Y013812D01*
X024975Y013787D01*
X024803Y013862D02*
X024753Y013812D01*
X024706Y013787D02*
X024681Y013762D01*
X024606Y013762D01*
X024656Y013762D02*
X024706Y013712D01*
X024706Y013787D02*
X024706Y013837D01*
X024681Y013862D01*
X024606Y013862D01*
X024606Y013712D01*
X024606Y012256D02*
X024681Y012256D01*
X024706Y012231D01*
X024706Y012181D01*
X024681Y012156D01*
X024606Y012156D01*
X024656Y012156D02*
X024706Y012106D01*
X024753Y012106D02*
X024853Y012106D01*
X024803Y012106D02*
X024803Y012256D01*
X024753Y012206D01*
X024900Y012206D02*
X024925Y012181D01*
X025001Y012181D01*
X025001Y012231D02*
X024975Y012256D01*
X024925Y012256D01*
X024900Y012231D01*
X024900Y012206D01*
X024900Y012131D02*
X024925Y012106D01*
X024975Y012106D01*
X025001Y012131D01*
X025001Y012231D01*
X024606Y012256D02*
X024606Y012106D01*
X024606Y010256D02*
X024681Y010256D01*
X024706Y010231D01*
X024706Y010181D01*
X024681Y010156D01*
X024606Y010156D01*
X024656Y010156D02*
X024706Y010106D01*
X024753Y010106D02*
X024853Y010106D01*
X024900Y010106D02*
X024900Y010131D01*
X025001Y010231D01*
X025001Y010256D01*
X024900Y010256D01*
X024803Y010256D02*
X024803Y010106D01*
X024753Y010206D02*
X024803Y010256D01*
X024606Y010256D02*
X024606Y010106D01*
X024606Y018712D02*
X024606Y018862D01*
X024681Y018862D01*
X024706Y018837D01*
X024706Y018787D01*
X024681Y018762D01*
X024606Y018762D01*
X024656Y018762D02*
X024706Y018712D01*
X024753Y018737D02*
X024778Y018712D01*
X024828Y018712D01*
X024853Y018737D01*
X024853Y018762D01*
X024828Y018787D01*
X024803Y018787D01*
X024828Y018787D02*
X024853Y018812D01*
X024853Y018837D01*
X024828Y018862D01*
X024778Y018862D01*
X024753Y018837D01*
X024900Y018787D02*
X025001Y018787D01*
X024975Y018712D02*
X024975Y018862D01*
X024900Y018787D01*
X026164Y019052D02*
X026164Y019202D01*
X026239Y019202D01*
X026264Y019177D01*
X026264Y019127D01*
X026239Y019102D01*
X026164Y019102D01*
X026214Y019102D02*
X026264Y019052D01*
X026311Y019052D02*
X026411Y019152D01*
X026411Y019177D01*
X026386Y019202D01*
X026336Y019202D01*
X026311Y019177D01*
X026311Y019052D02*
X026411Y019052D01*
X026458Y019052D02*
X026559Y019052D01*
X026509Y019052D02*
X026509Y019202D01*
X026458Y019152D01*
X026483Y020552D02*
X026458Y020577D01*
X026559Y020677D01*
X026559Y020577D01*
X026534Y020552D01*
X026483Y020552D01*
X026458Y020577D02*
X026458Y020677D01*
X026483Y020702D01*
X026534Y020702D01*
X026559Y020677D01*
X026411Y020677D02*
X026386Y020702D01*
X026336Y020702D01*
X026311Y020677D01*
X026264Y020677D02*
X026264Y020627D01*
X026239Y020602D01*
X026164Y020602D01*
X026214Y020602D02*
X026264Y020552D01*
X026311Y020552D02*
X026411Y020652D01*
X026411Y020677D01*
X026411Y020552D02*
X026311Y020552D01*
X026264Y020677D02*
X026239Y020702D01*
X026164Y020702D01*
X026164Y020552D01*
D14*
X026131Y021112D02*
X026131Y021382D01*
X026017Y021382D02*
X026017Y021337D01*
X025836Y021157D01*
X025836Y021112D01*
X025677Y021112D02*
X025677Y021382D01*
X025542Y021247D01*
X025722Y021247D01*
X025836Y021382D02*
X026017Y021382D01*
X026176Y021247D02*
X026311Y021112D01*
X026131Y021202D02*
X026311Y021382D01*
X026311Y019882D02*
X026131Y019702D01*
X026176Y019747D02*
X026311Y019612D01*
X026131Y019612D02*
X026131Y019882D01*
X026017Y019837D02*
X025972Y019882D01*
X025881Y019882D01*
X025836Y019837D01*
X025722Y019837D02*
X025677Y019882D01*
X025587Y019882D01*
X025542Y019837D01*
X025722Y019837D02*
X025722Y019792D01*
X025542Y019612D01*
X025722Y019612D01*
X025836Y019612D02*
X026017Y019792D01*
X026017Y019837D01*
X026017Y019612D02*
X025836Y019612D01*
X025595Y018302D02*
X025415Y018122D01*
X025460Y018167D02*
X025595Y018032D01*
X025415Y018032D02*
X025415Y018302D01*
X025301Y018302D02*
X025301Y018257D01*
X025120Y018077D01*
X025120Y018032D01*
X024961Y018032D02*
X024961Y018302D01*
X024826Y018167D01*
X025006Y018167D01*
X025120Y018302D02*
X025301Y018302D01*
X025301Y016802D02*
X025120Y016622D01*
X025165Y016667D02*
X025301Y016532D01*
X025415Y016532D02*
X025595Y016712D01*
X025595Y016757D01*
X025550Y016802D01*
X025460Y016802D01*
X025415Y016757D01*
X025415Y016532D02*
X025595Y016532D01*
X025120Y016532D02*
X025120Y016802D01*
X025006Y016757D02*
X024961Y016802D01*
X024871Y016802D01*
X024826Y016757D01*
X025006Y016757D02*
X025006Y016712D01*
X024826Y016532D01*
X025006Y016532D01*
X024916Y015302D02*
X024916Y015032D01*
X024826Y015032D02*
X025006Y015032D01*
X025120Y015077D02*
X025301Y015257D01*
X025301Y015077D01*
X025256Y015032D01*
X025165Y015032D01*
X025120Y015077D01*
X025120Y015257D01*
X025165Y015302D01*
X025256Y015302D01*
X025301Y015257D01*
X025415Y015302D02*
X025415Y015032D01*
X025415Y015122D02*
X025595Y015302D01*
X025460Y015167D02*
X025595Y015032D01*
X024916Y015302D02*
X024826Y015212D01*
X024871Y013302D02*
X024826Y013257D01*
X024871Y013302D02*
X024961Y013302D01*
X025006Y013257D01*
X025006Y013212D01*
X024826Y013032D01*
X025006Y013032D01*
X025120Y013032D02*
X025120Y013302D01*
X025165Y013167D02*
X025301Y013032D01*
X025415Y013032D02*
X025595Y013212D01*
X025595Y013257D01*
X025550Y013302D01*
X025460Y013302D01*
X025415Y013257D01*
X025301Y013302D02*
X025120Y013122D01*
X025415Y013032D02*
X025595Y013032D01*
X025550Y011696D02*
X025595Y011651D01*
X025415Y011471D01*
X025460Y011426D01*
X025550Y011426D01*
X025595Y011471D01*
X025595Y011651D01*
X025550Y011696D02*
X025460Y011696D01*
X025415Y011651D01*
X025415Y011471D01*
X025301Y011426D02*
X025120Y011426D01*
X025210Y011426D02*
X025210Y011696D01*
X025120Y011606D01*
X025006Y011561D02*
X025006Y011471D01*
X024961Y011426D01*
X024871Y011426D01*
X024826Y011471D01*
X024826Y011561D02*
X024916Y011606D01*
X024961Y011606D01*
X025006Y011561D01*
X025006Y011696D02*
X024826Y011696D01*
X024826Y011561D01*
X024826Y009696D02*
X024826Y009561D01*
X024916Y009606D01*
X024961Y009606D01*
X025006Y009561D01*
X025006Y009471D01*
X024961Y009426D01*
X024871Y009426D01*
X024826Y009471D01*
X024826Y009696D02*
X025006Y009696D01*
X025120Y009606D02*
X025210Y009696D01*
X025210Y009426D01*
X025120Y009426D02*
X025301Y009426D01*
X025415Y009471D02*
X025595Y009651D01*
X025595Y009471D01*
X025550Y009426D01*
X025460Y009426D01*
X025415Y009471D01*
X025415Y009651D01*
X025460Y009696D01*
X025550Y009696D01*
X025595Y009651D01*
X015616Y007526D02*
X015315Y007526D01*
X015465Y007526D02*
X015465Y007976D01*
X015315Y007826D01*
X015155Y007901D02*
X015080Y007976D01*
X014930Y007976D01*
X014855Y007901D01*
X014855Y007826D01*
X014930Y007751D01*
X015080Y007751D01*
X015155Y007676D01*
X015155Y007601D01*
X015080Y007526D01*
X014930Y007526D01*
X014855Y007601D01*
X014695Y007601D02*
X014695Y007976D01*
X014395Y007976D02*
X014395Y007601D01*
X014470Y007526D01*
X014620Y007526D01*
X014695Y007601D01*
X015005Y007451D02*
X015005Y008051D01*
X017975Y017626D02*
X018426Y017926D01*
X018426Y018086D02*
X018426Y018386D01*
X018426Y018236D02*
X017975Y018236D01*
X018126Y018086D01*
X017975Y017926D02*
X018426Y017626D01*
D15*
X019227Y016166D02*
X019204Y016144D01*
X019227Y016166D02*
X019273Y016166D01*
X019296Y016144D01*
X019296Y016121D01*
X019204Y016029D01*
X019296Y016029D01*
X019349Y016029D02*
X019349Y016052D01*
X019441Y016144D01*
X019441Y016166D01*
X019349Y016166D01*
X019494Y016121D02*
X019563Y016121D01*
X019586Y016098D01*
X019586Y016052D01*
X019563Y016029D01*
X019494Y016029D01*
X019494Y015983D02*
X019494Y016121D01*
X019639Y016098D02*
X019685Y016098D01*
X019639Y016029D02*
X019639Y016166D01*
X019731Y016166D01*
X019731Y014166D02*
X019639Y014166D01*
X019639Y014029D01*
X019586Y014052D02*
X019563Y014029D01*
X019494Y014029D01*
X019494Y013983D02*
X019494Y014121D01*
X019563Y014121D01*
X019586Y014098D01*
X019586Y014052D01*
X019639Y014098D02*
X019685Y014098D01*
X019441Y014144D02*
X019349Y014052D01*
X019349Y014029D01*
X019296Y014029D02*
X019204Y014029D01*
X019296Y014121D01*
X019296Y014144D01*
X019273Y014166D01*
X019227Y014166D01*
X019204Y014144D01*
X019349Y014166D02*
X019441Y014166D01*
X019441Y014144D01*
X019468Y012166D02*
X019468Y012029D01*
X019422Y012029D02*
X019514Y012029D01*
X019567Y012052D02*
X019590Y012029D01*
X019659Y012029D01*
X019659Y012121D01*
X019712Y012098D02*
X019758Y012098D01*
X019712Y012166D02*
X019804Y012166D01*
X019712Y012166D02*
X019712Y012029D01*
X019567Y012052D02*
X019567Y012121D01*
X019468Y012166D02*
X019422Y012121D01*
X019372Y012052D02*
X019372Y012029D01*
X019349Y012029D01*
X019349Y012052D01*
X019372Y012052D01*
X019296Y012052D02*
X019273Y012029D01*
X019227Y012029D01*
X019204Y012052D01*
X019296Y012144D01*
X019296Y012052D01*
X019204Y012052D02*
X019204Y012144D01*
X019227Y012166D01*
X019273Y012166D01*
X019296Y012144D01*
X019884Y009501D02*
X019931Y009501D01*
X019954Y009478D01*
X019954Y009384D01*
X019931Y009361D01*
X019884Y009361D01*
X019861Y009384D01*
X019861Y009478D01*
X019884Y009501D01*
X019907Y009407D02*
X019954Y009361D01*
X020008Y009384D02*
X020031Y009361D01*
X020078Y009361D01*
X020101Y009384D01*
X020101Y009407D01*
X020078Y009431D01*
X020008Y009431D01*
X020008Y009384D01*
X020008Y009431D02*
X020055Y009478D01*
X020101Y009501D01*
X023361Y009478D02*
X023384Y009501D01*
X023431Y009501D01*
X023454Y009478D01*
X023454Y009384D01*
X023431Y009361D01*
X023384Y009361D01*
X023361Y009384D01*
X023361Y009478D01*
X023407Y009407D02*
X023454Y009361D01*
X023508Y009361D02*
X023508Y009384D01*
X023601Y009478D01*
X023601Y009501D01*
X023508Y009501D01*
X031142Y015129D02*
X031282Y015223D01*
X031282Y015276D02*
X031189Y015370D01*
X031166Y015370D01*
X031142Y015346D01*
X031142Y015300D01*
X031166Y015276D01*
X031142Y015223D02*
X031282Y015129D01*
X031282Y015276D02*
X031282Y015370D01*
D16*
X020501Y018451D02*
X020501Y020751D01*
X020499Y020810D01*
X020493Y020868D01*
X020484Y020927D01*
X020470Y020984D01*
X020453Y021040D01*
X020432Y021095D01*
X020408Y021149D01*
X020380Y021201D01*
X020349Y021251D01*
X020315Y021299D01*
X020278Y021344D01*
X020237Y021387D01*
X020194Y021428D01*
X020149Y021465D01*
X020101Y021499D01*
X020051Y021530D01*
X019999Y021558D01*
X019945Y021582D01*
X019890Y021603D01*
X019834Y021620D01*
X019777Y021634D01*
X019718Y021643D01*
X019660Y021649D01*
X019601Y021651D01*
X019542Y021649D01*
X019484Y021643D01*
X019425Y021634D01*
X019368Y021620D01*
X019312Y021603D01*
X019257Y021582D01*
X019203Y021558D01*
X019151Y021530D01*
X019101Y021499D01*
X019053Y021465D01*
X019008Y021428D01*
X018965Y021387D01*
X018924Y021344D01*
X018887Y021299D01*
X018853Y021251D01*
X018822Y021201D01*
X018794Y021149D01*
X018770Y021095D01*
X018749Y021040D01*
X018732Y020984D01*
X018718Y020927D01*
X018709Y020868D01*
X018703Y020810D01*
X018701Y020751D01*
X018701Y018451D01*
X018703Y018392D01*
X018709Y018334D01*
X018718Y018275D01*
X018732Y018218D01*
X018749Y018162D01*
X018770Y018107D01*
X018794Y018053D01*
X018822Y018001D01*
X018853Y017951D01*
X018887Y017903D01*
X018924Y017858D01*
X018965Y017815D01*
X019008Y017774D01*
X019053Y017737D01*
X019101Y017703D01*
X019151Y017672D01*
X019203Y017644D01*
X019257Y017620D01*
X019312Y017599D01*
X019368Y017582D01*
X019425Y017568D01*
X019484Y017559D01*
X019542Y017553D01*
X019601Y017551D01*
X019660Y017553D01*
X019718Y017559D01*
X019777Y017568D01*
X019834Y017582D01*
X019890Y017599D01*
X019945Y017620D01*
X019999Y017644D01*
X020051Y017672D01*
X020101Y017703D01*
X020149Y017737D01*
X020194Y017774D01*
X020237Y017815D01*
X020278Y017858D01*
X020315Y017903D01*
X020349Y017951D01*
X020380Y018001D01*
X020408Y018053D01*
X020432Y018107D01*
X020453Y018162D01*
X020470Y018218D01*
X020484Y018275D01*
X020493Y018334D01*
X020499Y018392D01*
X020501Y018451D01*
M02*
