%
M48
M72
T01C0.0320
T02C0.0354
T03C0.0400
T04C0.1300
%
T01
X5006Y7764
X6006Y7764
X7006Y7764
X8006Y7764
X9006Y7764
X10006Y7764
X11006Y7764
X12006Y7764
X13006Y7764
X14006Y7764
X15006Y7764
X16006Y7764
X17006Y7764
X18006Y7764
X18006Y10764
X17006Y10764
X16006Y10764
X15006Y10764
X14006Y10764
X13006Y10764
X12006Y10764
X11006Y10764
X10006Y10764
X9006Y10764
X8006Y10764
X7006Y10764
X6006Y10764
X5006Y10764
X10056Y13264
X11956Y13264
X12006Y22264
X12506Y23014
X13006Y22264
X9506Y22264
X9006Y23014
X8506Y22264
T02
X7006Y20264
X6506Y22264
X7006Y18264
X7006Y16264
X5491Y17264
X3522Y17264
X5022Y13264
X6991Y13264
X10006Y16264
X10006Y18264
X10006Y20264
X12006Y20264
X12006Y18264
X12006Y16264
X15006Y16264
X15006Y18264
X15006Y20264
X14506Y22264
X17506Y22264
X16991Y13264
X15022Y13264
X3506Y22264
T03
X1506Y21764
X1506Y20764
X1506Y19264
X1506Y18264
X1506Y17264
X1506Y16264
X1506Y15264
X1506Y14264
X1506Y13264
X1506Y12264
X1506Y22764
X1506Y23764
X1506Y24764
X1506Y25764
X1506Y26764
X1506Y27764
X8325Y25205
X8872Y26323
X9416Y25205
X9963Y26323
X10506Y25205
X11050Y26323
X11597Y25205
X12140Y26323
X12687Y25205
X20506Y24764
X20506Y25764
X20506Y26764
X20506Y27764
X20506Y23764
X20506Y22764
X20506Y20764
X20506Y19764
X20506Y18764
X20506Y17764
X20506Y16764
X20506Y15764
T04
X15428Y25764
X18506Y28764
X5585Y25764
X1506Y8764
M30
