G75*
G70*
%OFA0B0*%
%FSLAX24Y24*%
%IPPOS*%
%LPD*%
%AMOC8*
5,1,8,0,0,1.08239X$1,22.5*
%
%ADD10C,0.0040*%
%ADD11C,0.0740*%
%ADD12C,0.0480*%
%ADD13C,0.0480*%
%ADD14R,0.0740X0.0740*%
%ADD15C,0.2000*%
%ADD16C,0.0100*%
D10*
X007328Y012131D02*
X007328Y012591D01*
X007558Y012591D01*
X007635Y012514D01*
X007635Y012361D01*
X007558Y012284D01*
X007328Y012284D01*
X007175Y012668D02*
X006868Y012361D01*
X006868Y012284D01*
X006714Y012284D02*
X006407Y012284D01*
X006714Y012591D01*
X006714Y012668D01*
X006638Y012745D01*
X006484Y012745D01*
X006407Y012668D01*
X006868Y012745D02*
X007175Y012745D01*
X007175Y012668D01*
X007788Y012745D02*
X007788Y012284D01*
X007788Y012514D02*
X007942Y012514D01*
X007788Y012745D02*
X008095Y012745D01*
X008140Y015284D02*
X008140Y015745D01*
X007987Y015591D01*
X007833Y015514D02*
X007756Y015438D01*
X007526Y015438D01*
X007526Y015284D02*
X007526Y015745D01*
X007756Y015745D01*
X007833Y015668D01*
X007833Y015514D01*
X007680Y015438D02*
X007833Y015284D01*
X007987Y015284D02*
X008294Y015284D01*
X008447Y015361D02*
X008524Y015284D01*
X008677Y015284D01*
X008754Y015361D01*
X008754Y015438D01*
X008677Y015514D01*
X008447Y015514D01*
X008447Y015361D01*
X008447Y015514D02*
X008600Y015668D01*
X008754Y015745D01*
X009368Y015668D02*
X009444Y015745D01*
X009598Y015745D01*
X009675Y015668D01*
X009675Y015591D01*
X009368Y015284D01*
X009675Y015284D01*
X009828Y015284D02*
X009828Y015745D01*
X009905Y015514D02*
X010135Y015284D01*
X010288Y015284D02*
X010595Y015591D01*
X010595Y015668D01*
X010519Y015745D01*
X010365Y015745D01*
X010288Y015668D01*
X010135Y015745D02*
X009828Y015438D01*
X010288Y015284D02*
X010595Y015284D01*
X010595Y017284D02*
X010365Y017514D01*
X010288Y017438D02*
X010595Y017745D01*
X010288Y017745D02*
X010288Y017284D01*
X010135Y017361D02*
X010058Y017284D01*
X009905Y017284D01*
X009828Y017361D01*
X010135Y017668D01*
X010135Y017361D01*
X010135Y017668D02*
X010058Y017745D01*
X009905Y017745D01*
X009828Y017668D01*
X009828Y017361D01*
X009675Y017284D02*
X009368Y017284D01*
X009521Y017284D02*
X009521Y017745D01*
X009368Y017591D01*
X008754Y017514D02*
X008754Y017361D01*
X008677Y017284D01*
X008524Y017284D01*
X008447Y017361D01*
X008447Y017514D02*
X008600Y017591D01*
X008677Y017591D01*
X008754Y017514D01*
X008754Y017745D02*
X008447Y017745D01*
X008447Y017514D01*
X008294Y017438D02*
X008294Y017361D01*
X008217Y017284D01*
X008063Y017284D01*
X007987Y017361D01*
X007833Y017284D02*
X007680Y017438D01*
X007756Y017438D02*
X007526Y017438D01*
X007526Y017284D02*
X007526Y017745D01*
X007756Y017745D01*
X007833Y017668D01*
X007833Y017514D01*
X007756Y017438D01*
X007987Y017668D02*
X008063Y017745D01*
X008217Y017745D01*
X008294Y017668D01*
X008294Y017591D01*
X008217Y017514D01*
X008294Y017438D01*
X008217Y017514D02*
X008140Y017514D01*
X007987Y019284D02*
X008294Y019591D01*
X008294Y019668D01*
X008217Y019745D01*
X008063Y019745D01*
X007987Y019668D01*
X007833Y019668D02*
X007833Y019514D01*
X007756Y019438D01*
X007526Y019438D01*
X007526Y019284D02*
X007526Y019745D01*
X007756Y019745D01*
X007833Y019668D01*
X007680Y019438D02*
X007833Y019284D01*
X007987Y019284D02*
X008294Y019284D01*
X008447Y019361D02*
X008754Y019668D01*
X008754Y019361D01*
X008677Y019284D01*
X008524Y019284D01*
X008447Y019361D01*
X008447Y019668D01*
X008524Y019745D01*
X008677Y019745D01*
X008754Y019668D01*
X009368Y019514D02*
X009675Y019514D01*
X009828Y019361D02*
X009828Y019284D01*
X009828Y019361D02*
X010135Y019668D01*
X010135Y019745D01*
X009828Y019745D01*
X009598Y019745D02*
X009598Y019284D01*
X009368Y019514D02*
X009598Y019745D01*
X010288Y019745D02*
X010288Y019284D01*
X010288Y019438D02*
X010595Y019745D01*
X010365Y019514D02*
X010595Y019284D01*
X012103Y021284D02*
X012026Y021361D01*
X012026Y021668D01*
X012103Y021745D01*
X012256Y021745D01*
X012333Y021668D01*
X012333Y021361D01*
X012256Y021284D01*
X012103Y021284D01*
X012180Y021438D02*
X012333Y021284D01*
X012487Y021361D02*
X012563Y021284D01*
X012717Y021284D01*
X012794Y021361D01*
X012794Y021438D01*
X012717Y021514D01*
X012487Y021514D01*
X012487Y021361D01*
X012487Y021514D02*
X012640Y021668D01*
X012794Y021745D01*
X012756Y019745D02*
X012526Y019745D01*
X012526Y019284D01*
X012526Y019438D02*
X012756Y019438D01*
X012833Y019514D01*
X012833Y019668D01*
X012756Y019745D01*
X012987Y019668D02*
X013063Y019745D01*
X013217Y019745D01*
X013294Y019668D01*
X013294Y019591D01*
X013217Y019514D01*
X013294Y019438D01*
X013294Y019361D01*
X013217Y019284D01*
X013063Y019284D01*
X012987Y019361D01*
X012833Y019284D02*
X012680Y019438D01*
X013140Y019514D02*
X013217Y019514D01*
X013447Y019514D02*
X013754Y019514D01*
X013677Y019284D02*
X013677Y019745D01*
X013447Y019514D01*
X014368Y019514D02*
X014675Y019514D01*
X014828Y019361D02*
X014828Y019284D01*
X014828Y019361D02*
X015135Y019668D01*
X015135Y019745D01*
X014828Y019745D01*
X014598Y019745D02*
X014598Y019284D01*
X014368Y019514D02*
X014598Y019745D01*
X015288Y019745D02*
X015288Y019284D01*
X015288Y019438D02*
X015595Y019745D01*
X015365Y019514D02*
X015595Y019284D01*
X015595Y017745D02*
X015288Y017438D01*
X015365Y017514D02*
X015595Y017284D01*
X015288Y017284D02*
X015288Y017745D01*
X015135Y017668D02*
X015058Y017745D01*
X014905Y017745D01*
X014828Y017668D01*
X014675Y017668D02*
X014598Y017745D01*
X014444Y017745D01*
X014368Y017668D01*
X014675Y017668D02*
X014675Y017591D01*
X014368Y017284D01*
X014675Y017284D01*
X014828Y017284D02*
X015135Y017591D01*
X015135Y017668D01*
X015135Y017284D02*
X014828Y017284D01*
X013754Y017284D02*
X013447Y017284D01*
X013600Y017284D02*
X013600Y017745D01*
X013447Y017591D01*
X013294Y017591D02*
X013294Y017668D01*
X013217Y017745D01*
X013063Y017745D01*
X012987Y017668D01*
X012833Y017668D02*
X012833Y017514D01*
X012756Y017438D01*
X012526Y017438D01*
X012526Y017284D02*
X012526Y017745D01*
X012756Y017745D01*
X012833Y017668D01*
X012680Y017438D02*
X012833Y017284D01*
X012987Y017284D02*
X013294Y017591D01*
X013294Y017284D02*
X012987Y017284D01*
X013140Y015745D02*
X012987Y015591D01*
X012833Y015514D02*
X012756Y015438D01*
X012526Y015438D01*
X012526Y015284D02*
X012526Y015745D01*
X012756Y015745D01*
X012833Y015668D01*
X012833Y015514D01*
X012680Y015438D02*
X012833Y015284D01*
X012987Y015284D02*
X013294Y015284D01*
X013140Y015284D02*
X013140Y015745D01*
X013447Y015668D02*
X013447Y015591D01*
X013524Y015514D01*
X013677Y015514D01*
X013754Y015438D01*
X013754Y015361D01*
X013677Y015284D01*
X013524Y015284D01*
X013447Y015361D01*
X013447Y015438D01*
X013524Y015514D01*
X013677Y015514D02*
X013754Y015591D01*
X013754Y015668D01*
X013677Y015745D01*
X013524Y015745D01*
X013447Y015668D01*
X014368Y015668D02*
X014444Y015745D01*
X014598Y015745D01*
X014675Y015668D01*
X014675Y015591D01*
X014368Y015284D01*
X014675Y015284D01*
X014828Y015284D02*
X014828Y015745D01*
X014905Y015514D02*
X015135Y015284D01*
X015288Y015284D02*
X015595Y015591D01*
X015595Y015668D01*
X015519Y015745D01*
X015365Y015745D01*
X015288Y015668D01*
X015135Y015745D02*
X014828Y015438D01*
X015288Y015284D02*
X015595Y015284D01*
X015717Y012745D02*
X015487Y012514D01*
X015794Y012514D01*
X015717Y012284D02*
X015717Y012745D01*
X015333Y012668D02*
X015256Y012745D01*
X015103Y012745D01*
X015026Y012668D01*
X015026Y012361D01*
X015103Y012284D01*
X015256Y012284D01*
X015333Y012361D01*
X016407Y012284D02*
X016714Y012591D01*
X016714Y012668D01*
X016638Y012745D01*
X016484Y012745D01*
X016407Y012668D01*
X016407Y012284D02*
X016714Y012284D01*
X016868Y012284D02*
X016868Y012361D01*
X017175Y012668D01*
X017175Y012745D01*
X016868Y012745D01*
X017328Y012591D02*
X017328Y012131D01*
X017328Y012284D02*
X017558Y012284D01*
X017635Y012361D01*
X017635Y012514D01*
X017558Y012591D01*
X017328Y012591D01*
X017788Y012514D02*
X017942Y012514D01*
X017788Y012284D02*
X017788Y012745D01*
X018095Y012745D01*
X018680Y011245D02*
X018526Y011091D01*
X018680Y011245D02*
X018680Y010784D01*
X018833Y010784D02*
X018526Y010784D01*
X018603Y007745D02*
X018526Y007668D01*
X018603Y007745D02*
X018756Y007745D01*
X018833Y007668D01*
X018833Y007591D01*
X018526Y007284D01*
X018833Y007284D01*
X018987Y007361D02*
X018987Y007438D01*
X019063Y007514D01*
X019217Y007514D01*
X019294Y007438D01*
X019294Y007361D01*
X019217Y007284D01*
X019063Y007284D01*
X018987Y007361D01*
X019063Y007514D02*
X018987Y007591D01*
X018987Y007668D01*
X019063Y007745D01*
X019217Y007745D01*
X019294Y007668D01*
X019294Y007591D01*
X019217Y007514D01*
X012635Y009168D02*
X012328Y008861D01*
X012328Y008784D01*
X012175Y008784D02*
X011868Y008784D01*
X012175Y009091D01*
X012175Y009168D01*
X012098Y009245D01*
X011944Y009245D01*
X011868Y009168D01*
X011714Y009168D02*
X011714Y009091D01*
X011638Y009014D01*
X011714Y008938D01*
X011714Y008861D01*
X011638Y008784D01*
X011484Y008784D01*
X011407Y008861D01*
X011254Y008784D02*
X011254Y009245D01*
X011100Y009091D01*
X010947Y009245D01*
X010947Y008784D01*
X010794Y008784D02*
X010487Y008784D01*
X010487Y009245D01*
X010333Y009245D02*
X010026Y009245D01*
X010026Y008784D01*
X010333Y008784D01*
X010180Y009014D02*
X010026Y009014D01*
X011407Y009168D02*
X011484Y009245D01*
X011638Y009245D01*
X011714Y009168D01*
X011638Y009014D02*
X011561Y009014D01*
X012328Y009245D02*
X012635Y009245D01*
X012635Y009168D01*
X011294Y012284D02*
X010987Y012284D01*
X011140Y012284D02*
X011140Y012745D01*
X010987Y012591D01*
X010833Y012745D02*
X010526Y012284D01*
X010833Y012284D02*
X010526Y012745D01*
X006325Y016745D02*
X006019Y016745D01*
X006019Y016284D01*
X005865Y016284D02*
X005865Y016591D01*
X006019Y016514D02*
X006172Y016514D01*
X005865Y016284D02*
X005635Y016284D01*
X005558Y016361D01*
X005558Y016591D01*
X005405Y016284D02*
X005098Y016284D01*
X005251Y016284D02*
X005251Y016745D01*
X005098Y016591D01*
X004944Y016361D02*
X004944Y016284D01*
X004868Y016284D01*
X004868Y016361D01*
X004944Y016361D01*
X004714Y016361D02*
X004714Y016668D01*
X004407Y016361D01*
X004484Y016284D01*
X004638Y016284D01*
X004714Y016361D01*
X004407Y016361D02*
X004407Y016668D01*
X004484Y016745D01*
X004638Y016745D01*
X004714Y016668D01*
X003794Y016668D02*
X003717Y016745D01*
X003563Y016745D01*
X003487Y016668D01*
X003333Y016668D02*
X003256Y016745D01*
X003103Y016745D01*
X003026Y016668D01*
X003026Y016361D01*
X003103Y016284D01*
X003256Y016284D01*
X003333Y016361D01*
X003487Y016284D02*
X003794Y016591D01*
X003794Y016668D01*
X003794Y016284D02*
X003487Y016284D01*
X005103Y012745D02*
X005026Y012668D01*
X005026Y012361D01*
X005103Y012284D01*
X005256Y012284D01*
X005333Y012361D01*
X005487Y012361D02*
X005563Y012284D01*
X005717Y012284D01*
X005794Y012361D01*
X005794Y012438D01*
X005717Y012514D01*
X005640Y012514D01*
X005717Y012514D02*
X005794Y012591D01*
X005794Y012668D01*
X005717Y012745D01*
X005563Y012745D01*
X005487Y012668D01*
X005333Y012668D02*
X005256Y012745D01*
X005103Y012745D01*
X005177Y021284D02*
X005254Y021361D01*
X005254Y021668D01*
X005177Y021745D01*
X005024Y021745D01*
X004947Y021668D01*
X004947Y021591D01*
X005024Y021514D01*
X005254Y021514D01*
X005177Y021284D02*
X005024Y021284D01*
X004947Y021361D01*
X004794Y021284D02*
X004487Y021284D01*
X004640Y021284D02*
X004640Y021745D01*
X004487Y021591D01*
X004333Y021514D02*
X004256Y021438D01*
X004026Y021438D01*
X004026Y021284D02*
X004026Y021745D01*
X004256Y021745D01*
X004333Y021668D01*
X004333Y021514D01*
X004180Y021438D02*
X004333Y021284D01*
X005868Y021361D02*
X005944Y021284D01*
X006098Y021284D01*
X006175Y021361D01*
X006175Y021514D01*
X006098Y021591D01*
X006021Y021591D01*
X005868Y021514D01*
X005868Y021745D01*
X006175Y021745D01*
X006328Y021591D02*
X006481Y021745D01*
X006481Y021284D01*
X006328Y021284D02*
X006635Y021284D01*
X006788Y021361D02*
X006788Y021668D01*
X006865Y021745D01*
X007019Y021745D01*
X007095Y021668D01*
X006788Y021361D01*
X006865Y021284D01*
X007019Y021284D01*
X007095Y021361D01*
X007095Y021668D01*
X008526Y021668D02*
X008526Y021361D01*
X008603Y021284D01*
X008756Y021284D01*
X008833Y021361D01*
X008833Y021668D01*
X008756Y021745D01*
X008603Y021745D01*
X008526Y021668D01*
X008680Y021438D02*
X008833Y021284D01*
X008987Y021284D02*
X008987Y021361D01*
X009294Y021668D01*
X009294Y021745D01*
X008987Y021745D01*
X015526Y021745D02*
X015526Y021284D01*
X015526Y021438D02*
X015756Y021438D01*
X015833Y021514D01*
X015833Y021668D01*
X015756Y021745D01*
X015526Y021745D01*
X015680Y021438D02*
X015833Y021284D01*
X015987Y021284D02*
X016294Y021284D01*
X016447Y021284D02*
X016447Y021361D01*
X016754Y021668D01*
X016754Y021745D01*
X016447Y021745D01*
X016140Y021745D02*
X016140Y021284D01*
X015987Y021591D02*
X016140Y021745D01*
X017368Y021745D02*
X017368Y021514D01*
X017521Y021591D01*
X017598Y021591D01*
X017675Y021514D01*
X017675Y021361D01*
X017598Y021284D01*
X017444Y021284D01*
X017368Y021361D01*
X017368Y021745D02*
X017675Y021745D01*
X017828Y021591D02*
X017981Y021745D01*
X017981Y021284D01*
X017828Y021284D02*
X018135Y021284D01*
X018288Y021361D02*
X018288Y021668D01*
X018365Y021745D01*
X018519Y021745D01*
X018595Y021668D01*
X018288Y021361D01*
X018365Y021284D01*
X018519Y021284D01*
X018595Y021361D01*
X018595Y021668D01*
D11*
X017506Y022264D03*
X015006Y020264D03*
X014506Y022264D03*
X013006Y022264D03*
X012506Y023014D03*
X012006Y022264D03*
X012006Y020264D03*
X012006Y018264D03*
X012006Y016264D03*
X010006Y016264D03*
X010006Y018264D03*
X010006Y020264D03*
X009506Y022264D03*
X009006Y023014D03*
X008506Y022264D03*
X007006Y020264D03*
X006506Y022264D03*
X008872Y026323D03*
X009416Y025205D03*
X009963Y026323D03*
X010506Y025205D03*
X011050Y026323D03*
X011597Y025205D03*
X012140Y026323D03*
X012687Y025205D03*
X015006Y018264D03*
X015006Y016264D03*
X015022Y013264D03*
X016991Y013264D03*
X020506Y015764D03*
X020506Y016764D03*
X020506Y017764D03*
X020506Y018764D03*
X020506Y019764D03*
X020506Y020764D03*
X020506Y022764D03*
X020506Y023764D03*
X020506Y024764D03*
X020506Y025764D03*
X020506Y026764D03*
X020506Y027764D03*
X007006Y018264D03*
X007006Y016264D03*
X005491Y017264D03*
X003522Y017264D03*
X001506Y017264D03*
X001506Y016264D03*
X001506Y015264D03*
X001506Y014264D03*
X001506Y013264D03*
X001506Y012264D03*
X005022Y013264D03*
X006991Y013264D03*
X001506Y018264D03*
X001506Y019264D03*
X001506Y020764D03*
X001506Y021764D03*
X001506Y022764D03*
X001506Y023764D03*
X001506Y024764D03*
X001506Y025764D03*
X001506Y026764D03*
X001506Y027764D03*
X003506Y022264D03*
D12*
X010056Y013264D03*
X011956Y013264D03*
D13*
X005006Y008004D02*
X005006Y007524D01*
X006006Y007524D02*
X006006Y008004D01*
X007006Y008004D02*
X007006Y007524D01*
X008006Y007524D02*
X008006Y008004D01*
X009006Y008004D02*
X009006Y007524D01*
X010006Y007524D02*
X010006Y008004D01*
X011006Y008004D02*
X011006Y007524D01*
X012006Y007524D02*
X012006Y008004D01*
X013006Y008004D02*
X013006Y007524D01*
X014006Y007524D02*
X014006Y008004D01*
X015006Y008004D02*
X015006Y007524D01*
X016006Y007524D02*
X016006Y008004D01*
X017006Y008004D02*
X017006Y007524D01*
X018006Y007524D02*
X018006Y008004D01*
X018006Y010524D02*
X018006Y011004D01*
X017006Y011004D02*
X017006Y010524D01*
X016006Y010524D02*
X016006Y011004D01*
X015006Y011004D02*
X015006Y010524D01*
X014006Y010524D02*
X014006Y011004D01*
X013006Y011004D02*
X013006Y010524D01*
X012006Y010524D02*
X012006Y011004D01*
X011006Y011004D02*
X011006Y010524D01*
X010006Y010524D02*
X010006Y011004D01*
X009006Y011004D02*
X009006Y010524D01*
X008006Y010524D02*
X008006Y011004D01*
X007006Y011004D02*
X007006Y010524D01*
X006006Y010524D02*
X006006Y011004D01*
X005006Y011004D02*
X005006Y010524D01*
D14*
X008325Y025205D03*
D15*
X005585Y025764D03*
X015428Y025764D03*
D16*
X013506Y025764D02*
X013506Y022264D01*
X013006Y022264D01*
X013506Y022264D02*
X014506Y022264D01*
X012506Y023014D02*
X012506Y017764D01*
X011506Y017764D01*
X010006Y016264D01*
X010506Y014764D02*
X009006Y014764D01*
X009006Y023014D01*
X008506Y022264D02*
X008506Y019764D01*
X007006Y018264D01*
X006506Y017764D01*
X006506Y011264D01*
X006006Y010764D01*
X005506Y010264D02*
X005506Y011764D01*
X002006Y015264D01*
X002006Y026264D01*
X001506Y026764D01*
X001006Y027264D02*
X001506Y027764D01*
X001006Y027264D02*
X001006Y012764D01*
X002006Y012764D01*
X007006Y007764D01*
X008006Y007764D02*
X005506Y010264D01*
X006506Y011264D02*
X007006Y011764D01*
X007006Y013264D01*
X006991Y013264D01*
X007506Y015764D02*
X007006Y016264D01*
X007506Y015764D02*
X007506Y010264D01*
X008506Y009264D01*
X008506Y006764D01*
X011006Y006764D01*
X012006Y007764D01*
X011006Y007764D02*
X013506Y010264D01*
X013506Y014764D01*
X015006Y016264D01*
X017006Y015264D02*
X017006Y013264D01*
X016991Y013264D01*
X017006Y015264D02*
X020506Y018764D01*
X020506Y017764D02*
X018006Y015264D01*
X018006Y010764D01*
X017006Y009764D01*
X014006Y009764D01*
X014006Y007764D01*
X014006Y009764D02*
X014006Y010764D01*
X013006Y010764D02*
X012006Y010764D01*
X012006Y009764D01*
X010006Y007764D01*
X009006Y007764D02*
X010006Y008764D01*
X008006Y010764D01*
X010006Y010764D02*
X010006Y013264D01*
X010056Y013264D01*
X010506Y014764D02*
X012006Y016264D01*
X012006Y018264D02*
X011506Y018764D01*
X011506Y021764D01*
X012006Y022264D01*
X011506Y024264D02*
X011506Y025264D01*
X011597Y025205D01*
X011506Y025764D02*
X013506Y025764D01*
X011506Y025764D02*
X011006Y026264D01*
X011050Y026323D01*
X011506Y024264D02*
X009506Y022264D01*
X008506Y022264D02*
X008506Y024264D01*
X009506Y025264D01*
X009416Y025205D01*
X006506Y022264D02*
X007006Y021764D01*
X007006Y020264D01*
X011006Y010764D02*
X011006Y009764D01*
X010006Y008764D01*
M02*
