%
M48
M72
T01C0.0320
T02C0.0354
T03C0.0400
T04C0.1300
%
T01
X5156Y8568
X7056Y8568
X6706Y11868
X5706Y11868
X4706Y11868
X4706Y14868
X5706Y14868
X6706Y14868
X7706Y14868
X8706Y14868
X9706Y14868
X10706Y14868
X11706Y14868
X12706Y14868
X13706Y14868
X14706Y14868
X15706Y14868
X16706Y14868
X17706Y14868
X17706Y11868
X16706Y11868
X15706Y11868
X14706Y11868
X13706Y11868
X12706Y11868
X11706Y11868
X10706Y11868
X9706Y11868
X8706Y11868
X7706Y11868
X6006Y16568
X5506Y17318
X5006Y16568
X13356Y20968
X14106Y20468
X14106Y21468
X16106Y21468
X16856Y20968
X16106Y20468
T02
X16606Y18768
X18106Y18784
X18106Y20752
X16606Y23468
X13606Y23468
X11906Y23468
X11906Y20968
X11906Y18768
X11806Y16568
X13606Y16568
X13606Y18768
X16606Y16568
X17506Y9368
X17506Y7668
X14506Y7668
X14506Y9368
X11790Y9368
X11790Y7668
X9822Y7668
X9822Y9368
X8806Y16568
X8906Y18768
X8906Y20968
X8906Y23468
X7106Y23468
X7106Y20968
X7106Y18768
X4106Y18768
X4106Y20968
X4106Y23468
T03
X1506Y23768
X1506Y22768
X1506Y21768
X1506Y20768
X1506Y19268
X1506Y18268
X1506Y17268
X1506Y16268
X1506Y15268
X1506Y14268
X1506Y13268
X1506Y12268
X1506Y24768
X1506Y25768
X1506Y26768
X1506Y27768
X8825Y25709
X9372Y26827
X9915Y25709
X10463Y26827
X11006Y25709
X11549Y26827
X12096Y25709
X12640Y26827
X13187Y25709
X20506Y25768
X20506Y24768
X20506Y23768
X20506Y22768
X20506Y20768
X20506Y19768
X20506Y18768
X20506Y17768
X20506Y16768
X20506Y15768
X20506Y26768
X20506Y27768
T04
X1506Y8768
X6085Y26268
X15927Y26268
X18506Y28768
M30
