G75*
G70*
%OFA0B0*%
%FSLAX24Y24*%
%IPPOS*%
%LPD*%
%AMOC8*
5,1,8,0,0,1.08239X$1,22.5*
%
%ADD10C,0.0740*%
%ADD11C,0.0520*%
%ADD12C,0.0520*%
%ADD13R,0.0740X0.0740*%
%ADD14C,0.2000*%
%ADD15C,0.0100*%
D10*
X001506Y012268D03*
X001506Y013268D03*
X001506Y014268D03*
X001506Y015268D03*
X001506Y016268D03*
X001506Y017268D03*
X001506Y018268D03*
X001506Y019268D03*
X001506Y020768D03*
X001506Y021768D03*
X001506Y022768D03*
X001506Y023768D03*
X001506Y024768D03*
X001506Y025768D03*
X001506Y026768D03*
X001506Y027768D03*
X004106Y023468D03*
X004106Y020968D03*
X004106Y018768D03*
X005506Y017318D03*
X006006Y016568D03*
X005006Y016568D03*
X007106Y018768D03*
X007106Y020968D03*
X007106Y023468D03*
X008906Y023468D03*
X009915Y025709D03*
X009372Y026827D03*
X010463Y026827D03*
X011006Y025709D03*
X011549Y026827D03*
X012096Y025709D03*
X012640Y026827D03*
X013187Y025709D03*
X013606Y023468D03*
X014106Y021468D03*
X014106Y020468D03*
X013356Y020968D03*
X011906Y020968D03*
X011906Y018768D03*
X011806Y016568D03*
X013606Y016568D03*
X013606Y018768D03*
X016106Y020468D03*
X016856Y020968D03*
X016106Y021468D03*
X016606Y023468D03*
X018106Y020752D03*
X018106Y018784D03*
X016606Y018768D03*
X016606Y016568D03*
X020506Y016768D03*
X020506Y015768D03*
X020506Y017768D03*
X020506Y018768D03*
X020506Y019768D03*
X020506Y020768D03*
X020506Y022768D03*
X020506Y023768D03*
X020506Y024768D03*
X020506Y025768D03*
X020506Y026768D03*
X020506Y027768D03*
X011906Y023468D03*
X008906Y020968D03*
X008906Y018768D03*
X008806Y016568D03*
X009822Y009368D03*
X009822Y007668D03*
X011790Y007668D03*
X011790Y009368D03*
X014506Y009368D03*
X014506Y007668D03*
X017506Y007668D03*
X017506Y009368D03*
D11*
X005156Y008568D03*
X007056Y008568D03*
D12*
X006706Y011608D02*
X006706Y012128D01*
X005706Y012128D02*
X005706Y011608D01*
X004706Y011608D02*
X004706Y012128D01*
X004706Y014608D02*
X004706Y015128D01*
X005706Y015128D02*
X005706Y014608D01*
X006706Y014608D02*
X006706Y015128D01*
X007706Y015128D02*
X007706Y014608D01*
X008706Y014608D02*
X008706Y015128D01*
X009706Y015128D02*
X009706Y014608D01*
X010706Y014608D02*
X010706Y015128D01*
X011706Y015128D02*
X011706Y014608D01*
X012706Y014608D02*
X012706Y015128D01*
X013706Y015128D02*
X013706Y014608D01*
X014706Y014608D02*
X014706Y015128D01*
X015706Y015128D02*
X015706Y014608D01*
X016706Y014608D02*
X016706Y015128D01*
X017706Y015128D02*
X017706Y014608D01*
X017706Y012128D02*
X017706Y011608D01*
X016706Y011608D02*
X016706Y012128D01*
X015706Y012128D02*
X015706Y011608D01*
X014706Y011608D02*
X014706Y012128D01*
X013706Y012128D02*
X013706Y011608D01*
X012706Y011608D02*
X012706Y012128D01*
X011706Y012128D02*
X011706Y011608D01*
X010706Y011608D02*
X010706Y012128D01*
X009706Y012128D02*
X009706Y011608D01*
X008706Y011608D02*
X008706Y012128D01*
X007706Y012128D02*
X007706Y011608D01*
D13*
X008825Y025709D03*
D14*
X006085Y026268D03*
X015927Y026268D03*
D15*
X016006Y024268D02*
X015506Y024268D01*
X013006Y026768D01*
X012640Y026827D01*
X012506Y024268D02*
X015506Y024268D01*
X016006Y024268D02*
X016506Y023768D01*
X016606Y023468D01*
X016106Y021768D02*
X016106Y021468D01*
X016106Y021768D02*
X017356Y021768D01*
X017506Y021568D01*
X018106Y020752D01*
X018506Y020268D01*
X020006Y018768D01*
X020506Y018768D01*
X020506Y017768D02*
X021106Y017268D01*
X021106Y014768D01*
X017506Y014768D01*
X017706Y014868D01*
X017506Y014768D02*
X017006Y014268D01*
X016806Y014168D01*
X013106Y014168D01*
X012506Y014768D01*
X012706Y014868D01*
X012506Y015768D02*
X006506Y015768D01*
X006006Y016268D01*
X006006Y016568D01*
X005506Y017268D02*
X005506Y017318D01*
X005506Y017268D02*
X013006Y017268D01*
X013506Y016768D01*
X013606Y016568D01*
X014506Y015768D02*
X012506Y015768D01*
X012006Y016268D01*
X011806Y016568D01*
X010706Y018068D02*
X015506Y018068D01*
X015506Y014768D01*
X015706Y014868D01*
X015506Y013768D02*
X004006Y013768D01*
X004006Y018068D01*
X006306Y018068D01*
X007006Y018768D01*
X007106Y018768D01*
X007006Y020768D02*
X007106Y020968D01*
X007006Y020768D02*
X008006Y020768D01*
X010706Y018068D01*
X011906Y018768D02*
X012006Y018768D01*
X013006Y019768D01*
X015506Y019768D01*
X016006Y020268D01*
X016106Y020468D01*
X016006Y020768D01*
X013506Y023268D01*
X013606Y023468D01*
X012506Y024268D02*
X012006Y023768D01*
X011906Y023468D01*
X012506Y021268D02*
X012506Y020268D01*
X014006Y020268D01*
X014106Y020468D01*
X012506Y021268D02*
X009006Y024768D01*
X010006Y025768D01*
X009915Y025709D01*
X009006Y024768D02*
X008006Y023768D01*
X007006Y023768D01*
X007106Y023468D01*
X004506Y012768D02*
X004006Y012268D01*
X004006Y009268D01*
X005006Y009268D01*
X005006Y008768D01*
X005156Y008568D01*
X005006Y009268D02*
X009506Y009268D01*
X009822Y009368D01*
X009506Y007768D02*
X009822Y007668D01*
X009506Y007768D02*
X008006Y007768D01*
X007006Y008768D01*
X007056Y008568D01*
X007006Y010268D02*
X013506Y010268D01*
X014506Y009268D01*
X014506Y009368D01*
X014506Y009268D02*
X016006Y009268D01*
X017506Y007768D01*
X017506Y007668D01*
X016206Y011068D02*
X015206Y011068D01*
X014506Y011768D01*
X014706Y011868D01*
X015506Y011768D02*
X015706Y011868D01*
X015506Y011768D02*
X015506Y013768D01*
X014706Y014868D02*
X014506Y014768D01*
X014506Y015768D01*
X013506Y012768D02*
X004506Y012768D01*
X005506Y011768D02*
X005706Y011868D01*
X005506Y011768D02*
X007006Y010268D01*
X011790Y007668D02*
X012006Y007768D01*
X014506Y007768D01*
X014506Y007668D01*
X016206Y011068D02*
X016506Y011768D01*
X016706Y011868D01*
X013706Y011868D02*
X013506Y011768D01*
X013506Y012768D01*
X016606Y016568D02*
X016506Y016768D01*
X020506Y016768D01*
M02*
