G75*
G70*
%OFA0B0*%
%FSLAX24Y24*%
%IPPOS*%
%LPD*%
%AMOC8*
5,1,8,0,0,1.08239X$1,22.5*
%
%ADD10C,0.0740*%
%ADD11C,0.0520*%
%ADD12C,0.0520*%
%ADD13R,0.0740X0.0740*%
%ADD14C,0.2000*%
%ADD15C,0.0100*%
%ADD16C,0.0160*%
D10*
X018101Y009101D03*
X018601Y009851D03*
X019101Y009101D03*
X021601Y009101D03*
X022101Y009851D03*
X022601Y009101D03*
X024101Y009601D03*
X024101Y011601D03*
X024101Y013207D03*
X024101Y015207D03*
X024101Y016707D03*
X024101Y018207D03*
X024101Y019707D03*
X024101Y021207D03*
X027101Y021207D03*
X027101Y019707D03*
X027101Y018207D03*
X027101Y016707D03*
X027101Y015207D03*
X027101Y013207D03*
X027101Y011601D03*
X027101Y009601D03*
X029542Y012920D03*
X030660Y013467D03*
X030660Y014557D03*
X029542Y015101D03*
X029542Y014010D03*
X030660Y015644D03*
X030660Y016735D03*
X029542Y016191D03*
X020585Y016101D03*
X018617Y016101D03*
X018617Y014101D03*
X020585Y014101D03*
X020585Y012101D03*
X018617Y012101D03*
X020101Y005601D03*
X021101Y005601D03*
X022101Y005601D03*
X023101Y005601D03*
X024101Y005601D03*
X025101Y005601D03*
X027101Y005601D03*
X028101Y005601D03*
X029101Y005601D03*
X030101Y005601D03*
X031101Y005601D03*
X032101Y005601D03*
X032101Y024601D03*
X031101Y024601D03*
X030101Y024601D03*
X029101Y024601D03*
X028101Y024601D03*
X027101Y024601D03*
X026101Y024601D03*
X025101Y024601D03*
X023601Y024601D03*
X022601Y024601D03*
X021601Y024601D03*
X020601Y024601D03*
X019601Y024601D03*
X018601Y024601D03*
X017601Y024601D03*
X016601Y024601D03*
D11*
X019601Y020551D03*
X019601Y018651D03*
D12*
X013361Y008601D02*
X012841Y008601D01*
X012841Y009601D02*
X013361Y009601D01*
X013361Y010601D02*
X012841Y010601D01*
X012841Y011601D02*
X013361Y011601D01*
X013361Y012601D02*
X012841Y012601D01*
X012841Y013601D02*
X013361Y013601D01*
X013361Y014601D02*
X012841Y014601D01*
X012841Y015601D02*
X013361Y015601D01*
X013361Y016601D02*
X012841Y016601D01*
X012841Y017601D02*
X013361Y017601D01*
X013361Y018601D02*
X012841Y018601D01*
X012841Y019601D02*
X013361Y019601D01*
X013361Y020601D02*
X012841Y020601D01*
X012841Y021601D02*
X013361Y021601D01*
X015841Y021601D02*
X016361Y021601D01*
X016361Y020601D02*
X015841Y020601D01*
X015841Y019601D02*
X016361Y019601D01*
X016361Y018601D02*
X015841Y018601D01*
X015841Y017601D02*
X016361Y017601D01*
X016361Y016601D02*
X015841Y016601D01*
X015841Y015601D02*
X016361Y015601D01*
X016361Y014601D02*
X015841Y014601D01*
X015841Y013601D02*
X016361Y013601D01*
X016361Y012601D02*
X015841Y012601D01*
X015841Y011601D02*
X016361Y011601D01*
X016361Y010601D02*
X015841Y010601D01*
X015841Y009601D02*
X016361Y009601D01*
X016361Y008601D02*
X015841Y008601D01*
D13*
X029542Y017282D03*
D14*
X030101Y020022D03*
X030101Y010180D03*
D15*
X027101Y011601D02*
X026601Y012101D01*
X026601Y018101D01*
X027101Y018207D01*
X027601Y017601D02*
X027101Y016707D01*
X027101Y016101D02*
X027101Y015207D01*
X027101Y016101D02*
X029601Y016101D01*
X029542Y016191D01*
X027601Y017601D02*
X027601Y019101D01*
X026601Y019101D01*
X026101Y018601D01*
X026101Y016101D01*
X024101Y015207D02*
X023601Y015601D01*
X023601Y018101D01*
X024101Y018207D01*
X023601Y015601D02*
X020601Y015601D01*
X020601Y015101D01*
X020585Y014101D01*
X020601Y013601D02*
X020585Y012101D01*
X018617Y012101D01*
X018601Y013601D01*
X018101Y013601D02*
X018101Y009101D01*
X018101Y008601D01*
X021601Y008601D01*
X021601Y007101D01*
X023101Y005601D01*
X021601Y008601D02*
X021601Y009101D01*
X022601Y009101D02*
X024101Y010601D01*
X024101Y011601D01*
X020601Y013601D02*
X020601Y015101D01*
X020601Y015601D02*
X020601Y016601D01*
X020585Y016101D01*
X019601Y016101D02*
X019601Y018651D01*
X018601Y019601D02*
X018601Y016601D01*
X018617Y016101D01*
X019601Y016101D02*
X018601Y015101D01*
X018617Y014101D01*
X018101Y013601D02*
X016101Y015601D01*
X014101Y015601D02*
X014101Y020601D01*
X013101Y021601D01*
X018601Y019601D02*
X019601Y020601D01*
X019601Y020551D01*
X014101Y015601D02*
X013101Y016601D01*
X014101Y015601D02*
X016101Y013601D01*
X018601Y011101D02*
X018601Y009851D01*
D16*
X018601Y011101D02*
X021601Y011101D01*
X021601Y014101D01*
X026101Y014101D01*
X026101Y016101D01*
M02*
