G75*
G70*
%OFA0B0*%
%FSLAX24Y24*%
%IPPOS*%
%LPD*%
%AMOC8*
5,1,8,0,0,1.08239X$1,22.5*
%
%ADD10C,0.0060*%
%ADD11C,0.0740*%
%ADD12C,0.0520*%
%ADD13C,0.0520*%
%ADD14R,0.0740X0.0740*%
%ADD15C,0.2000*%
%ADD16C,0.0100*%
%ADD17C,0.0160*%
D10*
X010124Y007238D02*
X010124Y007451D01*
X010231Y007558D01*
X010445Y007558D01*
X010551Y007451D01*
X010551Y007238D01*
X010445Y007131D01*
X010231Y007131D01*
X010124Y007238D01*
X010769Y007131D02*
X010769Y007451D01*
X010876Y007558D01*
X011196Y007558D01*
X011196Y007131D01*
X011412Y007131D02*
X011626Y007131D01*
X011519Y007131D02*
X011519Y007558D01*
X011626Y007558D01*
X011843Y007558D02*
X011843Y007131D01*
X012163Y007131D01*
X012270Y007238D01*
X012270Y007558D01*
X012488Y007558D02*
X012808Y007558D01*
X012915Y007451D01*
X012915Y007238D01*
X012808Y007131D01*
X012488Y007131D01*
X012488Y007771D01*
X013131Y007558D02*
X013344Y007771D01*
X013131Y007558D02*
X013131Y007344D01*
X013344Y007131D01*
X013560Y007131D02*
X013667Y007238D01*
X013667Y007665D01*
X013774Y007558D02*
X013560Y007558D01*
X013991Y007451D02*
X013991Y007344D01*
X014418Y007344D01*
X014418Y007238D02*
X014418Y007451D01*
X014312Y007558D01*
X014098Y007558D01*
X013991Y007451D01*
X014098Y007131D02*
X014312Y007131D01*
X014418Y007238D01*
X014636Y007131D02*
X014636Y007451D01*
X014743Y007558D01*
X015063Y007558D01*
X015063Y007131D01*
X015279Y007131D02*
X015493Y007344D01*
X015493Y007558D01*
X015279Y007771D01*
X016355Y007665D02*
X016355Y007238D01*
X016461Y007131D01*
X016782Y007131D01*
X016782Y007771D01*
X016461Y007771D01*
X016355Y007665D01*
X016999Y007665D02*
X016999Y007558D01*
X017106Y007451D01*
X017426Y007451D01*
X017644Y007238D02*
X017644Y007665D01*
X017751Y007771D01*
X017964Y007771D01*
X018071Y007665D01*
X018071Y007238D01*
X017964Y007131D01*
X017751Y007131D01*
X017644Y007238D01*
X017426Y007131D02*
X017106Y007131D01*
X016999Y007238D01*
X016999Y007344D01*
X017106Y007451D01*
X016999Y007665D02*
X017106Y007771D01*
X017426Y007771D01*
X017426Y007131D01*
X017320Y006771D02*
X017106Y006771D01*
X016999Y006665D01*
X017426Y006238D01*
X017320Y006131D01*
X017106Y006131D01*
X016999Y006238D01*
X016999Y006665D01*
X017320Y006771D02*
X017426Y006665D01*
X017426Y006238D01*
X017320Y005878D02*
X017320Y005771D01*
X017320Y005558D02*
X017320Y005131D01*
X017426Y005131D02*
X017213Y005131D01*
X016997Y005131D02*
X016997Y005558D01*
X016890Y005558D01*
X016783Y005451D01*
X016676Y005558D01*
X016570Y005451D01*
X016570Y005131D01*
X016783Y005131D02*
X016783Y005451D01*
X016352Y005451D02*
X016352Y005238D01*
X016245Y005131D01*
X016032Y005131D01*
X015925Y005238D01*
X015925Y005451D01*
X016032Y005558D01*
X016245Y005558D01*
X016352Y005451D01*
X015708Y005558D02*
X015708Y005131D01*
X015708Y005558D02*
X015387Y005558D01*
X015281Y005451D01*
X015281Y005131D01*
X014418Y005238D02*
X014312Y005131D01*
X014098Y005131D01*
X013991Y005238D01*
X013991Y005451D01*
X014205Y005451D01*
X014418Y005665D02*
X014418Y005238D01*
X014418Y005665D02*
X014312Y005771D01*
X014098Y005771D01*
X013991Y005665D01*
X013774Y005451D02*
X013774Y005238D01*
X013667Y005131D01*
X013454Y005131D01*
X013347Y005344D02*
X013774Y005344D01*
X013774Y005451D02*
X013667Y005558D01*
X013454Y005558D01*
X013347Y005451D01*
X013347Y005344D01*
X013129Y005238D02*
X013023Y005131D01*
X012809Y005131D01*
X012702Y005238D01*
X012702Y005451D01*
X012809Y005558D01*
X013023Y005558D01*
X013129Y005451D01*
X013129Y005238D01*
X012485Y005344D02*
X012271Y005558D01*
X012165Y005558D01*
X011948Y005451D02*
X011948Y005238D01*
X011841Y005131D01*
X011521Y005131D01*
X011521Y005024D02*
X011521Y005558D01*
X011841Y005558D01*
X011948Y005451D01*
X012485Y005558D02*
X012485Y005131D01*
X011734Y004917D02*
X011628Y004917D01*
X011521Y005024D01*
X011303Y005238D02*
X011303Y005451D01*
X011197Y005558D01*
X010983Y005558D01*
X010876Y005451D01*
X010876Y005344D01*
X011303Y005344D01*
X011303Y005238D02*
X011197Y005131D01*
X010983Y005131D01*
X011519Y007771D02*
X011519Y007878D01*
X016032Y006131D02*
X016459Y006131D01*
X016246Y006131D02*
X016246Y006771D01*
X016459Y006558D01*
X016675Y006238D02*
X016675Y006131D01*
X016782Y006131D01*
X016782Y006238D01*
X016675Y006238D01*
X017320Y005558D02*
X017426Y005558D01*
X017644Y005665D02*
X017751Y005771D01*
X017964Y005771D01*
X018071Y005665D01*
X018071Y005558D01*
X017964Y005451D01*
X017751Y005451D01*
X017644Y005344D01*
X017644Y005238D01*
X017751Y005131D01*
X017964Y005131D01*
X018071Y005238D01*
X017857Y006131D02*
X017644Y006558D01*
X018071Y006558D02*
X017857Y006131D01*
D11*
X020101Y005601D03*
X021101Y005601D03*
X022101Y005601D03*
X023101Y005601D03*
X024101Y005601D03*
X025101Y005601D03*
X027101Y005601D03*
X028101Y005601D03*
X029101Y005601D03*
X030101Y005601D03*
X031101Y005601D03*
X032101Y005601D03*
X027101Y009601D03*
X027101Y011601D03*
X027101Y013207D03*
X027101Y015207D03*
X027101Y016707D03*
X027101Y018207D03*
X027101Y019707D03*
X027101Y021207D03*
X024101Y021207D03*
X024101Y019707D03*
X024101Y018207D03*
X024101Y016707D03*
X024101Y015207D03*
X024101Y013207D03*
X024101Y011601D03*
X022101Y009851D03*
X022601Y009101D03*
X021601Y009101D03*
X019101Y009101D03*
X018601Y009851D03*
X018101Y009101D03*
X018617Y012101D03*
X020585Y012101D03*
X020585Y014101D03*
X018617Y014101D03*
X018617Y016101D03*
X020585Y016101D03*
X024101Y009601D03*
X029542Y012920D03*
X030660Y013467D03*
X030660Y014557D03*
X029542Y015101D03*
X029542Y014010D03*
X030660Y015644D03*
X030660Y016735D03*
X029542Y016191D03*
X029101Y024601D03*
X030101Y024601D03*
X031101Y024601D03*
X032101Y024601D03*
X028101Y024601D03*
X027101Y024601D03*
X026101Y024601D03*
X025101Y024601D03*
X023601Y024601D03*
X022601Y024601D03*
X021601Y024601D03*
X020601Y024601D03*
X019601Y024601D03*
X018601Y024601D03*
X017601Y024601D03*
X016601Y024601D03*
D12*
X019601Y020551D03*
X019601Y018651D03*
D13*
X016361Y018601D02*
X015841Y018601D01*
X015841Y019601D02*
X016361Y019601D01*
X016361Y020601D02*
X015841Y020601D01*
X015841Y021601D02*
X016361Y021601D01*
X013361Y021601D02*
X012841Y021601D01*
X012841Y020601D02*
X013361Y020601D01*
X013361Y019601D02*
X012841Y019601D01*
X012841Y018601D02*
X013361Y018601D01*
X013361Y017601D02*
X012841Y017601D01*
X012841Y016601D02*
X013361Y016601D01*
X013361Y015601D02*
X012841Y015601D01*
X012841Y014601D02*
X013361Y014601D01*
X013361Y013601D02*
X012841Y013601D01*
X012841Y012601D02*
X013361Y012601D01*
X013361Y011601D02*
X012841Y011601D01*
X012841Y010601D02*
X013361Y010601D01*
X013361Y009601D02*
X012841Y009601D01*
X012841Y008601D02*
X013361Y008601D01*
X015841Y008601D02*
X016361Y008601D01*
X016361Y009601D02*
X015841Y009601D01*
X015841Y010601D02*
X016361Y010601D01*
X016361Y011601D02*
X015841Y011601D01*
X015841Y012601D02*
X016361Y012601D01*
X016361Y013601D02*
X015841Y013601D01*
X015841Y014601D02*
X016361Y014601D01*
X016361Y015601D02*
X015841Y015601D01*
X015841Y016601D02*
X016361Y016601D01*
X016361Y017601D02*
X015841Y017601D01*
D14*
X029542Y017282D03*
D15*
X030101Y020022D03*
X030101Y010180D03*
D16*
X029101Y011601D02*
X027101Y011601D01*
X027601Y012313D02*
X028601Y014101D01*
X027101Y013207D02*
X026601Y013207D01*
X025101Y012601D01*
X022101Y012601D01*
X022101Y009851D01*
X023101Y008601D02*
X031601Y008601D01*
X031601Y013601D01*
X030601Y014601D01*
X030660Y014557D01*
X030660Y013467D02*
X030601Y013101D01*
X029101Y011601D01*
X027601Y012313D02*
X024420Y012313D01*
X024101Y011601D01*
X024101Y009601D02*
X023101Y008601D01*
X019601Y008601D01*
X019101Y009101D01*
X019101Y008601D02*
X016101Y008601D01*
X015101Y009601D01*
X015101Y012601D01*
X013101Y014601D02*
X012101Y015601D01*
X012101Y018101D01*
X023101Y018101D01*
X024101Y016707D01*
X024101Y015207D02*
X027101Y015207D01*
X024101Y018207D02*
X024601Y019101D01*
X016601Y019101D01*
X016101Y018601D01*
X015101Y019601D01*
X015101Y020601D01*
X016101Y020601D01*
X016101Y017601D02*
X017101Y016601D01*
X018617Y016101D01*
X018101Y015601D02*
X018601Y015101D01*
X018617Y014101D01*
X018101Y013601D02*
X018617Y012101D01*
X018101Y013601D02*
X018101Y009101D01*
X016601Y009101D01*
X016101Y009601D01*
X019101Y008601D02*
X022101Y005601D01*
X017601Y015101D02*
X013601Y015101D01*
X013101Y015601D01*
X015101Y015601D02*
X016101Y015601D01*
X015101Y015601D02*
X013101Y017601D01*
X016101Y016601D02*
X017101Y015601D01*
X018101Y015601D01*
X024601Y019101D02*
X025601Y020101D01*
X027101Y019707D01*
D17*
X027101Y021207D02*
X028601Y021601D01*
X028601Y014101D01*
X029542Y014101D01*
X029542Y014010D01*
X027101Y011601D02*
X027101Y009601D01*
X024101Y013207D02*
X019601Y013207D01*
X019601Y014794D01*
X017613Y014794D01*
X017613Y015101D01*
X017601Y015101D01*
X016101Y014601D02*
X016101Y012601D01*
X015101Y012601D01*
X013101Y012601D01*
X019601Y013101D02*
X019601Y013207D01*
X013101Y018601D02*
X011601Y018601D01*
X011601Y023101D01*
X031101Y023101D01*
X031101Y024601D01*
X032101Y024601D02*
X032101Y022601D01*
X012101Y022601D01*
X012101Y019601D01*
X013101Y019601D01*
X016101Y019601D02*
X024101Y019601D01*
X024101Y019707D01*
X024101Y021207D01*
M02*
