G75*
G70*
%OFA0B0*%
%FSLAX24Y24*%
%IPPOS*%
%LPD*%
%AMOC8*
5,1,8,0,0,1.08239X$1,22.5*
%
%ADD10C,0.0000*%
%ADD11C,0.0060*%
%ADD12C,0.0080*%
%ADD13C,0.0010*%
%ADD14C,0.0050*%
%ADD15C,0.0020*%
%ADD16C,0.0160*%
D10*
X000506Y006264D02*
X000506Y029760D01*
X021376Y029760D01*
X021376Y006264D01*
X000506Y006264D01*
X000856Y008764D02*
X000858Y008814D01*
X000864Y008864D01*
X000874Y008914D01*
X000887Y008962D01*
X000904Y009010D01*
X000925Y009056D01*
X000949Y009100D01*
X000977Y009142D01*
X001008Y009182D01*
X001042Y009219D01*
X001079Y009254D01*
X001118Y009285D01*
X001159Y009314D01*
X001203Y009339D01*
X001249Y009361D01*
X001296Y009379D01*
X001344Y009393D01*
X001393Y009404D01*
X001443Y009411D01*
X001493Y009414D01*
X001544Y009413D01*
X001594Y009408D01*
X001644Y009399D01*
X001692Y009387D01*
X001740Y009370D01*
X001786Y009350D01*
X001831Y009327D01*
X001874Y009300D01*
X001914Y009270D01*
X001952Y009237D01*
X001987Y009201D01*
X002020Y009162D01*
X002049Y009121D01*
X002075Y009078D01*
X002098Y009033D01*
X002117Y008986D01*
X002132Y008938D01*
X002144Y008889D01*
X002152Y008839D01*
X002156Y008789D01*
X002156Y008739D01*
X002152Y008689D01*
X002144Y008639D01*
X002132Y008590D01*
X002117Y008542D01*
X002098Y008495D01*
X002075Y008450D01*
X002049Y008407D01*
X002020Y008366D01*
X001987Y008327D01*
X001952Y008291D01*
X001914Y008258D01*
X001874Y008228D01*
X001831Y008201D01*
X001786Y008178D01*
X001740Y008158D01*
X001692Y008141D01*
X001644Y008129D01*
X001594Y008120D01*
X001544Y008115D01*
X001493Y008114D01*
X001443Y008117D01*
X001393Y008124D01*
X001344Y008135D01*
X001296Y008149D01*
X001249Y008167D01*
X001203Y008189D01*
X001159Y008214D01*
X001118Y008243D01*
X001079Y008274D01*
X001042Y008309D01*
X001008Y008346D01*
X000977Y008386D01*
X000949Y008428D01*
X000925Y008472D01*
X000904Y008518D01*
X000887Y008566D01*
X000874Y008614D01*
X000864Y008664D01*
X000858Y008714D01*
X000856Y008764D01*
X017856Y028764D02*
X017858Y028814D01*
X017864Y028864D01*
X017874Y028914D01*
X017887Y028962D01*
X017904Y029010D01*
X017925Y029056D01*
X017949Y029100D01*
X017977Y029142D01*
X018008Y029182D01*
X018042Y029219D01*
X018079Y029254D01*
X018118Y029285D01*
X018159Y029314D01*
X018203Y029339D01*
X018249Y029361D01*
X018296Y029379D01*
X018344Y029393D01*
X018393Y029404D01*
X018443Y029411D01*
X018493Y029414D01*
X018544Y029413D01*
X018594Y029408D01*
X018644Y029399D01*
X018692Y029387D01*
X018740Y029370D01*
X018786Y029350D01*
X018831Y029327D01*
X018874Y029300D01*
X018914Y029270D01*
X018952Y029237D01*
X018987Y029201D01*
X019020Y029162D01*
X019049Y029121D01*
X019075Y029078D01*
X019098Y029033D01*
X019117Y028986D01*
X019132Y028938D01*
X019144Y028889D01*
X019152Y028839D01*
X019156Y028789D01*
X019156Y028739D01*
X019152Y028689D01*
X019144Y028639D01*
X019132Y028590D01*
X019117Y028542D01*
X019098Y028495D01*
X019075Y028450D01*
X019049Y028407D01*
X019020Y028366D01*
X018987Y028327D01*
X018952Y028291D01*
X018914Y028258D01*
X018874Y028228D01*
X018831Y028201D01*
X018786Y028178D01*
X018740Y028158D01*
X018692Y028141D01*
X018644Y028129D01*
X018594Y028120D01*
X018544Y028115D01*
X018493Y028114D01*
X018443Y028117D01*
X018393Y028124D01*
X018344Y028135D01*
X018296Y028149D01*
X018249Y028167D01*
X018203Y028189D01*
X018159Y028214D01*
X018118Y028243D01*
X018079Y028274D01*
X018042Y028309D01*
X018008Y028346D01*
X017977Y028386D01*
X017949Y028428D01*
X017925Y028472D01*
X017904Y028518D01*
X017887Y028566D01*
X017874Y028614D01*
X017864Y028664D01*
X017858Y028714D01*
X017856Y028764D01*
D11*
X019161Y026703D02*
X019331Y026703D01*
X019161Y026703D02*
X019104Y026646D01*
X019104Y026476D01*
X019331Y026476D01*
X019331Y026344D02*
X019331Y026230D01*
X019331Y026287D02*
X018991Y026287D01*
X018991Y026230D02*
X018991Y026344D01*
X019104Y025721D02*
X019104Y025550D01*
X019161Y025494D01*
X019275Y025494D01*
X019331Y025550D01*
X019331Y025721D01*
X019388Y025721D02*
X019104Y025721D01*
X019388Y025721D02*
X019445Y025664D01*
X019445Y025607D01*
X019623Y025651D02*
X019680Y025594D01*
X019793Y025594D01*
X019850Y025651D01*
X019850Y025708D01*
X019793Y025764D01*
X019736Y025764D01*
X019793Y025764D02*
X019850Y025821D01*
X019850Y025878D01*
X019793Y025935D01*
X019680Y025935D01*
X019623Y025878D01*
X019275Y025352D02*
X019161Y025352D01*
X019104Y025296D01*
X019104Y025182D01*
X019161Y025125D01*
X019275Y025125D01*
X019331Y025182D01*
X019331Y025296D01*
X019275Y025352D01*
X019331Y024993D02*
X019331Y024880D01*
X019331Y024937D02*
X018991Y024937D01*
X018991Y024880D01*
X019161Y024738D02*
X019331Y024738D01*
X019331Y024568D01*
X019275Y024512D01*
X019218Y024568D01*
X019218Y024738D01*
X019161Y024738D02*
X019104Y024682D01*
X019104Y024568D01*
X019161Y024370D02*
X019331Y024370D01*
X019161Y024370D02*
X019104Y024313D01*
X019104Y024143D01*
X019331Y024143D01*
X019331Y024002D02*
X019104Y024002D01*
X018991Y023888D01*
X019104Y023775D01*
X019331Y023775D01*
X019161Y023775D02*
X019161Y024002D01*
X019623Y023821D02*
X019736Y023935D01*
X019736Y023594D01*
X019623Y023594D02*
X019850Y023594D01*
X019793Y022935D02*
X019680Y022935D01*
X019623Y022878D01*
X019623Y022651D01*
X019850Y022878D01*
X019850Y022651D01*
X019793Y022594D01*
X019680Y022594D01*
X019623Y022651D01*
X019850Y022878D02*
X019793Y022935D01*
X019850Y024594D02*
X019623Y024594D01*
X019850Y024821D01*
X019850Y024878D01*
X019793Y024935D01*
X019680Y024935D01*
X019623Y024878D01*
X019793Y026594D02*
X019793Y026935D01*
X019623Y026764D01*
X019850Y026764D01*
X019793Y027594D02*
X019680Y027594D01*
X019623Y027651D01*
X019623Y027764D02*
X019736Y027821D01*
X019793Y027821D01*
X019850Y027764D01*
X019850Y027651D01*
X019793Y027594D01*
X019623Y027764D02*
X019623Y027935D01*
X019850Y027935D01*
X019850Y020935D02*
X019850Y020594D01*
X019623Y020935D01*
X019623Y020594D01*
X019491Y020594D02*
X019377Y020594D01*
X019434Y020594D02*
X019434Y020935D01*
X019377Y020935D02*
X019491Y020935D01*
X019236Y020935D02*
X019236Y020708D01*
X019123Y020594D01*
X019009Y020708D01*
X019009Y020935D01*
X019056Y019935D02*
X018943Y019935D01*
X018886Y019878D01*
X018886Y019651D01*
X018943Y019594D01*
X019056Y019594D01*
X019113Y019651D01*
X019113Y019764D01*
X019000Y019764D01*
X019113Y019878D02*
X019056Y019935D01*
X019255Y019935D02*
X019482Y019594D01*
X019482Y019935D01*
X019623Y019935D02*
X019793Y019935D01*
X019850Y019878D01*
X019850Y019651D01*
X019793Y019594D01*
X019623Y019594D01*
X019623Y019935D01*
X019255Y019935D02*
X019255Y019594D01*
X019255Y018935D02*
X019482Y018594D01*
X019482Y018935D01*
X019623Y018935D02*
X019623Y018594D01*
X019793Y018594D01*
X019850Y018651D01*
X019850Y018878D01*
X019793Y018935D01*
X019623Y018935D01*
X019255Y018935D02*
X019255Y018594D01*
X019113Y018651D02*
X019113Y018764D01*
X019000Y018764D01*
X019113Y018651D02*
X019056Y018594D01*
X018943Y018594D01*
X018886Y018651D01*
X018886Y018878D01*
X018943Y018935D01*
X019056Y018935D01*
X019113Y018878D01*
X019255Y017935D02*
X019255Y017764D01*
X019368Y017821D01*
X019425Y017821D01*
X019482Y017764D01*
X019482Y017651D01*
X019425Y017594D01*
X019311Y017594D01*
X019255Y017651D01*
X019113Y017764D02*
X018886Y017764D01*
X019000Y017651D02*
X019000Y017878D01*
X019255Y017935D02*
X019482Y017935D01*
X019623Y017935D02*
X019623Y017708D01*
X019736Y017594D01*
X019850Y017708D01*
X019850Y017935D01*
X019850Y016935D02*
X019850Y016708D01*
X019736Y016594D01*
X019623Y016708D01*
X019623Y016935D01*
X019481Y016878D02*
X019481Y016821D01*
X019425Y016764D01*
X019481Y016708D01*
X019481Y016651D01*
X019425Y016594D01*
X019311Y016594D01*
X019255Y016651D01*
X019127Y016651D02*
X019127Y016594D01*
X019071Y016594D01*
X019071Y016651D01*
X019127Y016651D01*
X018929Y016651D02*
X018872Y016594D01*
X018759Y016594D01*
X018702Y016651D01*
X018816Y016764D02*
X018872Y016764D01*
X018929Y016708D01*
X018929Y016651D01*
X018872Y016764D02*
X018929Y016821D01*
X018929Y016878D01*
X018872Y016935D01*
X018759Y016935D01*
X018702Y016878D01*
X018561Y016764D02*
X018334Y016764D01*
X018447Y016651D02*
X018447Y016878D01*
X019255Y016878D02*
X019311Y016935D01*
X019425Y016935D01*
X019481Y016878D01*
X019425Y016764D02*
X019368Y016764D01*
X019311Y015935D02*
X019255Y015878D01*
X019255Y015821D01*
X019311Y015764D01*
X019425Y015764D01*
X019482Y015708D01*
X019482Y015651D01*
X019425Y015594D01*
X019311Y015594D01*
X019255Y015651D01*
X019113Y015594D02*
X019000Y015708D01*
X019056Y015708D02*
X018886Y015708D01*
X018886Y015594D02*
X018886Y015935D01*
X019056Y015935D01*
X019113Y015878D01*
X019113Y015764D01*
X019056Y015708D01*
X019311Y015935D02*
X019425Y015935D01*
X019482Y015878D01*
X019623Y015935D02*
X019850Y015935D01*
X019736Y015935D02*
X019736Y015594D01*
X018506Y010414D02*
X018506Y009664D01*
X018467Y009662D01*
X018428Y009656D01*
X018390Y009647D01*
X018353Y009634D01*
X018317Y009617D01*
X018284Y009597D01*
X018252Y009573D01*
X018223Y009547D01*
X018197Y009518D01*
X018173Y009486D01*
X018153Y009453D01*
X018136Y009417D01*
X018123Y009380D01*
X018114Y009342D01*
X018108Y009303D01*
X018106Y009264D01*
X018108Y009225D01*
X018114Y009186D01*
X018123Y009148D01*
X018136Y009111D01*
X018153Y009075D01*
X018173Y009042D01*
X018197Y009010D01*
X018223Y008981D01*
X018252Y008955D01*
X018284Y008931D01*
X018317Y008911D01*
X018353Y008894D01*
X018390Y008881D01*
X018428Y008872D01*
X018467Y008866D01*
X018506Y008864D01*
X018506Y008114D01*
X004506Y008114D01*
X004506Y010414D01*
X018506Y010414D01*
X012156Y012564D02*
X009856Y012564D01*
X009805Y012566D01*
X009754Y012571D01*
X009704Y012581D01*
X009654Y012594D01*
X009606Y012610D01*
X009559Y012630D01*
X009513Y012654D01*
X009470Y012680D01*
X009428Y012710D01*
X009389Y012743D01*
X009352Y012778D01*
X009318Y012816D01*
X009287Y012857D01*
X009258Y012899D01*
X009233Y012944D01*
X009212Y012990D01*
X009193Y013038D01*
X009179Y013087D01*
X009168Y013137D01*
X009160Y013187D01*
X009156Y013238D01*
X009156Y013290D01*
X009160Y013341D01*
X009168Y013391D01*
X009179Y013441D01*
X009193Y013490D01*
X009212Y013538D01*
X009233Y013584D01*
X009258Y013629D01*
X009287Y013671D01*
X009318Y013712D01*
X009352Y013750D01*
X009389Y013785D01*
X009428Y013818D01*
X009470Y013848D01*
X009513Y013874D01*
X009559Y013898D01*
X009606Y013918D01*
X009654Y013934D01*
X009704Y013947D01*
X009754Y013957D01*
X009805Y013962D01*
X009856Y013964D01*
X012156Y013964D01*
X012207Y013962D01*
X012258Y013957D01*
X012308Y013947D01*
X012358Y013934D01*
X012406Y013918D01*
X012453Y013898D01*
X012499Y013874D01*
X012542Y013848D01*
X012584Y013818D01*
X012623Y013785D01*
X012660Y013750D01*
X012694Y013712D01*
X012725Y013671D01*
X012754Y013629D01*
X012779Y013584D01*
X012800Y013538D01*
X012819Y013490D01*
X012833Y013441D01*
X012844Y013391D01*
X012852Y013341D01*
X012856Y013290D01*
X012856Y013238D01*
X012852Y013187D01*
X012844Y013137D01*
X012833Y013087D01*
X012819Y013038D01*
X012800Y012990D01*
X012779Y012944D01*
X012754Y012899D01*
X012725Y012857D01*
X012694Y012816D01*
X012660Y012778D01*
X012623Y012743D01*
X012584Y012710D01*
X012542Y012680D01*
X012499Y012654D01*
X012453Y012630D01*
X012406Y012610D01*
X012358Y012594D01*
X012308Y012581D01*
X012258Y012571D01*
X012207Y012566D01*
X012156Y012564D01*
X011506Y013264D02*
X011256Y013264D01*
X011256Y012914D01*
X011106Y012914D02*
X010906Y012914D01*
X010906Y013614D01*
X011106Y013614D01*
X011106Y012914D01*
X011256Y013264D02*
X011256Y013614D01*
X010756Y013614D02*
X010756Y013264D01*
X010506Y013264D01*
X010756Y013264D02*
X010756Y012914D01*
X003368Y012435D02*
X003141Y012435D01*
X003141Y012094D01*
X003000Y012094D02*
X002773Y012094D01*
X002773Y012435D01*
X003000Y012435D01*
X002886Y012264D02*
X002773Y012264D01*
X002631Y012264D02*
X002575Y012208D01*
X002405Y012208D01*
X002518Y012208D02*
X002631Y012094D01*
X002631Y012264D02*
X002631Y012378D01*
X002575Y012435D01*
X002405Y012435D01*
X002405Y012094D01*
X002263Y012094D02*
X002263Y012321D01*
X002150Y012435D01*
X002036Y012321D01*
X002036Y012094D01*
X002036Y012264D02*
X002263Y012264D01*
X002206Y013094D02*
X002093Y013094D01*
X002036Y013151D01*
X002036Y013378D01*
X002093Y013435D01*
X002206Y013435D01*
X002263Y013378D01*
X002263Y013264D02*
X002150Y013264D01*
X002263Y013264D02*
X002263Y013151D01*
X002206Y013094D01*
X002405Y013094D02*
X002405Y013435D01*
X002631Y013094D01*
X002631Y013435D01*
X002773Y013435D02*
X002943Y013435D01*
X003000Y013378D01*
X003000Y013151D01*
X002943Y013094D01*
X002773Y013094D01*
X002773Y013435D01*
X002575Y014094D02*
X002461Y014094D01*
X002405Y014151D01*
X002263Y014094D02*
X002036Y014094D01*
X002150Y014094D02*
X002150Y014435D01*
X002036Y014321D01*
X002405Y014378D02*
X002461Y014435D01*
X002575Y014435D01*
X002631Y014378D01*
X002631Y014321D01*
X002575Y014264D01*
X002631Y014208D01*
X002631Y014151D01*
X002575Y014094D01*
X002575Y014264D02*
X002518Y014264D01*
X002405Y015094D02*
X002631Y015321D01*
X002631Y015378D01*
X002575Y015435D01*
X002461Y015435D01*
X002405Y015378D01*
X002405Y015094D02*
X002631Y015094D01*
X002263Y015094D02*
X002036Y015094D01*
X002150Y015094D02*
X002150Y015435D01*
X002036Y015321D01*
X002036Y016094D02*
X002263Y016094D01*
X002150Y016094D02*
X002150Y016435D01*
X002036Y016321D01*
X002405Y016321D02*
X002518Y016435D01*
X002518Y016094D01*
X002405Y016094D02*
X002631Y016094D01*
X002575Y017094D02*
X002461Y017094D01*
X002405Y017151D01*
X002631Y017378D01*
X002631Y017151D01*
X002575Y017094D01*
X002405Y017151D02*
X002405Y017378D01*
X002461Y017435D01*
X002575Y017435D01*
X002631Y017378D01*
X002263Y017094D02*
X002036Y017094D01*
X002150Y017094D02*
X002150Y017435D01*
X002036Y017321D01*
X002093Y018094D02*
X002206Y018094D01*
X002263Y018151D01*
X002263Y018378D01*
X002206Y018435D01*
X002093Y018435D01*
X002036Y018378D01*
X002036Y018321D01*
X002093Y018264D01*
X002263Y018264D01*
X002093Y018094D02*
X002036Y018151D01*
X002093Y019094D02*
X002036Y019151D01*
X002036Y019208D01*
X002093Y019264D01*
X002206Y019264D01*
X002263Y019208D01*
X002263Y019151D01*
X002206Y019094D01*
X002093Y019094D01*
X002093Y019264D02*
X002036Y019321D01*
X002036Y019378D01*
X002093Y019435D01*
X002206Y019435D01*
X002263Y019378D01*
X002263Y019321D01*
X002206Y019264D01*
X002036Y020594D02*
X002036Y020651D01*
X002263Y020878D01*
X002263Y020935D01*
X002036Y020935D01*
X002093Y021594D02*
X002206Y021594D01*
X002263Y021651D01*
X002263Y021708D01*
X002206Y021764D01*
X002036Y021764D01*
X002036Y021651D01*
X002093Y021594D01*
X002036Y021764D02*
X002150Y021878D01*
X002263Y021935D01*
X002206Y022594D02*
X002093Y022594D01*
X002036Y022651D01*
X002036Y022764D02*
X002150Y022821D01*
X002206Y022821D01*
X002263Y022764D01*
X002263Y022651D01*
X002206Y022594D01*
X002036Y022764D02*
X002036Y022935D01*
X002263Y022935D01*
X002206Y023594D02*
X002206Y023935D01*
X002036Y023764D01*
X002263Y023764D01*
X002206Y024594D02*
X002093Y024594D01*
X002036Y024651D01*
X002150Y024764D02*
X002206Y024764D01*
X002263Y024708D01*
X002263Y024651D01*
X002206Y024594D01*
X002206Y024764D02*
X002263Y024821D01*
X002263Y024878D01*
X002206Y024935D01*
X002093Y024935D01*
X002036Y024878D01*
X002036Y025594D02*
X002263Y025821D01*
X002263Y025878D01*
X002206Y025935D01*
X002093Y025935D01*
X002036Y025878D01*
X002036Y025594D02*
X002263Y025594D01*
X002150Y026594D02*
X002150Y026935D01*
X002263Y026935D02*
X002036Y026935D01*
X002405Y026935D02*
X002631Y026594D01*
X002405Y026594D02*
X002631Y026935D01*
X002631Y027594D02*
X002405Y027935D01*
X002263Y027878D02*
X002263Y027764D01*
X002206Y027708D01*
X002036Y027708D01*
X002150Y027708D02*
X002263Y027594D01*
X002405Y027594D02*
X002631Y027935D01*
X002263Y027878D02*
X002206Y027935D01*
X002036Y027935D01*
X002036Y027594D01*
X003141Y012264D02*
X003255Y012264D01*
D12*
X005557Y012964D02*
X005557Y013264D01*
X005457Y013264D01*
X005557Y013264D02*
X005557Y013564D01*
X006455Y013564D01*
X006455Y013264D01*
X006555Y013264D01*
X006455Y013264D02*
X006455Y012964D01*
X005557Y012964D01*
X007506Y015964D02*
X007506Y016264D01*
X007406Y016264D01*
X007506Y016264D02*
X007506Y016564D01*
X009506Y016564D01*
X009506Y016264D01*
X009606Y016264D01*
X009506Y016264D02*
X009506Y015964D01*
X007506Y015964D01*
X007506Y017964D02*
X007506Y018264D01*
X007406Y018264D01*
X007506Y018264D02*
X007506Y018564D01*
X009506Y018564D01*
X009506Y018264D01*
X009606Y018264D01*
X009506Y018264D02*
X009506Y017964D01*
X007506Y017964D01*
X007506Y019964D02*
X007506Y020264D01*
X007406Y020264D01*
X007506Y020264D02*
X007506Y020564D01*
X009506Y020564D01*
X009506Y020264D01*
X009606Y020264D01*
X009506Y020264D02*
X009506Y019964D01*
X007506Y019964D01*
X008182Y021614D02*
X009831Y021614D01*
X009894Y022164D02*
X010052Y022164D01*
X009119Y022164D02*
X008894Y022164D01*
X008119Y022164D02*
X007961Y022164D01*
X006106Y022264D02*
X006006Y022264D01*
X006006Y021964D01*
X004006Y021964D01*
X004006Y022264D01*
X003906Y022264D01*
X004006Y022264D02*
X004006Y022564D01*
X006006Y022564D01*
X006006Y022264D01*
X004443Y024662D02*
X016569Y024662D01*
X016569Y026764D01*
X017006Y022564D02*
X015006Y022564D01*
X015006Y022264D01*
X014906Y022264D01*
X015006Y022264D02*
X015006Y021964D01*
X017006Y021964D01*
X017006Y022264D01*
X017106Y022264D01*
X017006Y022264D02*
X017006Y022564D01*
X014606Y020264D02*
X014506Y020264D01*
X014506Y019964D01*
X012506Y019964D01*
X012506Y020264D01*
X012406Y020264D01*
X012506Y020264D02*
X012506Y020564D01*
X014506Y020564D01*
X014506Y020264D01*
X013331Y021614D02*
X011682Y021614D01*
X011619Y022164D02*
X011461Y022164D01*
X012394Y022164D02*
X012619Y022164D01*
X013394Y022164D02*
X013552Y022164D01*
X014506Y018564D02*
X012506Y018564D01*
X012506Y018264D01*
X012406Y018264D01*
X012506Y018264D02*
X012506Y017964D01*
X014506Y017964D01*
X014506Y018264D01*
X014606Y018264D01*
X014506Y018264D02*
X014506Y018564D01*
X014506Y016564D02*
X014506Y016264D01*
X014606Y016264D01*
X014506Y016264D02*
X014506Y015964D01*
X012506Y015964D01*
X012506Y016264D01*
X012406Y016264D01*
X012506Y016264D02*
X012506Y016564D01*
X014506Y016564D01*
X015557Y013564D02*
X015557Y013264D01*
X015457Y013264D01*
X015557Y013264D02*
X015557Y012964D01*
X016455Y012964D01*
X016455Y013264D01*
X016555Y013264D01*
X016455Y013264D02*
X016455Y013564D01*
X015557Y013564D01*
X005055Y017264D02*
X004955Y017264D01*
X004955Y016964D01*
X004057Y016964D01*
X004057Y017264D01*
X003957Y017264D01*
X004057Y017264D02*
X004057Y017564D01*
X004955Y017564D01*
X004955Y017264D01*
X004443Y024662D02*
X004443Y026764D01*
D13*
X005569Y021759D02*
X005644Y021759D01*
X005669Y021734D01*
X005669Y021684D01*
X005644Y021659D01*
X005569Y021659D01*
X005569Y021609D02*
X005569Y021759D01*
X005619Y021659D02*
X005669Y021609D01*
X005717Y021609D02*
X005817Y021609D01*
X005767Y021609D02*
X005767Y021759D01*
X005717Y021709D01*
X005864Y021709D02*
X005889Y021684D01*
X005964Y021684D01*
X005964Y021634D02*
X005964Y021734D01*
X005939Y021759D01*
X005889Y021759D01*
X005864Y021734D01*
X005864Y021709D01*
X005864Y021634D02*
X005889Y021609D01*
X005939Y021609D01*
X005964Y021634D01*
X007511Y020919D02*
X007511Y020769D01*
X007511Y020819D02*
X007586Y020819D01*
X007611Y020844D01*
X007611Y020894D01*
X007586Y020919D01*
X007511Y020919D01*
X007561Y020819D02*
X007611Y020769D01*
X007659Y020769D02*
X007759Y020869D01*
X007759Y020894D01*
X007734Y020919D01*
X007684Y020919D01*
X007659Y020894D01*
X007659Y020769D02*
X007759Y020769D01*
X007806Y020794D02*
X007906Y020894D01*
X007906Y020794D01*
X007881Y020769D01*
X007831Y020769D01*
X007806Y020794D01*
X007806Y020894D01*
X007831Y020919D01*
X007881Y020919D01*
X007906Y020894D01*
X009861Y021597D02*
X009806Y021640D01*
X009842Y021689D01*
X009876Y021740D01*
X009905Y021794D01*
X009932Y021849D01*
X009956Y021905D01*
X009975Y021963D01*
X009992Y022022D01*
X010005Y022082D01*
X010014Y022142D01*
X010019Y022203D01*
X010021Y022265D01*
X010019Y022326D01*
X010014Y022387D01*
X010004Y022447D01*
X009991Y022507D01*
X009975Y022566D01*
X009955Y022624D01*
X009932Y022680D01*
X009905Y022735D01*
X009875Y022789D01*
X009842Y022840D01*
X009806Y022889D01*
X009766Y022936D01*
X009725Y022981D01*
X009680Y023023D01*
X009633Y023062D01*
X009584Y023098D01*
X009533Y023132D01*
X009479Y023162D01*
X009424Y023189D01*
X009368Y023212D01*
X009310Y023232D01*
X009330Y023299D01*
X009331Y023299D01*
X009392Y023278D01*
X009453Y023253D01*
X009512Y023224D01*
X009569Y023192D01*
X009623Y023156D01*
X009676Y023117D01*
X009726Y023075D01*
X009774Y023030D01*
X009819Y022983D01*
X009861Y022933D01*
X009899Y022880D01*
X009935Y022825D01*
X009967Y022768D01*
X009996Y022709D01*
X010021Y022649D01*
X010042Y022587D01*
X010059Y022524D01*
X010073Y022460D01*
X010083Y022395D01*
X010089Y022330D01*
X010091Y022264D01*
X010089Y022199D01*
X010083Y022134D01*
X010073Y022069D01*
X010060Y022005D01*
X010042Y021942D01*
X010021Y021880D01*
X009996Y021820D01*
X009967Y021761D01*
X009935Y021704D01*
X009900Y021649D01*
X009861Y021596D01*
X009854Y021602D01*
X009892Y021654D01*
X009928Y021709D01*
X009959Y021765D01*
X009988Y021824D01*
X010013Y021884D01*
X010034Y021945D01*
X010051Y022007D01*
X010065Y022071D01*
X010074Y022135D01*
X010080Y022200D01*
X010082Y022264D01*
X010080Y022329D01*
X010074Y022394D01*
X010064Y022458D01*
X010051Y022522D01*
X010033Y022584D01*
X010012Y022645D01*
X009987Y022705D01*
X009959Y022764D01*
X009927Y022820D01*
X009892Y022875D01*
X009854Y022927D01*
X009812Y022977D01*
X009768Y023024D01*
X009720Y023069D01*
X009671Y023110D01*
X009618Y023149D01*
X009564Y023184D01*
X009507Y023216D01*
X009449Y023244D01*
X009389Y023269D01*
X009328Y023291D01*
X009325Y023282D01*
X009386Y023261D01*
X009446Y023236D01*
X009503Y023208D01*
X009559Y023176D01*
X009613Y023141D01*
X009665Y023103D01*
X009714Y023062D01*
X009761Y023018D01*
X009805Y022971D01*
X009846Y022921D01*
X009885Y022870D01*
X009919Y022816D01*
X009951Y022759D01*
X009979Y022702D01*
X010004Y022642D01*
X010025Y022581D01*
X010042Y022519D01*
X010055Y022456D01*
X010065Y022393D01*
X010071Y022329D01*
X010073Y022265D01*
X010071Y022200D01*
X010065Y022136D01*
X010056Y022073D01*
X010042Y022010D01*
X010025Y021948D01*
X010004Y021887D01*
X009980Y021827D01*
X009951Y021769D01*
X009920Y021713D01*
X009885Y021659D01*
X009847Y021607D01*
X009840Y021613D01*
X009878Y021664D01*
X009912Y021718D01*
X009944Y021774D01*
X009971Y021831D01*
X009996Y021890D01*
X010016Y021950D01*
X010033Y022012D01*
X010047Y022074D01*
X010056Y022137D01*
X010062Y022201D01*
X010064Y022265D01*
X010062Y022328D01*
X010056Y022392D01*
X010047Y022455D01*
X010033Y022517D01*
X010016Y022579D01*
X009995Y022639D01*
X009971Y022698D01*
X009943Y022755D01*
X009912Y022811D01*
X009877Y022864D01*
X009839Y022916D01*
X009799Y022965D01*
X009755Y023011D01*
X009708Y023055D01*
X009660Y023096D01*
X009608Y023134D01*
X009555Y023169D01*
X009499Y023200D01*
X009442Y023228D01*
X009383Y023253D01*
X009323Y023273D01*
X009320Y023265D01*
X009380Y023244D01*
X009438Y023220D01*
X009495Y023192D01*
X009550Y023161D01*
X009603Y023126D01*
X009654Y023089D01*
X009703Y023048D01*
X009749Y023005D01*
X009792Y022959D01*
X009832Y022910D01*
X009870Y022859D01*
X009904Y022806D01*
X009935Y022751D01*
X009963Y022694D01*
X009987Y022636D01*
X010008Y022576D01*
X010025Y022515D01*
X010038Y022453D01*
X010047Y022391D01*
X010053Y022328D01*
X010055Y022265D01*
X010053Y022201D01*
X010047Y022138D01*
X010038Y022076D01*
X010025Y022014D01*
X010008Y021953D01*
X009987Y021893D01*
X009963Y021835D01*
X009936Y021778D01*
X009905Y021723D01*
X009870Y021670D01*
X009833Y021619D01*
X009826Y021624D01*
X009863Y021675D01*
X009897Y021727D01*
X009928Y021782D01*
X009955Y021838D01*
X009979Y021896D01*
X009999Y021956D01*
X010016Y022016D01*
X010029Y022077D01*
X010039Y022139D01*
X010044Y022202D01*
X010046Y022265D01*
X010044Y022327D01*
X010038Y022390D01*
X010029Y022452D01*
X010016Y022513D01*
X009999Y022573D01*
X009978Y022633D01*
X009955Y022691D01*
X009927Y022747D01*
X009896Y022802D01*
X009862Y022854D01*
X009825Y022905D01*
X009785Y022953D01*
X009742Y022999D01*
X009697Y023042D01*
X009648Y023082D01*
X009598Y023119D01*
X009545Y023153D01*
X009491Y023184D01*
X009435Y023212D01*
X009377Y023236D01*
X009317Y023256D01*
X009315Y023248D01*
X009373Y023227D01*
X009431Y023203D01*
X009487Y023176D01*
X009541Y023145D01*
X009593Y023112D01*
X009643Y023075D01*
X009691Y023035D01*
X009736Y022992D01*
X009778Y022947D01*
X009818Y022899D01*
X009855Y022849D01*
X009889Y022797D01*
X009919Y022743D01*
X009946Y022687D01*
X009970Y022629D01*
X009990Y022571D01*
X010007Y022511D01*
X010020Y022450D01*
X010029Y022389D01*
X010035Y022327D01*
X010037Y022265D01*
X010035Y022202D01*
X010030Y022141D01*
X010020Y022079D01*
X010007Y022018D01*
X009991Y021958D01*
X009970Y021900D01*
X009947Y021842D01*
X009920Y021786D01*
X009889Y021732D01*
X009856Y021680D01*
X009819Y021630D01*
X009812Y021635D01*
X009848Y021685D01*
X009881Y021737D01*
X009912Y021790D01*
X009939Y021846D01*
X009962Y021903D01*
X009982Y021961D01*
X009999Y022020D01*
X010011Y022081D01*
X010021Y022142D01*
X010026Y022203D01*
X010028Y022265D01*
X010026Y022326D01*
X010021Y022387D01*
X010011Y022448D01*
X009998Y022509D01*
X009982Y022568D01*
X009962Y022626D01*
X009938Y022683D01*
X009911Y022739D01*
X009881Y022792D01*
X009848Y022844D01*
X009811Y022894D01*
X009772Y022941D01*
X009729Y022986D01*
X009685Y023028D01*
X009637Y023068D01*
X009588Y023104D01*
X009536Y023138D01*
X009483Y023168D01*
X009427Y023195D01*
X009370Y023219D01*
X009312Y023239D01*
X008682Y023299D02*
X008702Y023232D01*
X008644Y023212D01*
X008588Y023189D01*
X008533Y023162D01*
X008480Y023132D01*
X008428Y023098D01*
X008379Y023062D01*
X008332Y023023D01*
X008288Y022981D01*
X008246Y022936D01*
X008206Y022889D01*
X008170Y022840D01*
X008137Y022789D01*
X008107Y022735D01*
X008080Y022680D01*
X008057Y022624D01*
X008037Y022566D01*
X008021Y022507D01*
X008008Y022447D01*
X007998Y022387D01*
X007993Y022326D01*
X007991Y022265D01*
X007993Y022203D01*
X007998Y022142D01*
X008007Y022082D01*
X008020Y022022D01*
X008037Y021963D01*
X008056Y021905D01*
X008080Y021849D01*
X008107Y021794D01*
X008136Y021740D01*
X008170Y021689D01*
X008206Y021640D01*
X008151Y021597D01*
X008151Y021596D01*
X008112Y021649D01*
X008077Y021704D01*
X008045Y021761D01*
X008016Y021820D01*
X007991Y021880D01*
X007970Y021942D01*
X007952Y022005D01*
X007939Y022069D01*
X007929Y022134D01*
X007923Y022199D01*
X007921Y022265D01*
X007923Y022330D01*
X007929Y022395D01*
X007939Y022460D01*
X007953Y022524D01*
X007970Y022587D01*
X007991Y022649D01*
X008016Y022709D01*
X008045Y022768D01*
X008077Y022825D01*
X008113Y022880D01*
X008151Y022933D01*
X008193Y022983D01*
X008238Y023030D01*
X008286Y023075D01*
X008336Y023117D01*
X008389Y023156D01*
X008443Y023192D01*
X008500Y023224D01*
X008559Y023253D01*
X008620Y023278D01*
X008681Y023299D01*
X008684Y023291D01*
X008623Y023269D01*
X008563Y023244D01*
X008505Y023216D01*
X008448Y023184D01*
X008394Y023149D01*
X008341Y023110D01*
X008292Y023069D01*
X008244Y023024D01*
X008200Y022977D01*
X008159Y022927D01*
X008120Y022875D01*
X008085Y022820D01*
X008053Y022764D01*
X008025Y022705D01*
X008000Y022645D01*
X007979Y022584D01*
X007961Y022522D01*
X007948Y022458D01*
X007938Y022394D01*
X007932Y022329D01*
X007930Y022265D01*
X007932Y022200D01*
X007938Y022135D01*
X007947Y022071D01*
X007961Y022007D01*
X007978Y021945D01*
X007999Y021884D01*
X008024Y021824D01*
X008053Y021765D01*
X008084Y021709D01*
X008119Y021654D01*
X008158Y021602D01*
X008165Y021607D01*
X008127Y021659D01*
X008092Y021713D01*
X008061Y021769D01*
X008032Y021827D01*
X008008Y021887D01*
X007987Y021948D01*
X007970Y022010D01*
X007956Y022073D01*
X007947Y022136D01*
X007941Y022200D01*
X007939Y022265D01*
X007941Y022329D01*
X007947Y022393D01*
X007957Y022456D01*
X007970Y022519D01*
X007987Y022581D01*
X008008Y022642D01*
X008033Y022702D01*
X008061Y022759D01*
X008093Y022816D01*
X008127Y022870D01*
X008166Y022921D01*
X008207Y022971D01*
X008251Y023018D01*
X008298Y023062D01*
X008347Y023103D01*
X008399Y023141D01*
X008453Y023176D01*
X008509Y023208D01*
X008566Y023236D01*
X008626Y023261D01*
X008687Y023282D01*
X008689Y023273D01*
X008629Y023253D01*
X008570Y023228D01*
X008513Y023200D01*
X008457Y023169D01*
X008404Y023134D01*
X008352Y023096D01*
X008304Y023055D01*
X008257Y023011D01*
X008213Y022965D01*
X008173Y022916D01*
X008135Y022864D01*
X008100Y022811D01*
X008069Y022755D01*
X008041Y022698D01*
X008017Y022639D01*
X007996Y022579D01*
X007979Y022517D01*
X007965Y022455D01*
X007956Y022392D01*
X007950Y022328D01*
X007948Y022265D01*
X007950Y022201D01*
X007956Y022137D01*
X007965Y022074D01*
X007978Y022012D01*
X007996Y021950D01*
X008016Y021890D01*
X008041Y021831D01*
X008068Y021774D01*
X008100Y021718D01*
X008134Y021664D01*
X008172Y021613D01*
X008179Y021619D01*
X008142Y021670D01*
X008107Y021723D01*
X008076Y021778D01*
X008049Y021835D01*
X008025Y021893D01*
X008004Y021953D01*
X007987Y022014D01*
X007974Y022076D01*
X007965Y022138D01*
X007959Y022201D01*
X007957Y022265D01*
X007959Y022328D01*
X007965Y022391D01*
X007974Y022453D01*
X007987Y022515D01*
X008004Y022576D01*
X008025Y022636D01*
X008049Y022694D01*
X008077Y022751D01*
X008108Y022806D01*
X008142Y022859D01*
X008180Y022910D01*
X008220Y022959D01*
X008263Y023005D01*
X008309Y023048D01*
X008358Y023089D01*
X008409Y023126D01*
X008462Y023161D01*
X008517Y023192D01*
X008574Y023220D01*
X008632Y023244D01*
X008692Y023265D01*
X008695Y023256D01*
X008635Y023236D01*
X008578Y023212D01*
X008521Y023184D01*
X008467Y023153D01*
X008414Y023119D01*
X008364Y023082D01*
X008315Y023042D01*
X008270Y022999D01*
X008227Y022953D01*
X008187Y022905D01*
X008150Y022854D01*
X008116Y022802D01*
X008085Y022747D01*
X008057Y022691D01*
X008034Y022633D01*
X008013Y022573D01*
X007996Y022513D01*
X007983Y022452D01*
X007974Y022390D01*
X007968Y022327D01*
X007966Y022265D01*
X007968Y022202D01*
X007973Y022139D01*
X007983Y022077D01*
X007996Y022016D01*
X008013Y021956D01*
X008033Y021896D01*
X008057Y021838D01*
X008084Y021782D01*
X008115Y021727D01*
X008149Y021675D01*
X008186Y021624D01*
X008193Y021630D01*
X008156Y021680D01*
X008123Y021732D01*
X008092Y021786D01*
X008065Y021842D01*
X008042Y021900D01*
X008021Y021958D01*
X008005Y022018D01*
X007992Y022079D01*
X007982Y022141D01*
X007977Y022202D01*
X007975Y022265D01*
X007977Y022327D01*
X007983Y022389D01*
X007992Y022450D01*
X008005Y022511D01*
X008022Y022571D01*
X008042Y022629D01*
X008066Y022687D01*
X008093Y022743D01*
X008123Y022797D01*
X008157Y022849D01*
X008194Y022899D01*
X008234Y022947D01*
X008276Y022992D01*
X008321Y023035D01*
X008369Y023075D01*
X008419Y023112D01*
X008471Y023145D01*
X008525Y023176D01*
X008581Y023203D01*
X008639Y023227D01*
X008697Y023248D01*
X008700Y023239D01*
X008642Y023219D01*
X008585Y023195D01*
X008530Y023168D01*
X008476Y023138D01*
X008424Y023104D01*
X008375Y023068D01*
X008327Y023028D01*
X008283Y022986D01*
X008240Y022941D01*
X008201Y022894D01*
X008165Y022844D01*
X008131Y022792D01*
X008101Y022739D01*
X008074Y022683D01*
X008050Y022626D01*
X008030Y022568D01*
X008014Y022509D01*
X008001Y022448D01*
X007991Y022388D01*
X007986Y022326D01*
X007984Y022265D01*
X007986Y022203D01*
X007991Y022142D01*
X008001Y022081D01*
X008013Y022020D01*
X008030Y021961D01*
X008050Y021903D01*
X008073Y021846D01*
X008100Y021790D01*
X008130Y021737D01*
X008164Y021685D01*
X008200Y021635D01*
X007906Y018919D02*
X007806Y018919D01*
X007806Y018844D01*
X007856Y018869D01*
X007881Y018869D01*
X007906Y018844D01*
X007906Y018794D01*
X007881Y018769D01*
X007831Y018769D01*
X007806Y018794D01*
X007759Y018794D02*
X007734Y018769D01*
X007684Y018769D01*
X007659Y018794D01*
X007611Y018769D02*
X007561Y018819D01*
X007586Y018819D02*
X007511Y018819D01*
X007511Y018769D02*
X007511Y018919D01*
X007586Y018919D01*
X007611Y018894D01*
X007611Y018844D01*
X007586Y018819D01*
X007659Y018894D02*
X007684Y018919D01*
X007734Y018919D01*
X007759Y018894D01*
X007759Y018869D01*
X007734Y018844D01*
X007759Y018819D01*
X007759Y018794D01*
X007734Y018844D02*
X007709Y018844D01*
X007709Y016919D02*
X007709Y016769D01*
X007659Y016769D02*
X007759Y016769D01*
X007806Y016794D02*
X007831Y016769D01*
X007881Y016769D01*
X007906Y016794D01*
X007906Y016819D01*
X007881Y016844D01*
X007806Y016844D01*
X007806Y016794D01*
X007806Y016844D02*
X007856Y016894D01*
X007906Y016919D01*
X007709Y016919D02*
X007659Y016869D01*
X007611Y016844D02*
X007586Y016819D01*
X007511Y016819D01*
X007511Y016769D02*
X007511Y016919D01*
X007586Y016919D01*
X007611Y016894D01*
X007611Y016844D01*
X007561Y016819D02*
X007611Y016769D01*
X005465Y016774D02*
X005440Y016799D01*
X005391Y016799D01*
X005366Y016774D01*
X005320Y016774D02*
X005295Y016799D01*
X005246Y016799D01*
X005221Y016774D01*
X005221Y016676D01*
X005246Y016651D01*
X005295Y016651D01*
X005320Y016676D01*
X005366Y016651D02*
X005465Y016750D01*
X005465Y016774D01*
X005465Y016651D02*
X005366Y016651D01*
X005230Y013877D02*
X005181Y013877D01*
X005156Y013853D01*
X005110Y013853D02*
X005085Y013877D01*
X005036Y013877D01*
X005011Y013853D01*
X005011Y013754D01*
X005036Y013730D01*
X005085Y013730D01*
X005110Y013754D01*
X005156Y013754D02*
X005181Y013730D01*
X005230Y013730D01*
X005255Y013754D01*
X005255Y013779D01*
X005230Y013804D01*
X005205Y013804D01*
X005230Y013804D02*
X005255Y013828D01*
X005255Y013853D01*
X005230Y013877D01*
X012511Y018769D02*
X012511Y018919D01*
X012586Y018919D01*
X012611Y018894D01*
X012611Y018844D01*
X012586Y018819D01*
X012511Y018819D01*
X012561Y018819D02*
X012611Y018769D01*
X012659Y018769D02*
X012759Y018869D01*
X012759Y018894D01*
X012734Y018919D01*
X012684Y018919D01*
X012659Y018894D01*
X012659Y018769D02*
X012759Y018769D01*
X012806Y018769D02*
X012906Y018769D01*
X012856Y018769D02*
X012856Y018919D01*
X012806Y018869D01*
X014069Y019609D02*
X014069Y019759D01*
X014144Y019759D01*
X014169Y019734D01*
X014169Y019684D01*
X014144Y019659D01*
X014069Y019659D01*
X014119Y019659D02*
X014169Y019609D01*
X014217Y019634D02*
X014242Y019609D01*
X014292Y019609D01*
X014317Y019634D01*
X014317Y019659D01*
X014292Y019684D01*
X014267Y019684D01*
X014292Y019684D02*
X014317Y019709D01*
X014317Y019734D01*
X014292Y019759D01*
X014242Y019759D01*
X014217Y019734D01*
X014364Y019684D02*
X014464Y019684D01*
X014439Y019609D02*
X014439Y019759D01*
X014364Y019684D01*
X015011Y022769D02*
X015011Y022919D01*
X015086Y022919D01*
X015111Y022894D01*
X015111Y022844D01*
X015086Y022819D01*
X015011Y022819D01*
X015061Y022819D02*
X015111Y022769D01*
X015159Y022769D02*
X015259Y022769D01*
X015306Y022769D02*
X015306Y022794D01*
X015406Y022894D01*
X015406Y022919D01*
X015306Y022919D01*
X015209Y022919D02*
X015209Y022769D01*
X015159Y022869D02*
X015209Y022919D01*
X013361Y021597D02*
X013306Y021640D01*
X013342Y021689D01*
X013376Y021740D01*
X013405Y021794D01*
X013432Y021849D01*
X013456Y021905D01*
X013475Y021963D01*
X013492Y022022D01*
X013505Y022082D01*
X013514Y022142D01*
X013519Y022203D01*
X013521Y022265D01*
X013519Y022326D01*
X013514Y022387D01*
X013504Y022447D01*
X013491Y022507D01*
X013475Y022566D01*
X013455Y022624D01*
X013432Y022680D01*
X013405Y022735D01*
X013375Y022789D01*
X013342Y022840D01*
X013306Y022889D01*
X013266Y022936D01*
X013225Y022981D01*
X013180Y023023D01*
X013133Y023062D01*
X013084Y023098D01*
X013033Y023132D01*
X012979Y023162D01*
X012924Y023189D01*
X012868Y023212D01*
X012810Y023232D01*
X012830Y023299D01*
X012831Y023299D01*
X012892Y023278D01*
X012953Y023253D01*
X013012Y023224D01*
X013069Y023192D01*
X013123Y023156D01*
X013176Y023117D01*
X013226Y023075D01*
X013274Y023030D01*
X013319Y022983D01*
X013361Y022933D01*
X013399Y022880D01*
X013435Y022825D01*
X013467Y022768D01*
X013496Y022709D01*
X013521Y022649D01*
X013542Y022587D01*
X013559Y022524D01*
X013573Y022460D01*
X013583Y022395D01*
X013589Y022330D01*
X013591Y022264D01*
X013589Y022199D01*
X013583Y022134D01*
X013573Y022069D01*
X013560Y022005D01*
X013542Y021942D01*
X013521Y021880D01*
X013496Y021820D01*
X013467Y021761D01*
X013435Y021704D01*
X013400Y021649D01*
X013361Y021596D01*
X013354Y021602D01*
X013392Y021654D01*
X013428Y021709D01*
X013459Y021765D01*
X013488Y021824D01*
X013513Y021884D01*
X013534Y021945D01*
X013551Y022007D01*
X013565Y022071D01*
X013574Y022135D01*
X013580Y022200D01*
X013582Y022264D01*
X013580Y022329D01*
X013574Y022394D01*
X013564Y022458D01*
X013551Y022522D01*
X013533Y022584D01*
X013512Y022645D01*
X013487Y022705D01*
X013459Y022764D01*
X013427Y022820D01*
X013392Y022875D01*
X013354Y022927D01*
X013312Y022977D01*
X013268Y023024D01*
X013220Y023069D01*
X013171Y023110D01*
X013118Y023149D01*
X013064Y023184D01*
X013007Y023216D01*
X012949Y023244D01*
X012889Y023269D01*
X012828Y023291D01*
X012825Y023282D01*
X012886Y023261D01*
X012946Y023236D01*
X013003Y023208D01*
X013059Y023176D01*
X013113Y023141D01*
X013165Y023103D01*
X013214Y023062D01*
X013261Y023018D01*
X013305Y022971D01*
X013346Y022921D01*
X013385Y022870D01*
X013419Y022816D01*
X013451Y022759D01*
X013479Y022702D01*
X013504Y022642D01*
X013525Y022581D01*
X013542Y022519D01*
X013555Y022456D01*
X013565Y022393D01*
X013571Y022329D01*
X013573Y022265D01*
X013571Y022200D01*
X013565Y022136D01*
X013556Y022073D01*
X013542Y022010D01*
X013525Y021948D01*
X013504Y021887D01*
X013480Y021827D01*
X013451Y021769D01*
X013420Y021713D01*
X013385Y021659D01*
X013347Y021607D01*
X013340Y021613D01*
X013378Y021664D01*
X013412Y021718D01*
X013444Y021774D01*
X013471Y021831D01*
X013496Y021890D01*
X013516Y021950D01*
X013533Y022012D01*
X013547Y022074D01*
X013556Y022137D01*
X013562Y022201D01*
X013564Y022265D01*
X013562Y022328D01*
X013556Y022392D01*
X013547Y022455D01*
X013533Y022517D01*
X013516Y022579D01*
X013495Y022639D01*
X013471Y022698D01*
X013443Y022755D01*
X013412Y022811D01*
X013377Y022864D01*
X013339Y022916D01*
X013299Y022965D01*
X013255Y023011D01*
X013208Y023055D01*
X013160Y023096D01*
X013108Y023134D01*
X013055Y023169D01*
X012999Y023200D01*
X012942Y023228D01*
X012883Y023253D01*
X012823Y023273D01*
X012820Y023265D01*
X012880Y023244D01*
X012938Y023220D01*
X012995Y023192D01*
X013050Y023161D01*
X013103Y023126D01*
X013154Y023089D01*
X013203Y023048D01*
X013249Y023005D01*
X013292Y022959D01*
X013332Y022910D01*
X013370Y022859D01*
X013404Y022806D01*
X013435Y022751D01*
X013463Y022694D01*
X013487Y022636D01*
X013508Y022576D01*
X013525Y022515D01*
X013538Y022453D01*
X013547Y022391D01*
X013553Y022328D01*
X013555Y022265D01*
X013553Y022201D01*
X013547Y022138D01*
X013538Y022076D01*
X013525Y022014D01*
X013508Y021953D01*
X013487Y021893D01*
X013463Y021835D01*
X013436Y021778D01*
X013405Y021723D01*
X013370Y021670D01*
X013333Y021619D01*
X013326Y021624D01*
X013363Y021675D01*
X013397Y021727D01*
X013428Y021782D01*
X013455Y021838D01*
X013479Y021896D01*
X013499Y021956D01*
X013516Y022016D01*
X013529Y022077D01*
X013539Y022139D01*
X013544Y022202D01*
X013546Y022265D01*
X013544Y022327D01*
X013538Y022390D01*
X013529Y022452D01*
X013516Y022513D01*
X013499Y022573D01*
X013478Y022633D01*
X013455Y022691D01*
X013427Y022747D01*
X013396Y022802D01*
X013362Y022854D01*
X013325Y022905D01*
X013285Y022953D01*
X013242Y022999D01*
X013197Y023042D01*
X013148Y023082D01*
X013098Y023119D01*
X013045Y023153D01*
X012991Y023184D01*
X012935Y023212D01*
X012877Y023236D01*
X012817Y023256D01*
X012815Y023248D01*
X012873Y023227D01*
X012931Y023203D01*
X012987Y023176D01*
X013041Y023145D01*
X013093Y023112D01*
X013143Y023075D01*
X013191Y023035D01*
X013236Y022992D01*
X013278Y022947D01*
X013318Y022899D01*
X013355Y022849D01*
X013389Y022797D01*
X013419Y022743D01*
X013446Y022687D01*
X013470Y022629D01*
X013490Y022571D01*
X013507Y022511D01*
X013520Y022450D01*
X013529Y022389D01*
X013535Y022327D01*
X013537Y022265D01*
X013535Y022202D01*
X013530Y022141D01*
X013520Y022079D01*
X013507Y022018D01*
X013491Y021958D01*
X013470Y021900D01*
X013447Y021842D01*
X013420Y021786D01*
X013389Y021732D01*
X013356Y021680D01*
X013319Y021630D01*
X013312Y021635D01*
X013348Y021685D01*
X013381Y021737D01*
X013412Y021790D01*
X013439Y021846D01*
X013462Y021903D01*
X013482Y021961D01*
X013499Y022020D01*
X013511Y022081D01*
X013521Y022142D01*
X013526Y022203D01*
X013528Y022265D01*
X013526Y022326D01*
X013521Y022387D01*
X013511Y022448D01*
X013498Y022509D01*
X013482Y022568D01*
X013462Y022626D01*
X013438Y022683D01*
X013411Y022739D01*
X013381Y022792D01*
X013348Y022844D01*
X013311Y022894D01*
X013272Y022941D01*
X013229Y022986D01*
X013185Y023028D01*
X013137Y023068D01*
X013088Y023104D01*
X013036Y023138D01*
X012983Y023168D01*
X012927Y023195D01*
X012870Y023219D01*
X012812Y023239D01*
X012182Y023299D02*
X012202Y023232D01*
X012144Y023212D01*
X012088Y023189D01*
X012033Y023162D01*
X011980Y023132D01*
X011928Y023098D01*
X011879Y023062D01*
X011832Y023023D01*
X011788Y022981D01*
X011746Y022936D01*
X011706Y022889D01*
X011670Y022840D01*
X011637Y022789D01*
X011607Y022735D01*
X011580Y022680D01*
X011557Y022624D01*
X011537Y022566D01*
X011521Y022507D01*
X011508Y022447D01*
X011498Y022387D01*
X011493Y022326D01*
X011491Y022265D01*
X011493Y022203D01*
X011498Y022142D01*
X011507Y022082D01*
X011520Y022022D01*
X011537Y021963D01*
X011556Y021905D01*
X011580Y021849D01*
X011607Y021794D01*
X011636Y021740D01*
X011670Y021689D01*
X011706Y021640D01*
X011651Y021597D01*
X011651Y021596D01*
X011612Y021649D01*
X011577Y021704D01*
X011545Y021761D01*
X011516Y021820D01*
X011491Y021880D01*
X011470Y021942D01*
X011452Y022005D01*
X011439Y022069D01*
X011429Y022134D01*
X011423Y022199D01*
X011421Y022265D01*
X011423Y022330D01*
X011429Y022395D01*
X011439Y022460D01*
X011453Y022524D01*
X011470Y022587D01*
X011491Y022649D01*
X011516Y022709D01*
X011545Y022768D01*
X011577Y022825D01*
X011613Y022880D01*
X011651Y022933D01*
X011693Y022983D01*
X011738Y023030D01*
X011786Y023075D01*
X011836Y023117D01*
X011889Y023156D01*
X011943Y023192D01*
X012000Y023224D01*
X012059Y023253D01*
X012120Y023278D01*
X012181Y023299D01*
X012184Y023291D01*
X012123Y023269D01*
X012063Y023244D01*
X012005Y023216D01*
X011948Y023184D01*
X011894Y023149D01*
X011841Y023110D01*
X011792Y023069D01*
X011744Y023024D01*
X011700Y022977D01*
X011659Y022927D01*
X011620Y022875D01*
X011585Y022820D01*
X011553Y022764D01*
X011525Y022705D01*
X011500Y022645D01*
X011479Y022584D01*
X011461Y022522D01*
X011448Y022458D01*
X011438Y022394D01*
X011432Y022329D01*
X011430Y022265D01*
X011432Y022200D01*
X011438Y022135D01*
X011447Y022071D01*
X011461Y022007D01*
X011478Y021945D01*
X011499Y021884D01*
X011524Y021824D01*
X011553Y021765D01*
X011584Y021709D01*
X011619Y021654D01*
X011658Y021602D01*
X011665Y021607D01*
X011627Y021659D01*
X011592Y021713D01*
X011561Y021769D01*
X011532Y021827D01*
X011508Y021887D01*
X011487Y021948D01*
X011470Y022010D01*
X011456Y022073D01*
X011447Y022136D01*
X011441Y022200D01*
X011439Y022265D01*
X011441Y022329D01*
X011447Y022393D01*
X011457Y022456D01*
X011470Y022519D01*
X011487Y022581D01*
X011508Y022642D01*
X011533Y022702D01*
X011561Y022759D01*
X011593Y022816D01*
X011627Y022870D01*
X011666Y022921D01*
X011707Y022971D01*
X011751Y023018D01*
X011798Y023062D01*
X011847Y023103D01*
X011899Y023141D01*
X011953Y023176D01*
X012009Y023208D01*
X012066Y023236D01*
X012126Y023261D01*
X012187Y023282D01*
X012189Y023273D01*
X012129Y023253D01*
X012070Y023228D01*
X012013Y023200D01*
X011957Y023169D01*
X011904Y023134D01*
X011852Y023096D01*
X011804Y023055D01*
X011757Y023011D01*
X011713Y022965D01*
X011673Y022916D01*
X011635Y022864D01*
X011600Y022811D01*
X011569Y022755D01*
X011541Y022698D01*
X011517Y022639D01*
X011496Y022579D01*
X011479Y022517D01*
X011465Y022455D01*
X011456Y022392D01*
X011450Y022328D01*
X011448Y022265D01*
X011450Y022201D01*
X011456Y022137D01*
X011465Y022074D01*
X011478Y022012D01*
X011496Y021950D01*
X011516Y021890D01*
X011541Y021831D01*
X011568Y021774D01*
X011600Y021718D01*
X011634Y021664D01*
X011672Y021613D01*
X011679Y021619D01*
X011642Y021670D01*
X011607Y021723D01*
X011576Y021778D01*
X011549Y021835D01*
X011525Y021893D01*
X011504Y021953D01*
X011487Y022014D01*
X011474Y022076D01*
X011465Y022138D01*
X011459Y022201D01*
X011457Y022265D01*
X011459Y022328D01*
X011465Y022391D01*
X011474Y022453D01*
X011487Y022515D01*
X011504Y022576D01*
X011525Y022636D01*
X011549Y022694D01*
X011577Y022751D01*
X011608Y022806D01*
X011642Y022859D01*
X011680Y022910D01*
X011720Y022959D01*
X011763Y023005D01*
X011809Y023048D01*
X011858Y023089D01*
X011909Y023126D01*
X011962Y023161D01*
X012017Y023192D01*
X012074Y023220D01*
X012132Y023244D01*
X012192Y023265D01*
X012195Y023256D01*
X012135Y023236D01*
X012078Y023212D01*
X012021Y023184D01*
X011967Y023153D01*
X011914Y023119D01*
X011864Y023082D01*
X011815Y023042D01*
X011770Y022999D01*
X011727Y022953D01*
X011687Y022905D01*
X011650Y022854D01*
X011616Y022802D01*
X011585Y022747D01*
X011557Y022691D01*
X011534Y022633D01*
X011513Y022573D01*
X011496Y022513D01*
X011483Y022452D01*
X011474Y022390D01*
X011468Y022327D01*
X011466Y022265D01*
X011468Y022202D01*
X011473Y022139D01*
X011483Y022077D01*
X011496Y022016D01*
X011513Y021956D01*
X011533Y021896D01*
X011557Y021838D01*
X011584Y021782D01*
X011615Y021727D01*
X011649Y021675D01*
X011686Y021624D01*
X011693Y021630D01*
X011656Y021680D01*
X011623Y021732D01*
X011592Y021786D01*
X011565Y021842D01*
X011542Y021900D01*
X011521Y021958D01*
X011505Y022018D01*
X011492Y022079D01*
X011482Y022141D01*
X011477Y022202D01*
X011475Y022265D01*
X011477Y022327D01*
X011483Y022389D01*
X011492Y022450D01*
X011505Y022511D01*
X011522Y022571D01*
X011542Y022629D01*
X011566Y022687D01*
X011593Y022743D01*
X011623Y022797D01*
X011657Y022849D01*
X011694Y022899D01*
X011734Y022947D01*
X011776Y022992D01*
X011821Y023035D01*
X011869Y023075D01*
X011919Y023112D01*
X011971Y023145D01*
X012025Y023176D01*
X012081Y023203D01*
X012139Y023227D01*
X012197Y023248D01*
X012200Y023239D01*
X012142Y023219D01*
X012085Y023195D01*
X012030Y023168D01*
X011976Y023138D01*
X011924Y023104D01*
X011875Y023068D01*
X011827Y023028D01*
X011783Y022986D01*
X011740Y022941D01*
X011701Y022894D01*
X011665Y022844D01*
X011631Y022792D01*
X011601Y022739D01*
X011574Y022683D01*
X011550Y022626D01*
X011530Y022568D01*
X011514Y022509D01*
X011501Y022448D01*
X011491Y022388D01*
X011486Y022326D01*
X011484Y022265D01*
X011486Y022203D01*
X011491Y022142D01*
X011501Y022081D01*
X011513Y022020D01*
X011530Y021961D01*
X011550Y021903D01*
X011573Y021846D01*
X011600Y021790D01*
X011630Y021737D01*
X011664Y021685D01*
X011700Y021635D01*
X014069Y015759D02*
X014144Y015759D01*
X014169Y015734D01*
X014169Y015684D01*
X014144Y015659D01*
X014069Y015659D01*
X014069Y015609D02*
X014069Y015759D01*
X014119Y015659D02*
X014169Y015609D01*
X014217Y015609D02*
X014317Y015609D01*
X014267Y015609D02*
X014267Y015759D01*
X014217Y015709D01*
X014364Y015709D02*
X014364Y015734D01*
X014389Y015759D01*
X014439Y015759D01*
X014464Y015734D01*
X014464Y015709D01*
X014439Y015684D01*
X014389Y015684D01*
X014364Y015709D01*
X014389Y015684D02*
X014364Y015659D01*
X014364Y015634D01*
X014389Y015609D01*
X014439Y015609D01*
X014464Y015634D01*
X014464Y015659D01*
X014439Y015684D01*
X015036Y013877D02*
X015011Y013853D01*
X015011Y013754D01*
X015036Y013730D01*
X015085Y013730D01*
X015110Y013754D01*
X015156Y013804D02*
X015255Y013804D01*
X015230Y013877D02*
X015230Y013730D01*
X015156Y013804D02*
X015230Y013877D01*
X015110Y013853D02*
X015085Y013877D01*
X015036Y013877D01*
D14*
X014217Y016169D02*
X014037Y016169D01*
X014217Y016349D01*
X014217Y016394D01*
X014172Y016439D01*
X014082Y016439D01*
X014037Y016394D01*
X013922Y016439D02*
X013742Y016259D01*
X013787Y016304D02*
X013922Y016169D01*
X013742Y016169D02*
X013742Y016439D01*
X013627Y016394D02*
X013627Y016349D01*
X013447Y016169D01*
X013627Y016169D01*
X013627Y016394D02*
X013582Y016439D01*
X013492Y016439D01*
X013447Y016394D01*
X013501Y018089D02*
X013366Y018224D01*
X013321Y018179D02*
X013501Y018359D01*
X013321Y018359D02*
X013321Y018089D01*
X013206Y018089D02*
X013026Y018089D01*
X013206Y018269D01*
X013206Y018314D01*
X013161Y018359D01*
X013071Y018359D01*
X013026Y018314D01*
X012911Y018314D02*
X012866Y018359D01*
X012776Y018359D01*
X012731Y018314D01*
X012911Y018314D02*
X012911Y018269D01*
X012731Y018089D01*
X012911Y018089D01*
X013582Y020169D02*
X013582Y020439D01*
X013447Y020304D01*
X013627Y020304D01*
X013742Y020214D02*
X013742Y020169D01*
X013742Y020214D02*
X013922Y020394D01*
X013922Y020439D01*
X013742Y020439D01*
X014037Y020439D02*
X014037Y020169D01*
X014037Y020259D02*
X014217Y020439D01*
X014082Y020304D02*
X014217Y020169D01*
X015276Y022089D02*
X015231Y022134D01*
X015276Y022089D02*
X015366Y022089D01*
X015411Y022134D01*
X015411Y022224D01*
X015366Y022269D01*
X015321Y022269D01*
X015231Y022224D01*
X015231Y022359D01*
X015411Y022359D01*
X015526Y022269D02*
X015616Y022359D01*
X015616Y022089D01*
X015526Y022089D02*
X015706Y022089D01*
X015821Y022134D02*
X016001Y022314D01*
X016001Y022134D01*
X015956Y022089D01*
X015866Y022089D01*
X015821Y022134D01*
X015821Y022314D01*
X015866Y022359D01*
X015956Y022359D01*
X016001Y022314D01*
X009792Y014439D02*
X009492Y014439D01*
X009642Y014439D02*
X009642Y014890D01*
X009492Y014739D01*
X009332Y014890D02*
X009031Y014439D01*
X009332Y014439D02*
X009031Y014890D01*
X008501Y016089D02*
X008321Y016089D01*
X008501Y016269D01*
X008501Y016314D01*
X008456Y016359D01*
X008366Y016359D01*
X008321Y016314D01*
X008206Y016359D02*
X008026Y016179D01*
X008071Y016224D02*
X008206Y016089D01*
X008026Y016089D02*
X008026Y016359D01*
X007911Y016314D02*
X007866Y016359D01*
X007776Y016359D01*
X007731Y016314D01*
X007911Y016314D02*
X007911Y016269D01*
X007731Y016089D01*
X007911Y016089D01*
X007911Y018089D02*
X007731Y018089D01*
X007821Y018089D02*
X007821Y018359D01*
X007731Y018269D01*
X008026Y018314D02*
X008071Y018359D01*
X008161Y018359D01*
X008206Y018314D01*
X008026Y018134D01*
X008071Y018089D01*
X008161Y018089D01*
X008206Y018134D01*
X008206Y018314D01*
X008321Y018359D02*
X008321Y018089D01*
X008321Y018179D02*
X008501Y018359D01*
X008366Y018224D02*
X008501Y018089D01*
X008026Y018134D02*
X008026Y018314D01*
X008026Y020089D02*
X008026Y020134D01*
X008206Y020314D01*
X008206Y020359D01*
X008026Y020359D01*
X007866Y020359D02*
X007866Y020089D01*
X007911Y020224D02*
X007731Y020224D01*
X007866Y020359D01*
X008321Y020359D02*
X008321Y020089D01*
X008321Y020179D02*
X008501Y020359D01*
X008366Y020224D02*
X008501Y020089D01*
X005717Y022214D02*
X005672Y022169D01*
X005582Y022169D01*
X005537Y022214D01*
X005717Y022394D01*
X005717Y022214D01*
X005537Y022214D02*
X005537Y022394D01*
X005582Y022439D01*
X005672Y022439D01*
X005717Y022394D01*
X005422Y022169D02*
X005242Y022169D01*
X005332Y022169D02*
X005332Y022439D01*
X005242Y022349D01*
X005127Y022304D02*
X005127Y022214D01*
X005082Y022169D01*
X004992Y022169D01*
X004947Y022214D01*
X004947Y022304D02*
X005037Y022349D01*
X005082Y022349D01*
X005127Y022304D01*
X005127Y022439D02*
X004947Y022439D01*
X004947Y022304D01*
X018631Y010129D02*
X019081Y010129D01*
X019081Y009979D02*
X019081Y010279D01*
X019006Y009819D02*
X018931Y009819D01*
X018856Y009744D01*
X018856Y009594D01*
X018781Y009518D01*
X018706Y009518D01*
X018631Y009594D01*
X018631Y009744D01*
X018706Y009819D01*
X018781Y009979D02*
X018631Y010129D01*
X018556Y009669D02*
X019156Y009669D01*
X019081Y009744D02*
X019006Y009819D01*
X019081Y009744D02*
X019081Y009594D01*
X019006Y009518D01*
X019006Y009358D02*
X018631Y009358D01*
X018631Y009058D02*
X019006Y009058D01*
X019081Y009133D01*
X019081Y009283D01*
X019006Y009358D01*
D15*
X016045Y013192D02*
X016045Y013330D01*
X016137Y013330D01*
X016091Y013261D02*
X016045Y013261D01*
X015992Y013261D02*
X015992Y013215D01*
X015969Y013192D01*
X015900Y013192D01*
X015900Y013147D02*
X015900Y013284D01*
X015969Y013284D01*
X015992Y013261D01*
X015847Y013307D02*
X015755Y013215D01*
X015755Y013192D01*
X015702Y013192D02*
X015610Y013192D01*
X015702Y013284D01*
X015702Y013307D01*
X015679Y013330D01*
X015633Y013330D01*
X015610Y013307D01*
X015755Y013330D02*
X015847Y013330D01*
X015847Y013307D01*
X013984Y022524D02*
X014007Y022548D01*
X014007Y022571D01*
X013984Y022594D01*
X013914Y022594D01*
X013914Y022548D01*
X013937Y022524D01*
X013984Y022524D01*
X013914Y022594D02*
X013960Y022641D01*
X014007Y022664D01*
X013860Y022641D02*
X013860Y022548D01*
X013836Y022524D01*
X013790Y022524D01*
X013766Y022548D01*
X013766Y022641D01*
X013790Y022664D01*
X013836Y022664D01*
X013860Y022641D01*
X013813Y022571D02*
X013860Y022524D01*
X010507Y022641D02*
X010414Y022548D01*
X010414Y022524D01*
X010360Y022524D02*
X010313Y022571D01*
X010290Y022524D02*
X010266Y022548D01*
X010266Y022641D01*
X010290Y022664D01*
X010336Y022664D01*
X010360Y022641D01*
X010360Y022548D01*
X010336Y022524D01*
X010290Y022524D01*
X010414Y022664D02*
X010507Y022664D01*
X010507Y022641D01*
X010444Y026806D02*
X010351Y026806D01*
X010444Y026899D01*
X010444Y026922D01*
X010421Y026946D01*
X010374Y026946D01*
X010351Y026922D01*
X010297Y026946D02*
X010203Y026806D01*
X010297Y026806D02*
X010203Y026946D01*
X004869Y017336D02*
X004778Y017336D01*
X004778Y017199D01*
X004724Y017199D02*
X004724Y017290D01*
X004778Y017267D02*
X004823Y017267D01*
X004724Y017199D02*
X004655Y017199D01*
X004633Y017222D01*
X004633Y017290D01*
X004579Y017199D02*
X004488Y017199D01*
X004533Y017199D02*
X004533Y017336D01*
X004488Y017290D01*
X004438Y017222D02*
X004438Y017199D01*
X004415Y017199D01*
X004415Y017222D01*
X004438Y017222D01*
X004362Y017222D02*
X004339Y017199D01*
X004293Y017199D01*
X004270Y017222D01*
X004362Y017313D01*
X004362Y017222D01*
X004362Y017313D02*
X004339Y017336D01*
X004293Y017336D01*
X004270Y017313D01*
X004270Y017222D01*
X005633Y013330D02*
X005610Y013307D01*
X005633Y013330D02*
X005679Y013330D01*
X005702Y013307D01*
X005702Y013284D01*
X005610Y013192D01*
X005702Y013192D01*
X005755Y013192D02*
X005755Y013215D01*
X005847Y013307D01*
X005847Y013330D01*
X005755Y013330D01*
X005900Y013284D02*
X005900Y013147D01*
X005900Y013192D02*
X005969Y013192D01*
X005992Y013215D01*
X005992Y013261D01*
X005969Y013284D01*
X005900Y013284D01*
X006045Y013261D02*
X006091Y013261D01*
X006045Y013192D02*
X006045Y013330D01*
X006137Y013330D01*
D16*
X009856Y014164D02*
X009797Y014162D01*
X009739Y014156D01*
X009680Y014147D01*
X009623Y014133D01*
X009567Y014116D01*
X009512Y014095D01*
X009458Y014071D01*
X009406Y014043D01*
X009356Y014012D01*
X009308Y013978D01*
X009263Y013941D01*
X009220Y013900D01*
X009179Y013857D01*
X009142Y013812D01*
X009108Y013764D01*
X009077Y013714D01*
X009049Y013662D01*
X009025Y013608D01*
X009004Y013553D01*
X008987Y013497D01*
X008973Y013440D01*
X008964Y013381D01*
X008958Y013323D01*
X008956Y013264D01*
X008958Y013205D01*
X008964Y013147D01*
X008973Y013088D01*
X008987Y013031D01*
X009004Y012975D01*
X009025Y012920D01*
X009049Y012866D01*
X009077Y012814D01*
X009108Y012764D01*
X009142Y012716D01*
X009179Y012671D01*
X009220Y012628D01*
X009263Y012587D01*
X009308Y012550D01*
X009356Y012516D01*
X009406Y012485D01*
X009458Y012457D01*
X009512Y012433D01*
X009567Y012412D01*
X009623Y012395D01*
X009680Y012381D01*
X009739Y012372D01*
X009797Y012366D01*
X009856Y012364D01*
X012156Y012364D01*
X012215Y012366D01*
X012273Y012372D01*
X012332Y012381D01*
X012389Y012395D01*
X012445Y012412D01*
X012500Y012433D01*
X012554Y012457D01*
X012606Y012485D01*
X012656Y012516D01*
X012704Y012550D01*
X012749Y012587D01*
X012792Y012628D01*
X012833Y012671D01*
X012870Y012716D01*
X012904Y012764D01*
X012935Y012814D01*
X012963Y012866D01*
X012987Y012920D01*
X013008Y012975D01*
X013025Y013031D01*
X013039Y013088D01*
X013048Y013147D01*
X013054Y013205D01*
X013056Y013264D01*
X013054Y013323D01*
X013048Y013381D01*
X013039Y013440D01*
X013025Y013497D01*
X013008Y013553D01*
X012987Y013608D01*
X012963Y013662D01*
X012935Y013714D01*
X012904Y013764D01*
X012870Y013812D01*
X012833Y013857D01*
X012792Y013900D01*
X012749Y013941D01*
X012704Y013978D01*
X012656Y014012D01*
X012606Y014043D01*
X012554Y014071D01*
X012500Y014095D01*
X012445Y014116D01*
X012389Y014133D01*
X012332Y014147D01*
X012273Y014156D01*
X012215Y014162D01*
X012156Y014164D01*
X009856Y014164D01*
M02*
