G75*
G70*
%OFA0B0*%
%FSLAX24Y24*%
%IPPOS*%
%LPD*%
%AMOC8*
5,1,8,0,0,1.08239X$1,22.5*
%
%ADD10C,0.0060*%
%ADD11C,0.0740*%
%ADD12C,0.0480*%
%ADD13C,0.0480*%
%ADD14R,0.0740X0.0740*%
%ADD15C,0.2000*%
%ADD16C,0.0100*%
%ADD17C,0.0160*%
D10*
X006889Y027294D02*
X007102Y027294D01*
X007209Y027401D01*
X007209Y027614D01*
X007102Y027721D01*
X006889Y027721D01*
X006782Y027614D01*
X006782Y027508D01*
X007209Y027508D01*
X007426Y027721D02*
X007426Y027188D01*
X007533Y027081D01*
X007640Y027081D01*
X007747Y027294D02*
X007426Y027294D01*
X007747Y027294D02*
X007853Y027401D01*
X007853Y027614D01*
X007747Y027721D01*
X007426Y027721D01*
X006958Y028294D02*
X006745Y028721D01*
X006527Y028828D02*
X006527Y028401D01*
X006100Y028828D01*
X006100Y028401D01*
X006207Y028294D01*
X006420Y028294D01*
X006527Y028401D01*
X006527Y028828D02*
X006420Y028935D01*
X006207Y028935D01*
X006100Y028828D01*
X005883Y028401D02*
X005776Y028401D01*
X005776Y028294D01*
X005883Y028294D01*
X005883Y028401D01*
X005560Y028294D02*
X005133Y028294D01*
X005347Y028294D02*
X005347Y028935D01*
X005560Y028721D01*
X006958Y028294D02*
X007172Y028721D01*
X008034Y028614D02*
X008034Y028401D01*
X008140Y028294D01*
X008354Y028294D01*
X008461Y028401D01*
X008461Y028614D01*
X008354Y028721D01*
X008140Y028721D01*
X008034Y028614D01*
X008678Y028614D02*
X008678Y028294D01*
X008678Y028614D02*
X008785Y028721D01*
X009105Y028721D01*
X009105Y028294D01*
X009321Y028294D02*
X009535Y028294D01*
X009428Y028294D02*
X009428Y028721D01*
X009535Y028721D01*
X009752Y028721D02*
X009752Y028294D01*
X010073Y028294D01*
X010179Y028401D01*
X010179Y028721D01*
X010397Y028721D02*
X010717Y028721D01*
X010824Y028614D01*
X010824Y028401D01*
X010717Y028294D01*
X010397Y028294D01*
X010397Y028935D01*
X011040Y028721D02*
X011254Y028721D01*
X011147Y028828D02*
X011147Y028401D01*
X011040Y028294D01*
X011471Y028508D02*
X011898Y028508D01*
X011898Y028614D02*
X011898Y028401D01*
X011791Y028294D01*
X011578Y028294D01*
X011471Y028508D02*
X011471Y028614D01*
X011578Y028721D01*
X011791Y028721D01*
X011898Y028614D01*
X012116Y028614D02*
X012116Y028294D01*
X012116Y028614D02*
X012222Y028721D01*
X012543Y028721D01*
X012543Y028294D01*
X012760Y028401D02*
X012760Y028828D01*
X012867Y028935D01*
X013187Y028935D01*
X013187Y028294D01*
X012867Y028294D01*
X012760Y028401D01*
X012795Y027721D02*
X012689Y027614D01*
X012582Y027721D01*
X012475Y027614D01*
X012475Y027294D01*
X012689Y027294D02*
X012689Y027614D01*
X012795Y027721D02*
X012902Y027721D01*
X012902Y027294D01*
X013118Y027294D02*
X013332Y027294D01*
X013225Y027294D02*
X013225Y027721D01*
X013332Y027721D01*
X013225Y027935D02*
X013225Y028042D01*
X013512Y028294D02*
X013405Y028401D01*
X013405Y028508D01*
X013512Y028614D01*
X013832Y028614D01*
X014049Y028401D02*
X014049Y028828D01*
X014156Y028935D01*
X014370Y028935D01*
X014476Y028828D01*
X014476Y028401D01*
X014370Y028294D01*
X014156Y028294D01*
X014049Y028401D01*
X013832Y028294D02*
X013512Y028294D01*
X013832Y028294D02*
X013832Y028935D01*
X013512Y028935D01*
X013405Y028828D01*
X013405Y028721D01*
X013512Y028614D01*
X013656Y027935D02*
X013549Y027828D01*
X013656Y027935D02*
X013870Y027935D01*
X013976Y027828D01*
X013976Y027721D01*
X013870Y027614D01*
X013656Y027614D01*
X013549Y027508D01*
X013549Y027401D01*
X013656Y027294D01*
X013870Y027294D01*
X013976Y027401D01*
X012258Y027401D02*
X012151Y027294D01*
X011937Y027294D01*
X011831Y027401D01*
X011831Y027614D01*
X011937Y027721D01*
X012151Y027721D01*
X012258Y027614D01*
X012258Y027401D01*
X011613Y027294D02*
X011613Y027721D01*
X011293Y027721D01*
X011186Y027614D01*
X011186Y027294D01*
X010324Y027401D02*
X010217Y027294D01*
X010004Y027294D01*
X009897Y027401D01*
X009897Y027614D01*
X010110Y027614D01*
X010324Y027401D02*
X010324Y027828D01*
X010217Y027935D01*
X010004Y027935D01*
X009897Y027828D01*
X009679Y027614D02*
X009573Y027721D01*
X009359Y027721D01*
X009252Y027614D01*
X009252Y027508D01*
X009679Y027508D01*
X009679Y027614D02*
X009679Y027401D01*
X009573Y027294D01*
X009359Y027294D01*
X009035Y027401D02*
X008928Y027294D01*
X008715Y027294D01*
X008608Y027401D01*
X008608Y027614D01*
X008715Y027721D01*
X008928Y027721D01*
X009035Y027614D01*
X009035Y027401D01*
X008390Y027294D02*
X008390Y027721D01*
X008390Y027508D02*
X008177Y027721D01*
X008070Y027721D01*
X009428Y028935D02*
X009428Y029042D01*
D11*
X009963Y026323D03*
X010506Y025205D03*
X011050Y026323D03*
X011597Y025205D03*
X012140Y026323D03*
X012687Y025205D03*
X012506Y023014D03*
X012006Y022264D03*
X013006Y022264D03*
X014506Y022264D03*
X015006Y020264D03*
X015006Y018264D03*
X015006Y016264D03*
X015022Y013264D03*
X016991Y013264D03*
X020506Y015764D03*
X020506Y016764D03*
X020506Y017764D03*
X020506Y018764D03*
X020506Y019764D03*
X020506Y020764D03*
X020506Y022764D03*
X020506Y023764D03*
X020506Y024764D03*
X020506Y025764D03*
X020506Y026764D03*
X020506Y027764D03*
X017506Y022264D03*
X012006Y020264D03*
X012006Y018264D03*
X012006Y016264D03*
X010006Y016264D03*
X010006Y018264D03*
X010006Y020264D03*
X009506Y022264D03*
X009006Y023014D03*
X008506Y022264D03*
X007006Y020264D03*
X006506Y022264D03*
X008872Y026323D03*
X009416Y025205D03*
X007006Y018264D03*
X007006Y016264D03*
X005491Y017264D03*
X003522Y017264D03*
X001506Y017264D03*
X001506Y016264D03*
X001506Y015264D03*
X001506Y014264D03*
X001506Y013264D03*
X001506Y012264D03*
X005022Y013264D03*
X006991Y013264D03*
X001506Y018264D03*
X001506Y019264D03*
X001506Y020764D03*
X001506Y021764D03*
X001506Y022764D03*
X001506Y023764D03*
X001506Y024764D03*
X001506Y025764D03*
X001506Y026764D03*
X001506Y027764D03*
X003506Y022264D03*
D12*
X010056Y013264D03*
X011956Y013264D03*
D13*
X005006Y008004D02*
X005006Y007524D01*
X006006Y007524D02*
X006006Y008004D01*
X007006Y008004D02*
X007006Y007524D01*
X008006Y007524D02*
X008006Y008004D01*
X009006Y008004D02*
X009006Y007524D01*
X010006Y007524D02*
X010006Y008004D01*
X011006Y008004D02*
X011006Y007524D01*
X012006Y007524D02*
X012006Y008004D01*
X013006Y008004D02*
X013006Y007524D01*
X014006Y007524D02*
X014006Y008004D01*
X015006Y008004D02*
X015006Y007524D01*
X016006Y007524D02*
X016006Y008004D01*
X017006Y008004D02*
X017006Y007524D01*
X018006Y007524D02*
X018006Y008004D01*
X018006Y010524D02*
X018006Y011004D01*
X017006Y011004D02*
X017006Y010524D01*
X016006Y010524D02*
X016006Y011004D01*
X015006Y011004D02*
X015006Y010524D01*
X014006Y010524D02*
X014006Y011004D01*
X013006Y011004D02*
X013006Y010524D01*
X012006Y010524D02*
X012006Y011004D01*
X011006Y011004D02*
X011006Y010524D01*
X010006Y010524D02*
X010006Y011004D01*
X009006Y011004D02*
X009006Y010524D01*
X008006Y010524D02*
X008006Y011004D01*
X007006Y011004D02*
X007006Y010524D01*
X006006Y010524D02*
X006006Y011004D01*
X005006Y011004D02*
X005006Y010524D01*
D14*
X008325Y025205D03*
D15*
X005585Y025764D03*
X015428Y025764D03*
D16*
X012506Y026264D02*
X012140Y026323D01*
X011506Y025264D02*
X011597Y025205D01*
X011506Y025264D02*
X010506Y024264D01*
X008506Y024264D01*
X006506Y022264D01*
X008506Y022264D02*
X009006Y021764D01*
X011506Y021764D01*
X012006Y022264D01*
X013506Y019764D02*
X009506Y019764D01*
X010006Y020264D01*
X009506Y019764D02*
X003006Y019764D01*
X003006Y014264D01*
X004506Y012764D01*
X005006Y012764D01*
X007006Y010764D01*
X006006Y010764D02*
X009006Y007764D01*
X009006Y006764D02*
X010006Y007764D01*
X009006Y006764D02*
X006006Y006764D01*
X005006Y007764D01*
X005022Y013264D02*
X005006Y013264D01*
X005506Y013764D01*
X009506Y013764D01*
X010006Y013264D01*
X010056Y013264D01*
X011506Y013264D02*
X011956Y013264D01*
X012006Y013264D01*
X015022Y013264D01*
X015506Y011764D02*
X012006Y011764D01*
X011006Y010764D01*
X009006Y010764D02*
X011506Y013264D01*
X013006Y010764D02*
X014006Y010764D01*
X015506Y011764D02*
X017006Y013264D01*
X016991Y013264D01*
X019006Y012764D02*
X017006Y010764D01*
X019006Y012764D02*
X019006Y017264D01*
X005491Y017264D01*
X004506Y018264D02*
X007006Y018264D01*
X004506Y018264D02*
X003506Y017264D01*
X003522Y017264D01*
X010006Y018264D02*
X010506Y017764D01*
X015506Y017764D01*
X015506Y020264D01*
X015006Y020264D01*
X013506Y019764D02*
X015006Y018264D01*
D17*
X017506Y021264D02*
X017506Y022264D01*
X017506Y023764D01*
X014006Y023764D01*
X014006Y026264D01*
X012140Y026264D01*
X012140Y026323D01*
X012006Y021264D02*
X012006Y020264D01*
X012006Y021264D02*
X017506Y021264D01*
X012006Y021264D02*
X003506Y021264D01*
X003506Y022264D01*
M02*
