G75*
G70*
%OFA0B0*%
%FSLAX24Y24*%
%IPPOS*%
%LPD*%
%AMOC8*
5,1,8,0,0,1.08239X$1,22.5*
%
%ADD10C,0.0000*%
D10*
X000506Y006264D02*
X000506Y029760D01*
X021376Y029760D01*
X021376Y006264D01*
X000506Y006264D01*
X000856Y008764D02*
X000858Y008814D01*
X000864Y008864D01*
X000874Y008914D01*
X000887Y008962D01*
X000904Y009010D01*
X000925Y009056D01*
X000949Y009100D01*
X000977Y009142D01*
X001008Y009182D01*
X001042Y009219D01*
X001079Y009254D01*
X001118Y009285D01*
X001159Y009314D01*
X001203Y009339D01*
X001249Y009361D01*
X001296Y009379D01*
X001344Y009393D01*
X001393Y009404D01*
X001443Y009411D01*
X001493Y009414D01*
X001544Y009413D01*
X001594Y009408D01*
X001644Y009399D01*
X001692Y009387D01*
X001740Y009370D01*
X001786Y009350D01*
X001831Y009327D01*
X001874Y009300D01*
X001914Y009270D01*
X001952Y009237D01*
X001987Y009201D01*
X002020Y009162D01*
X002049Y009121D01*
X002075Y009078D01*
X002098Y009033D01*
X002117Y008986D01*
X002132Y008938D01*
X002144Y008889D01*
X002152Y008839D01*
X002156Y008789D01*
X002156Y008739D01*
X002152Y008689D01*
X002144Y008639D01*
X002132Y008590D01*
X002117Y008542D01*
X002098Y008495D01*
X002075Y008450D01*
X002049Y008407D01*
X002020Y008366D01*
X001987Y008327D01*
X001952Y008291D01*
X001914Y008258D01*
X001874Y008228D01*
X001831Y008201D01*
X001786Y008178D01*
X001740Y008158D01*
X001692Y008141D01*
X001644Y008129D01*
X001594Y008120D01*
X001544Y008115D01*
X001493Y008114D01*
X001443Y008117D01*
X001393Y008124D01*
X001344Y008135D01*
X001296Y008149D01*
X001249Y008167D01*
X001203Y008189D01*
X001159Y008214D01*
X001118Y008243D01*
X001079Y008274D01*
X001042Y008309D01*
X001008Y008346D01*
X000977Y008386D01*
X000949Y008428D01*
X000925Y008472D01*
X000904Y008518D01*
X000887Y008566D01*
X000874Y008614D01*
X000864Y008664D01*
X000858Y008714D01*
X000856Y008764D01*
X017856Y028764D02*
X017858Y028814D01*
X017864Y028864D01*
X017874Y028914D01*
X017887Y028962D01*
X017904Y029010D01*
X017925Y029056D01*
X017949Y029100D01*
X017977Y029142D01*
X018008Y029182D01*
X018042Y029219D01*
X018079Y029254D01*
X018118Y029285D01*
X018159Y029314D01*
X018203Y029339D01*
X018249Y029361D01*
X018296Y029379D01*
X018344Y029393D01*
X018393Y029404D01*
X018443Y029411D01*
X018493Y029414D01*
X018544Y029413D01*
X018594Y029408D01*
X018644Y029399D01*
X018692Y029387D01*
X018740Y029370D01*
X018786Y029350D01*
X018831Y029327D01*
X018874Y029300D01*
X018914Y029270D01*
X018952Y029237D01*
X018987Y029201D01*
X019020Y029162D01*
X019049Y029121D01*
X019075Y029078D01*
X019098Y029033D01*
X019117Y028986D01*
X019132Y028938D01*
X019144Y028889D01*
X019152Y028839D01*
X019156Y028789D01*
X019156Y028739D01*
X019152Y028689D01*
X019144Y028639D01*
X019132Y028590D01*
X019117Y028542D01*
X019098Y028495D01*
X019075Y028450D01*
X019049Y028407D01*
X019020Y028366D01*
X018987Y028327D01*
X018952Y028291D01*
X018914Y028258D01*
X018874Y028228D01*
X018831Y028201D01*
X018786Y028178D01*
X018740Y028158D01*
X018692Y028141D01*
X018644Y028129D01*
X018594Y028120D01*
X018544Y028115D01*
X018493Y028114D01*
X018443Y028117D01*
X018393Y028124D01*
X018344Y028135D01*
X018296Y028149D01*
X018249Y028167D01*
X018203Y028189D01*
X018159Y028214D01*
X018118Y028243D01*
X018079Y028274D01*
X018042Y028309D01*
X018008Y028346D01*
X017977Y028386D01*
X017949Y028428D01*
X017925Y028472D01*
X017904Y028518D01*
X017887Y028566D01*
X017874Y028614D01*
X017864Y028664D01*
X017858Y028714D01*
X017856Y028764D01*
M02*
